<?xml version="1.0" encoding="utf-8"?>
<!-- Generator: Adobe Illustrator 24.3.0, SVG Export Plug-In . SVG Version: 6.00 Build 0)  -->
<svg version="1.1" xmlns="http://www.w3.org/2000/svg" xmlns:xlink="http://www.w3.org/1999/xlink" x="0px" y="0px"
	 viewBox="0 0 1100 800" style="enable-background:new 0 0 1100 800;" xml:space="preserve">
<style type="text/css">
	.st0{display:none;}
	.st1{display:inline;fill:#FFFFFF;}
	.st2{fill:#F1F2F2;}
	.st3{fill:#3B455A;}
	.st4{fill:#2E3644;}
	.st5{fill:#CCD2D9;}
	.st6{fill:#AA6755;}
	.st7{fill:#EFEFEF;}
	.st8{fill:#D34E4E;}
	.st9{fill:#FFFFFF;}
	.st10{fill:#7FC5A3;}
	.st11{fill:#EAC1A4;}
	.st12{fill:#40495F;}
	.st13{fill:#474EBB;}
	.st14{fill:#8EC3CB;}
	.st15{fill:#EBCEB1;}
	.st16{fill:#EBB044;}
</style>
<g id="Background" class="st0">
	<rect class="st1" width="1100" height="800"/>
</g>
<g id="Shadow">
	<g>
		<path class="st2" d="M517.02,668.12c-29.11,0.08-58.22,0.76-87.28,3.89c-10.96,1.18-21.68,3.78-32.66,4.82
			c-21.93,2.09-43.48,5.99-65.49,7.79c-17.73,1.45-35.53,2.3-53.2,4.14c-16.57,1.72-34.92,1.33-51.36-1.52
			c-12.17-2.11-24.4-3.3-36.37-6.68c-13.39-3.79-27.93-6.5-41.88-6.4c-19.89,0.14-39.26,0.16-58.3,6.85
			c-6.68,2.35-14.86,6.21-19.94,11.14c-11.62,11.28-13.19,39.43-1.59,51.13c19.54,19.69,61.23,27.42,88.62,27.79
			c30.01,0.4,59.16-1.76,89.21-3.03c27.92-1.18,55.78-2.86,83.75-2.8c57.13,0.12,114.26,0,171.29-3.7
			c53.58-3.47,107.29-2.28,160.98-2.28c55.06,0,109.75,0.42,164.41,7.51c23.82,3.09,48.08,4.17,72.02,6.33
			c21.44,1.94,42.04-0.04,63.39-1.83c17.93-1.5,35.74-5.96,52.03-13.5c12.89-5.97,35.88-24.51,39.83-38.75
			c11.08-39.93-156.22-38.97-181.91-38.88c-28.74,0.1-57.7,1.02-86.41-0.04c-12.08-0.45-23.98-2.73-35.77-5.24
			c-11.74-2.5-23.57-1.86-35.48-2.91c-49.66-4.37-99.42-3.73-149.23-3.73C549.46,668.21,533.24,668.07,517.02,668.12z"/>
	</g>
</g>
<g id="Object">
	<g>
		<g>
			<g>
				<polygon class="st3" points="286.76,571.65 289.33,631.16 281.81,732.33 270.55,733.13 256.88,641.24 237.97,563.48 				"/>
				<polygon class="st4" points="270.95,737.87 283.56,743.09 289.21,736.58 282.69,730.92 270.52,731.79 				"/>
			</g>
			<g>
				<polygon class="st3" points="207.1,550.6 204.63,595.57 211.96,729.31 223.23,729.87 240.11,642.16 255.01,545.97 				"/>
				<polygon class="st4" points="222.92,734.62 210.43,740.11 204.65,733.71 211.04,727.92 223.23,728.53 				"/>
			</g>
			<g>
				<path class="st5" d="M272.62,418.09l-35.16-3.77c0,0-19.56,2.09-32.83,48.54c-7.38,25.84-9.63,66.56-10.17,97.61
					c0.83,4.43,5.66,23.83,26.06,20.54c35.03-5.65,53.68-11.3,68.93-8.48c13,2.83,11.9-15.07,10.47-28.72l-5.18-42.25L272.62,418.09
					z"/>
			</g>
			<g>
				<path class="st6" d="M265.83,374.33c-8.86-1.95-17.98-3.7-26.86-1.95c-1.94,0.38-4.03,1.06-5.08,2.74
					c-0.41,0.65-0.62,1.4-0.82,2.14c-2.24,8.32-5.08,20.66,0.4,28.33c1.04,1.46,2.45,2.62,3.96,3.57c2.02,1.26,4.25,2.12,6.56,2.57
					c-0.48,2.07-1.14,4.1-1.98,6.04c2.03,3.06,11.49,3.43,13.24,0.49c0.1-2.54,0.2-5.08,0.29-7.61c1.15-0.47,2.27-1.03,3.31-1.72
					c4.04-2.66,6.71-6.71,8.26-11.23c1.69-4.92,4.06-9.61,5.6-14.63c0.56-1.83,1-3.92,0.04-5.57c-1.02-1.76-3.23-2.36-5.22-2.8
					C266.95,374.58,266.39,374.45,265.83,374.33z"/>
				<path class="st3" d="M236.33,379.08c4.38-2.82,10.95-4.03,15.07-3.73c12.45,0.9,17.01,10.05,17.68,21.5
					c3.43-4.36,9.87-9.84,10.26-15.45c0.32-4.59-0.32-10.85-2.89-14.82c-2.41-3.71-8.56-5.75-12.22-7.9
					c-3.45-2.03-6.9-4.05-10.35-6.08c-0.72-0.42-1.46-0.85-2.28-0.99c-0.97-0.17-1.96,0.08-2.91,0.33
					c-8.16,2.11-16.31,4.22-24.47,6.32c-1.57,0.4-3.35,1-3.93,2.51c-0.35,0.92-0.14,1.95,0.07,2.91c0.93,4.23,2.7,8.56,3.14,12.85
					c0.5,2.49,1.98,15.26,6.4,13.79c1.3-2.12,1.49-4.73,2.5-7C233.13,381.63,234.55,380.23,236.33,379.08z"/>
			</g>
			<polygon class="st5" points="237.45,414.33 224.46,418.28 176.99,468.01 174.17,484.39 196.86,521.86 202.99,508.12 
				193.38,480.44 208.64,469.7 228.98,423.93 			"/>
		</g>
		<g>
			<polygon class="st7" points="647.81,32.61 513.29,33.95 419.12,130.02 420.46,264.54 516.53,358.71 651.05,357.37 745.22,261.3 
				743.88,126.78 			"/>
			<polygon class="st8" points="733.22,131.32 643.48,43.36 517.83,44.61 429.87,134.35 431.12,260 520.86,347.97 646.51,346.71 
				734.47,256.98 			"/>
			<g>
				<path class="st9" d="M515.63,179.81l0.01,1.3l-14.14,0.14l-0.01-0.97c-0.06-6.26-3.88-10.22-10.14-10.15
					c-6.69,0.07-10.33,3.45-10.28,7.98c0.15,15,36,5.79,36.27,32.99c0.17,16.94-10.56,23.64-25.88,23.79
					c-13.6,0.14-25.66-7.52-25.81-22.73c-0.01-0.86,0.09-1.84,0.08-2.38l14.35-0.14c0,0.22-0.1,1.19-0.09,1.73
					c0.07,7.02,4.43,11.72,11.99,11.65c8.31-0.08,11.18-4.54,11.14-8.85c-0.18-17.59-36.01-6.76-36.29-34.93
					c-0.14-14.03,11.45-20.84,24.51-20.97C504.51,158.12,515.48,164.59,515.63,179.81z"/>
				<path class="st9" d="M573.4,171.03l-18.35,0.18l0.62,61.73l-13.81,0.14l-0.62-61.73l-18.35,0.18l-0.12-12.3l50.51-0.5
					L573.4,171.03z"/>
				<path class="st9" d="M639.05,195.09c0.26,26.12-11.27,38.43-30.38,38.62c-19.1,0.19-30.88-11.89-31.14-38.01
					c-0.26-26.12,11.27-38.43,30.38-38.62C627.01,156.9,638.79,168.98,639.05,195.09z M591.75,192.87l0.05,5.4
					c0.15,14.79,5.74,23.69,16.75,23.58c11.01-0.11,16.42-9.12,16.28-23.91l-0.05-5.4c-0.15-14.79-5.74-23.69-16.75-23.58
					C597.02,169.07,591.6,178.08,591.75,192.87z"/>
				<path class="st9" d="M663.09,203.17l0.29,28.71l-13.81,0.14l-0.74-74.04l26.44-0.26c15.33-0.15,23.3,9.16,23.43,22
					c0.14,13.92-9.05,23.19-22.97,23.33L663.09,203.17z M662.76,170.14l0.21,20.83l11.22-0.11c6.69-0.07,10.32-4.2,10.25-11
					c-0.06-6.04-3.88-9.89-10.46-9.83L662.76,170.14z"/>
			</g>
		</g>
		<g>
			<g>
				<polygon class="st4" points="813.02,727.98 813.93,735 800.78,743.83 792.86,737.71 798.98,729.79 812.12,720.95 				"/>
				<g>
					<polygon class="st5" points="813.47,725.62 803.33,636.04 815.53,535.76 812.79,514.42 758.31,512.35 756.34,547.07 
						765.49,636.18 799.89,730.2 					"/>
				</g>
				<g>
					<polygon class="st5" points="718.33,522.39 718.19,612.79 736.39,729.16 749.48,729.03 756.68,621.41 773.53,513.7 					"/>
					<polygon class="st4" points="749.46,734.56 735.37,741.78 728.22,734.77 735.23,727.62 749.39,727.47 					"/>
				</g>
				<g>
					<path class="st10" d="M821.17,553.14c-0.12-3.92-0.34-7.19-0.37-8.35c-0.28-10.51-1.22-20.99-2.53-31.43
						c-1.18-9.35-2.67-32.56-4.27-41.85c-1.32-7.67-5.92-26.82-9.25-33.94c-8.27-17.7-5.72-19.33-42.05-24.59
						c-15.93-2.3-19.69,7.62-32.71,19.04c-1.28,1.13-1.21,7.83-1.51,9.6c-0.52,3.13-1.09,6.25-1.73,9.35
						c-0.51,2.44-1.07,4.87-1.69,7.29l0,0c0,0-10.93,49.74-18.16,60.3c-7.23,10.56-22.16,25.33,2.82,34.35
						c4.43,1.43,8.88,2.79,13.49,3.52c0,0,20.43-2.27,30.93-2.19c9.68,0.07,19.39,1.05,28.9,2.69c6.36,1.06,12.85,2.61,18.54,5.58
						c5.43,2.84,9.35,7.01,14.85,9.94c0.52,0.28,1.09,0.57,1.69,0.48C821.28,572.5,821.43,561.38,821.17,553.14z"/>
				</g>
				<g>
					<path class="st11" d="M762.65,417.96c1.83,0.91,6.16,1.23,10.67-0.54c0.91-0.36,1.52-1.23,1.51-2.21
						c-0.04-2.74-0.26-5.48-0.66-8.19c3.39-1.19,7.3-2.98,7.89-6.52c0.19-1.11-0.01-2.25-0.2-3.37c-0.8-4.6-1.59-9.21-2.39-13.81
						c-0.28-1.59-0.57-3.23-1.43-4.6c-1.52-2.39-4.47-3.44-7.26-3.93c-7.13-1.24-14.9,0.31-20.43,4.98
						c-1.47,1.24-2.8,2.74-3.45,4.55c-1,2.8-0.25,5.88,0.5,8.75c0.7,2.65,1.39,5.3,2.09,7.95c0.8,3.05,1.96,6.52,4.9,7.66
						c1.56,0.61,3.4,0.43,4.81,1.33C761.69,411.61,761.35,415.31,762.65,417.96z"/>
					<path class="st3" d="M721.49,372.04c-0.7-1.15-1.45-2.26-2.3-3.3c-1.83-2.25-4.08-4.19-5.55-6.69c-1.47-2.5-1.99-5.89-0.22-8.2
						c1.14-1.49,2.99-2.23,4.79-2.76c5.92-1.74,12.31-1.86,18.29-0.34c5.7,1.45,10.8,3.85,16.53,1.71
						c5.39-2.01,9.28-1.19,14.91,0.82c6.09,2.17,14.28,2.69,19.79,5.76c2.3,1.28,4.14,3.29,5.58,5.5
						c4.96,7.67,4.99,18.24,0.07,25.93c-1.1,1.73-2.43,3.3-3.82,4.81c-2.88,3.12-6.32,6.97-10.27,8.13
						c-0.09-3.54,3.13-14.7,0.41-17.6c-4.31-4.6-14.06-3-19.41-1.86c-5.84,1.24-11.04,5.37-16.82,6.25
						c-4.16,0.64-9.48-1.41-13.02-3.56C726.08,383.98,724.05,376.24,721.49,372.04z"/>
				</g>
				<polygon class="st10" points="792.86,419.77 815.53,439.64 840.82,492.79 808.88,530.8 803.38,509.55 				"/>
			</g>
			<g>
				<polygon class="st11" points="646.02,435.05 634.76,427.8 637.65,422.85 646.46,426.11 646.74,423.13 655.62,430.51 
					653.31,436.06 				"/>
				<polygon class="st10" points="751.46,414.63 692.71,438.71 655.62,430.51 652,437.6 685.83,462.51 732.45,456.96 				"/>
			</g>
		</g>
		<g>
			<g>
				<polygon class="st4" points="567.18,733.92 566.86,740.07 578.84,746.85 585.3,741.02 579.47,734.55 567.49,727.77 				"/>
				<polygon class="st12" points="557.41,547.32 556.45,566 577.18,648.19 566.63,731.9 578.7,734.97 612.22,634.39 612.82,604.13 
					604.49,541.91 				"/>
			</g>
			<g>
				<polygon class="st12" points="649.22,545.56 658.51,623.59 654.6,725.92 643.28,727.13 626.15,634.94 600.68,543.65 				"/>
				<polygon class="st4" points="643.86,731.9 656.76,736.71 662.22,729.93 655.44,724.46 643.2,725.78 				"/>
			</g>
		</g>
		<g>
			<path class="st13" d="M653.79,532.57c-11.66-23.74-16.31-49.78-22.42-75.39c-1.81-7.56-3.68-15.27-7.88-21.81
				c-4.83-7.5-11.49-10.86-18.88-12.16c-9.4-1.65-19.96,0.06-29.37,0.85c-5.69,17.79-9.4,7.7-16.09,25.13
				c-1.39,3.62-5.32,34.93-6.78,38.51v0c0,0-15.36,48.11-10.45,86.16c0.05,0.38,0.09,0.74,0.13,1.11c0.99,0.17,1.94,0.34,2.83,0.52
				c13.26,2.68,26.79,4.13,40.33,3.96c12.01-0.16,24.02-1.61,35.68-4.5c15.96-3.95,34.92-2.34,47.97-12.85
				C665.04,554.33,657.62,540.36,653.79,532.57z"/>
		</g>
		<g>
			<polygon class="st13" points="516.41,429.35 529.52,358.16 540.66,360.31 541.18,414.03 			"/>
		</g>
		<polygon class="st13" points="516.41,429.35 581.48,471.76 572.24,428.36 532.25,410.11 		"/>
		<g>
			<path class="st6" d="M600.66,392.99c-8.45-12.73-30.19-12.04-30.51,5.52c-0.09,5.27,0.46,10.69,2.79,15.43
				c2.33,4.73,6.69,8.7,11.91,9.47c0.03,0,0.06,0.01,0.09,0.01c0.17,1.35,0.34,2.69,0.51,4.04c0.04,0.29,0.09,0.61,0.31,0.8
				c0.25,0.22,0.62,0.19,0.95,0.15c1.61-0.19,3.22-0.38,4.83-0.57c0.8-0.09,1.63-0.2,2.3-0.64c1.48-0.96,1.62-3.08,1.23-4.8
				c-0.09-0.41-0.21-0.82-0.33-1.23C603.06,415.54,606.18,401.31,600.66,392.99z"/>
			<g>
				<path class="st3" d="M566.07,378.01c-3.82,0.88-5.52,5.58-8.12,8.72c-2.17,2.61-5.15,4.25-7.52,6.64
					c-2.37,2.39-4.16,6.14-2.92,9.48c-3.5-0.37-7.26-0.69-10.27,1.22c-3.01,1.91-4.51,6.98-1.95,9.68c2.29,2.42,6.3,1.62,8.66,3.96
					c3.73,3.7,1.12,12.73,5.92,14.27c1.15,0.37,2.41,0.07,3.56,0.47c1.43,0.49,2.38,1.92,3.4,3.13c4.63,5.46,12.61,7.09,18.56,3.78
					c3.19-3.36,4.82-8.37,4.52-13.24c-0.37-5.88-3.87-6.6-6.26-11.32c-2.62-5.15-3.14-11.49-1.4-16.97
					c1.13-3.57,3.35-7.13,6.55-8.75c1.3-0.66,1.31,0.63,2.42-1c0.48-0.7,0.7-2.74,0.57-3.63C577,382.97,571.1,376.86,566.07,378.01z
					"/>
				<path class="st3" d="M606.91,369.67c2.06-0.21,4.05-1.08,6.13-1c3.12,0.12,4.04,2.95,5.74,5.05c1.88,2.33,4.49,5.42,7.06,6.8
					c1.85,0.99,3.95,1.15,5.94,1.69s4.07,1.69,4.85,3.77c0.74,1.98,0.11,4.26,0.69,6.29c0.91,3.02,2.01,4.31,2.28,7.65
					c0.14,1.72,0.26,3.56-0.48,5.07c-0.98,1.98-3.16,2.81-5.2,3.24c-2.03,0.43-4.21,0.67-5.84,2.05c-3.54,2.97-1.16,6.8-0.89,10.68
					c0.41,5.91-4.48,11.38-9.89,11.34c-4.58-0.03-8.67-3.73-10.28-8.34c-0.8-2.31-0.73-4.78-1.55-7.08
					c-0.8-2.22-3.22-4.77-1.92-7.29c0.32-0.61,0.85-1.08,1.1-1.73c0.2-0.53,0.19-1.13,0.11-1.7c-0.29-1.98-1.46-3.8-3.07-4.77
					c-1.16-0.7-2.54-0.99-3.49-2.01c-1.08-1.17-1.29-2.95-1.79-4.5c-1.22-3.77-4.66-6.59-8.28-6.81c-2.39-0.14-4.43,0.02-6.75-0.71
					c-0.35-0.11-5.77-2.09-5.57-1.28c-0.34-1.41-0.02-2.88,0.35-4.26c0.61-2.27,1.38-4.55,2.79-6.33c4.58-5.73,7.98,2.09,12.31-0.82
					c1.05-0.7,1.5-2.09,2.28-3.12c1.48-1.95,4.04-2.46,6.38-2.36C602.24,369.32,604.58,369.91,606.91,369.67z"/>
			</g>
		</g>
		<g>
			<g>
				<path class="st13" d="M623.41,463.26c1.23,5.42,5.7,10.55,9.65,16.2c4.63,6.64,9.27,13.27,13.9,19.91l-15.08,47.79l9.41,3.23
					l27.17-47.68c-0.03-19.05-17.03-28.81-21.49-39.5c-2.32-5.57-20.17-22.79-23.49-27.84c-4.89-7.43,1.76,5.13-4.22,11.17
					C614.26,451.61,622.44,458.96,623.41,463.26z"/>
			</g>
			<polygon class="st6" points="638.66,553.27 636.72,555.89 632.18,554.8 628.41,557.3 627.52,554.87 634.1,548.02 639.15,549.75 
							"/>
		</g>
		<polygon class="st6" points="532.04,354.49 536.92,346.35 539.44,352.06 542.27,350.22 543.33,353.45 539.72,360.16 
			532.14,358.69 		"/>
		<g>
			<polygon class="st4" points="421.24,721.47 433.7,728.32 432.62,734.17 410.48,731.13 411.67,722.7 			"/>
			<polygon class="st4" points="364.9,727.88 356.23,727.78 354.11,735.12 354.33,735.18 354.28,735.18 368.71,743.48 
				375.53,744.15 376.3,736.36 374.44,735.03 			"/>
			<path class="st13" d="M391.62,589.64c1.39-0.15,5.19,49.73,5.19,49.73L369.84,730l-15.55-3.06l9.48-90.49
				c0,0-32.93-37.97-23.45-66.34C354.64,577.06,391.62,589.64,391.62,589.64z"/>
			<path class="st13" d="M430.49,590.06l3.15,44.47l-8.68,88.5l-16.01-0.82c0,0-3.86-83.82-5.44-85.54
				c-1.59-1.71-15.22-45.69-15.22-45.69L430.49,590.06z"/>
			<g>
				<path class="st14" d="M409.44,610.35c-50.85-0.93-54.58-26.59-65.78-29.39c-11.2-2.8-5.36-16.13-5.36-16.13s2.12-5.95,3.03-9.06
					c6.53-22.39,26.14-51.13,26.14-51.14c9.67-13.2,19.38-24.85,27.76-31.89c24.93-20.93,51.63-21.91,51.63-21.91
					c38.46,12.02,24.88,30.11,25.33,34.86c-12.65,11.59-21.81,28.96-28.57,47.62c-3.18,9.88-6.94,26.94-4.32,47.65
					c0.84,6.64,1.82,12.4,2.78,17.42C442.26,604.93,435.97,610.77,409.44,610.35z"/>
				<path class="st9" d="M447.01,454.89c0,0,8.56-4.69,13.86,3.47c6.44,9.9-29.94,54.55-29.08,150.04
					c-9.53,1.93-34.1,6.54-59.44-5.42C378.11,574.6,402.95,489.04,447.01,454.89z"/>
			</g>
			<polygon class="st15" points="482.31,595.42 492.26,604.65 496.39,600.57 490.98,592.74 493.83,591.72 484.35,584.86 
				479.48,588.52 			"/>
			<path class="st14" d="M472.09,468.26l3.47,8.05l-3.32,59.22c0,0,17.53,50.69,17.06,50.69c-0.47,0-11.84,3.79-11.84,3.79
				l-25.58-51.17v-31.27L472.09,468.26z"/>
			<g>
				<path class="st3" d="M465.82,424.73c4.31,3.36,8.05,10.51,6.56,16.13c-0.71,2.71-2.67,4.52-3.32,7.45
					c-1.3,5.77-11.34,10.02-7.12,16.72c2.17,3.44,6.37,4.9,10.26,6.12c0.47,0.15,0.97,0.3,1.45,0.2c0.8-0.16,1.33-0.95,1.48-1.75
					c0.15-0.8,0-1.62-0.09-2.43c-0.88-8.45,4.84-16.91,6.95-24.9c2.11-7.97,2-17.07-3.52-23.69c-4.71,0.44-6.62-0.47-9.65,3.17
					L465.82,424.73z"/>
				<path class="st11" d="M455.73,458.53c5.61,0.44,11.09-2.63,14.65-6.99c3.56-4.36,5.43-9.86,6.59-15.36
					c3.88-18.32-18.56-24.24-30.38-13.04C436.28,432.9,439.42,457.25,455.73,458.53z"/>
				<path class="st3" d="M427.8,455.09c2.98-0.22,5.95-0.53,8.63-2.46c4.32-3.12,6.87-10.14,9.52-14.59
					c2.79-4.69,5.99-9.72,11.14-11.51c3.37-1.17,6.36-0.41,9.52,0.86c2.17,0.87,1.91,1.72,4.21,1.33c1.77-0.3,4.07-2.44,5.04-3.85
					c1.64-2.38,1.74-5.57,0.87-8.32c-1.34-4.24-3.83-7.11-7.78-8.87c-13.89-6.19-27.9-2.3-37.6,9.74
					c-4.66,5.79-6.33,13.7-11.02,19.19c-2.89,3.39-6.49,4.94-9.26,8.68c-7.17,9.7-18.95,21.01-23.18,32.38
					c-0.16,0.42-0.3,0.9-0.11,1.3c0.4,0.82,1.63,0.54,2.44,0.13c4.77-2.38,9.55-4.77,14.33-7.15c1.88-0.94,3.78-1.89,5.32-3.31
					c3.85-3.53,5.18-9.62,9.85-11.95C422.27,455.43,425.04,455.3,427.8,455.09z"/>
			</g>
			<g>
				<polygon class="st14" points="408.29,479.15 369.92,470.15 359.66,419.15 372.4,420.26 382.23,453.57 431.98,454.99 
					434.82,458.78 				"/>
			</g>
		</g>
		<path class="st15" d="M370.35,420.08l-1.25-13.37l-9.47-7.24l-0.56,3.9l3.34,3.34c0,0,0.84,3.9,3.2,5.85
			c-0.28,2.23-2.09,6.96-2.09,6.96L370.35,420.08z"/>
		<g>
			<path class="st16" d="M1011.65,464.69L894.92,347.97c-9.81-9.81-25.7-9.81-35.51,0L742.68,464.69c-9.81,9.81-9.81,25.7,0,35.51
				l116.73,116.73c9.81,9.81,25.7,9.81,35.51,0l116.73-116.73C1021.45,490.4,1021.45,474.5,1011.65,464.69z"/>
			<path class="st3" d="M931.64,492.23v-41.42c0-30.04-24.44-54.47-54.47-54.47c-30.04,0-54.47,24.44-54.47,54.47v95.54h26.66
				v-95.54c0-15.34,12.48-27.81,27.81-27.81c15.34,0,27.81,12.48,27.81,27.81v41.42h-28.6l41.93,54.12l41.93-54.12H931.64z"/>
		</g>
		<g>
			<path class="st7" d="M576.27,512.32c-19.26-19.26-44.88-29.87-72.12-29.87c-27.24,0-52.86,10.61-72.12,29.87
				c-19.26,19.26-29.87,44.88-29.87,72.12s10.61,52.86,29.87,72.12c19.26,19.26,44.88,29.87,72.12,29.87
				c27.24,0,52.86-10.61,72.12-29.87c19.26-19.26,29.87-44.88,29.87-72.12S595.53,531.59,576.27,512.32z"/>
			
				<ellipse transform="matrix(0.7071 -0.7071 0.7071 0.7071 -265.6036 527.6629)" class="st8" cx="504.14" cy="584.44" rx="94.79" ry="94.79"/>
			<rect x="431.85" y="569.57" class="st9" width="144.58" height="29.75"/>
		</g>
		<polygon class="st6" points="321.27,324.75 324.57,308.87 318.19,303.11 313.35,308.83 312.01,315.3 307.91,316.06 309.92,327.16 
					"/>
		<polygon class="st5" points="272.1,418.24 301.08,397.6 309.92,327.16 321.27,324.75 320.79,397.98 312.81,414.59 278.67,445.67 
					"/>
		<g>
			
				<ellipse transform="matrix(0.7071 -0.7071 0.7071 0.7071 -303.9367 268.2433)" class="st3" cx="171.83" cy="501.01" rx="75.91" ry="75.91"/>
			<path class="st9" d="M211.48,487.05l-36.4-28.2v18.52h-10.1c-18.09,0-32.81,14.72-32.81,32.81v32.99h19.36v-32.99
				c0-7.41,6.03-13.45,13.45-13.45h10.1v18.52L211.48,487.05z"/>
		</g>
		<g>
			<path class="st16" d="M391.3,328.49L279.16,126.74c-5.09-9.15-18.18-9.37-23.56-0.38L136.95,324.34
				c-5.38,8.98,0.98,20.43,11.45,20.6l230.79,3.76C389.66,348.87,396.39,337.64,391.3,328.49z"/>
			<g>
				<path class="st3" d="M256.53,279.43l-7.36-89.02l34.33,0.74l-10.08,88.55L256.53,279.43z M249.72,291.81l29.93,0.49l-0.48,29.56
					l-29.93-0.49L249.72,291.81z"/>
			</g>
		</g>
	</g>
</g>
</svg>
