<?xml version="1.0" encoding="utf-8"?>
<!-- Generator: Adobe Illustrator 24.3.0, SVG Export Plug-In . SVG Version: 6.00 Build 0)  -->
<svg version="1.1" xmlns="http://www.w3.org/2000/svg" xmlns:xlink="http://www.w3.org/1999/xlink" x="0px" y="0px"
	 viewBox="0 0 2500 2500" style="enable-background:new 0 0 2500 2500;" xml:space="preserve">
<style type="text/css">
	.st0{display:none;}
	.st1{fill:#FFFFFF;}
</style>
<g id="Background" class="st0">
</g>
<g id="Illustration">
	<g id="Parking_fines_1_">
		<g>
			<g>
				<path class="st1" d="M827.59,1702.6C1135.1,1600.46,1059.82,982,1041.03,678.62c-18.79-303.38,157.3-341.35,157.3-341.35h969.81
					c0,0-176.08,37.97-157.3,341.35s94.07,921.84-213.45,1023.99H827.59z"/>
				<path d="M1797.39,1704.88H827.59c-1.11,0-2.07-0.81-2.24-1.91c-0.18-1.1,0.47-2.16,1.53-2.52
					c122.43-40.67,195.02-165.1,221.92-380.4c22.73-181.94,7.3-396.5-3.96-553.17c-2.26-31.39-4.39-61.05-6.06-88.11
					c-9.75-157.49,33.86-242.5,72.17-286.08c41.69-47.43,85.09-57.23,86.92-57.63c0.16-0.03,0.32-0.05,0.48-0.05h969.81
					c1.16,0,2.13,0.88,2.26,2.03c0.12,1.15-0.64,2.22-1.78,2.46c-0.44,0.09-43.99,9.99-84.69,56.43
					c-37.63,42.95-80.47,126.83-70.82,282.55c1.67,27.04,3.81,56.68,6.06,88.07c11.28,156.86,26.72,371.68,3.94,554.06
					c-12.42,99.43-35.3,181.12-67.99,242.79c-38.09,71.85-90.92,119.42-157,141.37C1797.88,1704.84,1797.64,1704.88,1797.39,1704.88
					z M840.57,1700.33h956.46c122.22-40.79,194.7-165.19,221.57-380.29c22.73-181.94,7.3-396.5-3.96-553.17
					c-2.26-31.39-4.39-61.05-6.06-88.11c-9.75-157.49,33.86-242.5,72.16-286.08c27.91-31.75,56.59-46.64,73.05-53.13h-955.2
					c-3.41,0.82-45.26,11.64-84.47,56.38c-37.63,42.95-80.47,126.83-70.83,282.55c1.67,27.04,3.81,56.68,6.06,88.07
					c11.27,156.86,26.71,371.68,3.93,554.06c-12.42,99.43-35.3,181.12-67.99,242.79C949.6,1630.75,900.95,1676.75,840.57,1700.33z"
					/>
			</g>
			<g>
				<g>
					<path class="st1" d="M1530.24,597.17c0,3.5-3.89,11.66-10.11,11.66c-6.22,0-40.04,0-46.26,0c-6.22,0-12.44-4.28-21.19-4.28
						s-196.89,0-212.24,0c-15.35,0-38.29,0-43.83,0c-5.54,0-18.76-3.5-24.59-7.39c-5.83-3.89-6.41-4.86-6.41-7.39
						c0-2.53,0-13.02,0-15.35c0-2.33,7-4.86,7-8.94c0-4.08,0-16.72,0-22.55c0-5.83,52.48-43.15,69.19-47.23
						c16.71-4.08,89.99-4.47,109.62-2.72c19.63,1.75,61.81,22.55,88.43,42.18c28.57,0,59.28,7.18,72.69,15.25
						c13.41,8.07,17.69,21.87,17.69,27.7S1530.24,597.17,1530.24,597.17z"/>
					<g>
						<path class="st1" d="M1227.23,562.47c19.64,0,35.57,15.92,35.57,35.57c0,2.23-0.21,4.4-0.61,6.51c-11.22,0-19.08,0-21.75,0
							c-15.35,0-38.29,0-43.83,0c-1.18,0-2.71-0.17-4.43-0.45c-0.34-1.97-0.53-3.99-0.53-6.06
							C1191.66,578.4,1207.59,562.47,1227.23,562.47z"/>
						<path d="M1262.19,606.82h-65.57c-1.26,0-2.87-0.16-4.8-0.48c-0.95-0.16-1.7-0.9-1.87-1.85c-0.37-2.15-0.56-4.32-0.56-6.45
							c0-20.86,16.97-37.84,37.84-37.84c20.86,0,37.84,16.97,37.84,37.84c0,2.28-0.22,4.61-0.64,6.93
							C1264.23,606.04,1263.29,606.82,1262.19,606.82z M1194.19,602.1c0.96,0.12,1.78,0.18,2.43,0.18h63.63
							c0.18-1.42,0.28-2.84,0.28-4.24c0-18.36-14.94-33.3-33.3-33.3c-18.36,0-33.3,14.94-33.3,33.3
							C1193.93,599.38,1194.02,600.74,1194.19,602.1z"/>
					</g>
					<g>
						<path class="st1" d="M1452.69,604.55c-2.03,0-13.73,0-30.69,0c-0.39-2.11-0.61-4.29-0.61-6.51
							c0-19.64,15.92-35.57,35.57-35.57c19.64,0,35.57,15.92,35.57,35.57c0,3.76-0.59,7.38-1.67,10.79c-7.71,0-14.52,0-16.99,0
							C1467.65,608.83,1461.43,604.55,1452.69,604.55z"/>
						<path d="M1490.86,611.1h-16.99c-3.19,0-6.24-0.96-9.46-1.97c-3.6-1.13-7.33-2.3-11.73-2.3H1422c-1.1,0-2.03-0.78-2.23-1.86
							c-0.43-2.31-0.64-4.64-0.64-6.93c0-20.86,16.97-37.84,37.84-37.84c20.86,0,37.84,16.97,37.84,37.84
							c0,3.91-0.6,7.77-1.78,11.47C1492.73,610.46,1491.85,611.1,1490.86,611.1z M1423.94,602.28h28.74c5.09,0,9.34,1.34,13.09,2.51
							c3.01,0.94,5.6,1.76,8.1,1.76h15.29c0.73-2.77,1.1-5.63,1.1-8.52c0-18.36-14.94-33.3-33.3-33.3s-33.3,14.94-33.3,33.3
							C1423.67,599.44,1423.76,600.86,1423.94,602.28z"/>
					</g>
					<path d="M1512.67,571.93h-16.52c-4.23,0-10.05-5.77-11.94-7.99c-6.8-8.01-6.5-9.75-6.34-10.69c0.14-0.8,0.61-1.48,1.29-1.88
						c2.57-1.49,19.38,1.71,29.81,4.57c2.47,0.68,4.66,2.2,6.15,4.28c1.35,1.87,2.17,3.3,2.52,4.35c0.64,1.91,0.41,3.9-0.6,5.31
						C1516.09,571.2,1514.54,571.93,1512.67,571.93z M1483.48,555.59c0.85,1.27,2.21,3.08,4.19,5.42c2.92,3.44,7.1,6.39,8.47,6.39
						h16.52c0.34,0,0.61-0.07,0.69-0.16c0.1-0.14,0.18-0.6-0.02-1.22c-0.07-0.21-0.42-1.07-1.9-3.13c-0.89-1.24-2.19-2.14-3.66-2.55
						C1497.19,557.42,1487.89,555.98,1483.48,555.59z"/>
					<path d="M1529.37,603.13h-18.96c-1.65,0-3.05-0.72-3.82-1.97c-0.83-1.35-0.81-3.11,0.05-4.82l2.89-5.73
						c1.36-2.71,4.5-4.75,7.29-4.75h13.41c1.26,0,2.27,1.02,2.27,2.27v9.04c0,1.62-0.56,3.36-1.03,4.54
						C1531.14,602.56,1530.3,603.13,1529.37,603.13z M1510.53,598.94h0.02H1510.53z M1510.62,598.57l17.12,0.02
						c0.2-0.78,0.23-1.25,0.23-1.42v-6.77h-11.14c-0.97,0-2.6,0.98-3.23,2.25c0,0,0,0,0,0l-2.89,5.73
						C1510.67,598.45,1510.64,598.51,1510.62,598.57z M1511.57,591.63h0.02H1511.57z"/>
					<path d="M1409.47,541.14c-4.88,0-29.76-0.9-57.1-1.9c-10.17-0.37-18.2-0.67-19.24-0.68c-5.5-0.08-6.61-4.33-7.02-5.92
						c-0.53-2.01-4.7-22.72-4.92-24.72c-0.11-1.04-0.33-2.96,0.98-4.42c0.91-1.01,2.24-1.5,4.09-1.5c3.71,0,26.83,0.95,39.95,5.16
						c14.13,4.54,31.46,14.03,45.21,24.77c1.49,1.16,3.54,3.95,2.74,6.5c-0.24,0.76-1.11,2.55-4.02,2.7
						C1410.02,541.14,1409.79,541.14,1409.47,541.14z M1409.82,537.25h0.02H1409.82z M1325.65,506.58c0,0.17,0.01,0.43,0.06,0.84
						c0.18,1.57,4.21,21.82,4.8,24.07c0.52,2.01,1.05,2.51,2.69,2.53c1.08,0.02,8.74,0.3,19.34,0.69c19.61,0.72,51.81,1.9,56.84,1.9
						c0.06,0,0.12,0,0.18,0c-0.22-0.38-0.55-0.82-0.91-1.1c-13.16-10.27-30.36-19.7-43.81-24.02c-12.54-4.02-35.53-4.94-38.57-4.94
						C1325.99,506.54,1325.79,506.56,1325.65,506.58z"/>
					<path d="M1312.86,537.54c-1.77,0-72.06-1.62-75.97-1.75c-2.53-0.08-4.25-0.76-5.24-2.07c-0.55-0.73-1.12-1.98-0.68-3.84
						c0.65-2.76,17.25-22.77,30.98-26.36c7.85-2.05,23.81-2.59,47.44-1.6c0.94,0.04,1.54,0.07,1.72,0.07c3.54,0,5.83,2.22,5.96,5.78
						c0.09,2.37,0.88,23.21,0.88,24.38C1317.95,534.83,1316.21,537.54,1312.86,537.54z M1235.39,531c0.23,0.09,0.73,0.22,1.65,0.25
						c3.91,0.13,74.06,1.75,75.82,1.75c0.18,0,0.55,0,0.55-0.84c0-0.83-0.52-14.93-0.87-24.21c-0.04-1.1-0.35-1.41-1.42-1.41
						c-0.2,0-0.87-0.03-1.91-0.07c-28.87-1.21-41.01,0.12-46.1,1.46C1251.28,511.01,1236.84,528.22,1235.39,531z M1235.33,531.12
						C1235.34,531.12,1235.34,531.12,1235.33,531.12c0.01,0,0-0.01,0-0.01C1235.33,531.11,1235.33,531.12,1235.33,531.12
						C1235.33,531.12,1235.33,531.12,1235.33,531.12z"/>
					<path d="M1202.03,536.55h-20.11c-0.96,0-1.82-0.61-2.14-1.51c-0.32-0.91-0.04-1.92,0.71-2.52c9.21-7.48,29.2-22.32,42.89-30.41
						c0.54-0.32,1.18-0.4,1.78-0.23c3.76,1.08,7.6,5.6,8.06,9.49c0.29,2.43-0.72,4.49-2.76,5.65c-2.81,1.6-12.76,9.88-17.17,13.97
						C1209.03,534.94,1205.77,536.55,1202.03,536.55z M1188.45,532.01h13.58c2.09,0,4.28-0.74,8.17-4.35
						c4.14-3.85,14.6-12.65,18.01-14.6c0.32-0.18,0.58-0.4,0.49-1.17c-0.21-1.79-2.17-4.3-3.98-5.31
						C1213.86,513.13,1198.54,524.19,1188.45,532.01z"/>
					<path d="M1176.89,567.95h-4.3c-0.63,0-1.23-0.26-1.66-0.72c-0.43-0.46-0.65-1.08-0.61-1.7c0-0.03,0.01-0.1,0.02-0.15v-20.69
						c0-1.26,1.02-2.27,2.27-2.27h16.62c0.78,0,3.15,0,4.46,1.86c1.41,2.01,0.43,4.7,0.11,5.59c-1.34,3.68-7.77,13.47-9.97,15.18
						C1181.85,566.57,1179.84,567.95,1176.89,567.95z M1174.89,563.41h2.01c1.4,0,2.41-0.6,4.14-1.95
						c1.33-1.06,7.32-9.94,8.49-13.15c0.24-0.65,0.32-1.07,0.35-1.31c-0.15-0.02-0.35-0.04-0.64-0.04h-14.35V563.41z"/>
					<path d="M1473.86,611.1c-3.18,0-6.25-0.96-9.45-1.97c-3.6-1.13-7.33-2.3-11.73-2.3h-256.07c-6.2,0-19.85-3.77-25.85-7.77
						c-5.84-3.9-7.42-5.49-7.42-9.28v-15.35c0-2.09,1.76-3.5,3.62-5c1.5-1.2,3.37-2.7,3.37-3.94v-22.55
						c0-8.26,56.1-45.82,70.92-49.44c16.81-4.1,90.41-4.56,110.36-2.78c16.36,1.46,45.61,15.11,67.33,28
						c14.13,8.38,29.69,13.72,46.22,15.86c20.02,2.6,38.62,7.91,48.54,13.89c13.69,8.24,18.79,22.56,18.79,29.65v19.05
						c0,3.25-2.31,8.61-6.05,11.59c-2.5,1.99-5.34,2.73-8.24,2.15l-41.86-0.01C1475.51,611.04,1474.69,611.1,1473.86,611.1z
						 M1476.15,606.35l42.3,0.01c0.17,0,0.34,0.02,0.51,0.06c1.63,0.37,3.16-0.02,4.66-1.22c2.65-2.11,4.34-6.17,4.34-8.04v-19.05
						c0-5.14-4.05-18.21-16.59-25.76c-9.42-5.67-27.34-10.75-46.78-13.27c-17.15-2.22-33.28-7.76-47.95-16.46
						c-25.58-15.17-51.87-26.17-65.42-27.38c-19.74-1.76-92.4-1.36-108.88,2.67c-15.9,3.88-65.13,39.21-67.46,45.19v22.38
						c0,3.41-2.93,5.77-5.07,7.48c-0.65,0.52-1.62,1.3-1.92,1.71v15.1c0,1.42,0,1.89,5.4,5.5c5.21,3.48,17.97,7.01,23.33,7.01
						h256.07c5.09,0,9.34,1.34,13.09,2.51c3.7,1.16,6.89,2.17,9.96,1.59C1475.87,606.36,1476.01,606.35,1476.15,606.35z"/>
					<g>
						
							<ellipse transform="matrix(0.9732 -0.2298 0.2298 0.9732 -98.4262 350.7401)" cx="1456.96" cy="598.04" rx="30.61" ry="30.61"/>
						
							<ellipse transform="matrix(0.3827 -0.9239 0.9239 0.3827 346.8899 1715.2372)" class="st1" cx="1456.96" cy="598.04" rx="21.66" ry="21.66"/>
					</g>
					<g>
						
							<ellipse transform="matrix(0.9871 -0.1602 0.1602 0.9871 -79.9487 204.3027)" cx="1227.23" cy="598.04" rx="30.61" ry="30.61"/>
						
							<ellipse transform="matrix(0.3827 -0.9239 0.9239 0.3827 205.0718 1502.9913)" class="st1" cx="1227.23" cy="598.04" rx="21.66" ry="21.66"/>
					</g>
				</g>
				<path d="M1530.54,674.45h-365.23c-15.26,0-27.67-12.42-27.67-27.67v-172.9c0-15.26,12.42-27.67,27.67-27.67h365.23
					c15.26,0,27.67,12.41,27.67,27.67v172.9C1558.22,662.04,1545.8,674.45,1530.54,674.45z M1165.31,450.75
					c-12.75,0-23.13,10.38-23.13,23.13v172.9c0,12.75,10.38,23.13,23.13,23.13h365.23c12.75,0,23.13-10.38,23.13-23.13v-172.9
					c0-12.75-10.38-23.13-23.13-23.13H1165.31z"/>
			</g>
			<g>
				<path d="M1920.82,924.93h-773.34c-13.6,0-24.66-8.63-24.66-19.25c0-10.61,11.06-19.25,24.66-19.25h773.34
					c13.6,0,24.66,8.63,24.66,19.25C1945.48,916.3,1934.42,924.93,1920.82,924.93z M1147.48,890.98c-11.09,0-20.12,6.6-20.12,14.7
					c0,8.11,9.03,14.7,20.12,14.7h773.34c11.09,0,20.12-6.6,20.12-14.7c0-8.11-9.02-14.7-20.12-14.7H1147.48z"/>
				<path d="M1920.82,1001.25h-773.34c-13.6,0-24.66-8.63-24.66-19.25c0-10.61,11.06-19.25,24.66-19.25h773.34
					c13.6,0,24.66,8.63,24.66,19.25C1945.48,992.62,1934.42,1001.25,1920.82,1001.25z M1147.48,967.3c-11.09,0-20.12,6.6-20.12,14.7
					c0,8.11,9.03,14.7,20.12,14.7h773.34c11.09,0,20.12-6.6,20.12-14.7c0-8.11-9.02-14.7-20.12-14.7H1147.48z"/>
			</g>
			<g>
				<path d="M1496.28,1246.97h-342.84c-6.84,0-12.2-8.45-12.2-19.25s5.36-19.25,12.2-19.25h342.84c6.84,0,12.2,8.45,12.2,19.25
					S1503.12,1246.97,1496.28,1246.97z M1153.44,1213.02c-3.62,0-7.66,6.04-7.66,14.7c0,8.67,4.03,14.7,7.66,14.7h342.84
					c3.62,0,7.66-6.04,7.66-14.7c0-8.67-4.03-14.7-7.66-14.7H1153.44z"/>
				<path d="M1487.07,1323.29h-342.84c-6.84,0-12.2-8.45-12.2-19.25c0-10.79,5.36-19.25,12.2-19.25h342.84
					c6.84,0,12.2,8.45,12.2,19.25C1499.27,1314.83,1493.91,1323.29,1487.07,1323.29z M1144.23,1289.34c-3.62,0-7.66,6.04-7.66,14.7
					s4.03,14.7,7.66,14.7h342.84c3.62,0,7.65-6.04,7.65-14.7s-4.03-14.7-7.65-14.7H1144.23z"/>
				<path d="M1477.87,1396.48h-342.84c-6.84,0-12.2-8.45-12.2-19.25c0-10.79,5.36-19.25,12.2-19.25h342.84
					c6.84,0,12.2,8.45,12.2,19.25C1490.07,1388.02,1484.71,1396.48,1477.87,1396.48z M1135.03,1362.53c-3.62,0-7.66,6.04-7.66,14.7
					c0,8.67,4.03,14.7,7.66,14.7h342.84c3.62,0,7.66-6.04,7.66-14.7c0-8.67-4.03-14.7-7.66-14.7H1135.03z"/>
				<path class="st1" d="M1109.71,1470.52h342.84c5.48,0,9.93-7.6,9.93-16.98s-4.44-16.98-9.93-16.98h-342.84
					c-5.48,0-9.93,7.6-9.93,16.98C1099.78,1462.92,1104.23,1470.52,1109.71,1470.52z"/>
			</g>
			<g>
				<path class="st1" d="M1595.07,1245.46h342.84c5.48,0,9.93-7.6,9.93-16.98c0-9.38-4.44-16.98-9.93-16.98h-342.84
					c-5.48,0-9.93,7.6-9.93,16.98C1585.15,1237.86,1589.59,1245.46,1595.07,1245.46z"/>
				<path d="M1928.71,1324.05h-342.84c-6.84,0-12.2-8.45-12.2-19.25s5.36-19.25,12.2-19.25h342.84c6.84,0,12.2,8.45,12.2,19.25
					S1935.55,1324.05,1928.71,1324.05z M1585.86,1290.1c-3.62,0-7.65,6.04-7.65,14.7c0,8.67,4.03,14.7,7.65,14.7h342.84
					c3.62,0,7.65-6.04,7.65-14.7c0-8.67-4.03-14.7-7.65-14.7H1585.86z"/>
				<path class="st1" d="M1572.06,1394.97h342.84c5.48,0,9.93-7.6,9.93-16.98c0-9.38-4.44-16.98-9.93-16.98h-342.84
					c-5.48,0-9.93,7.6-9.93,16.98C1562.13,1387.37,1566.57,1394.97,1572.06,1394.97z"/>
				<path class="st1" d="M1549.04,1471.29h342.84c5.48,0,9.93-7.6,9.93-16.98c0-9.38-4.44-16.98-9.93-16.98h-342.84
					c-5.48,0-9.93,7.6-9.93,16.98C1539.11,1463.69,1543.56,1471.29,1549.04,1471.29z"/>
			</g>
			<g>
				<path d="M1890.17,501.92h-246.26c-11.96,0-21.69-8.63-21.69-19.25c0-10.61,9.73-19.25,21.69-19.25h246.26
					c11.96,0,21.69,8.63,21.69,19.25C1911.87,493.29,1902.14,501.92,1890.17,501.92z M1643.91,467.97c-9.46,0-17.15,6.6-17.15,14.7
					c0,8.11,7.69,14.7,17.15,14.7h246.26c9.46,0,17.15-6.6,17.15-14.7c0-8.11-7.69-14.7-17.15-14.7H1643.91z"/>
				<path d="M1890.17,573.86h-246.26c-11.96,0-21.69-8.63-21.69-19.25c0-10.61,9.73-19.25,21.69-19.25h246.26
					c11.96,0,21.69,8.63,21.69,19.25C1911.87,565.23,1902.14,573.86,1890.17,573.86z M1643.91,539.91c-9.46,0-17.15,6.6-17.15,14.7
					s7.69,14.7,17.15,14.7h246.26c9.46,0,17.15-6.6,17.15-14.7s-7.69-14.7-17.15-14.7H1643.91z"/>
				<path d="M1778.92,645.8h-135.01c-11.96,0-21.69-8.63-21.69-19.25c0-10.61,9.73-19.25,21.69-19.25h135.01
					c11.96,0,21.69,8.63,21.69,19.25C1800.62,637.17,1790.89,645.8,1778.92,645.8z M1643.91,611.85c-9.46,0-17.15,6.6-17.15,14.7
					c0,8.11,7.69,14.7,17.15,14.7h135.01c9.46,0,17.15-6.6,17.15-14.7c0-8.11-7.7-14.7-17.15-14.7H1643.91z"/>
			</g>
			<path d="M1052.23,756.83c-1.25,0-2.27-1.01-2.27-2.26c0-1.25,1.01-2.27,2.26-2.28l27.26-0.09c0,0,0,0,0.01,0
				c1.25,0,2.27,1.01,2.27,2.26c0,1.25-1.01,2.27-2.26,2.28L1052.23,756.83C1052.24,756.83,1052.24,756.83,1052.23,756.83z
				 M1106.75,756.65c-1.25,0-2.27-1.01-2.27-2.26s1.01-2.27,2.26-2.28l27.26-0.09c0,0,0,0,0.01,0c1.25,0,2.27,1.01,2.27,2.26
				c0,1.25-1.01,2.27-2.26,2.28L1106.75,756.65C1106.75,756.65,1106.75,756.65,1106.75,756.65z M1161.26,756.47
				c-1.25,0-2.27-1.01-2.27-2.26s1.01-2.27,2.26-2.28l27.26-0.09c0,0,0,0,0.01,0c1.25,0,2.27,1.01,2.27,2.26
				c0,1.25-1.01,2.27-2.26,2.28L1161.26,756.47C1161.27,756.47,1161.27,756.47,1161.26,756.47z M1215.78,756.3
				c-1.25,0-2.27-1.01-2.27-2.26s1.01-2.27,2.26-2.28l27.26-0.09c0,0,0,0,0.01,0c1.25,0,2.27,1.01,2.27,2.26
				c0,1.25-1.01,2.27-2.26,2.28L1215.78,756.3C1215.78,756.3,1215.78,756.3,1215.78,756.3z M1270.29,756.12
				c-1.25,0-2.27-1.01-2.27-2.26c0-1.25,1.01-2.27,2.26-2.28l27.26-0.09c0,0,0,0,0.01,0c1.25,0,2.27,1.01,2.27,2.26
				c0,1.25-1.01,2.27-2.26,2.28L1270.29,756.12C1270.3,756.12,1270.3,756.12,1270.29,756.12z M1324.81,755.95
				c-1.25,0-2.27-1.01-2.27-2.26c0-1.25,1.01-2.27,2.26-2.28l27.26-0.09c0,0,0,0,0.01,0c1.25,0,2.27,1.01,2.27,2.26
				c0,1.25-1.01,2.27-2.26,2.28L1324.81,755.95C1324.81,755.95,1324.81,755.95,1324.81,755.95z M1379.32,755.77
				c-1.25,0-2.27-1.01-2.27-2.26c0-1.25,1.01-2.27,2.26-2.28l27.26-0.09c0,0,0,0,0.01,0c1.25,0,2.27,1.01,2.27,2.26
				s-1.01,2.27-2.26,2.28L1379.32,755.77C1379.32,755.77,1379.32,755.77,1379.32,755.77z M1433.83,755.59
				c-1.25,0-2.27-1.01-2.27-2.26c0-1.25,1.01-2.27,2.26-2.28l27.26-0.09c0,0,0,0,0.01,0c1.25,0,2.27,1.01,2.27,2.26
				c0,1.25-1.01,2.27-2.26,2.28L1433.83,755.59C1433.84,755.59,1433.84,755.59,1433.83,755.59z M1488.35,755.42
				c-1.25,0-2.27-1.01-2.27-2.26c0-1.25,1.01-2.27,2.26-2.28l27.26-0.09c0,0,0,0,0.01,0c1.25,0,2.27,1.01,2.27,2.26
				c0,1.25-1.01,2.27-2.26,2.28L1488.35,755.42C1488.35,755.42,1488.35,755.42,1488.35,755.42z M1542.86,755.24
				c-1.25,0-2.27-1.01-2.27-2.26c0-1.25,1.01-2.27,2.26-2.28l27.26-0.09c0,0,0,0,0.01,0c1.25,0,2.27,1.01,2.27,2.26
				s-1.01,2.27-2.26,2.28L1542.86,755.24C1542.87,755.24,1542.87,755.24,1542.86,755.24z M1597.38,755.06
				c-1.25,0-2.27-1.01-2.27-2.26c0-1.25,1.01-2.27,2.26-2.28l27.26-0.09c0,0,0,0,0.01,0c1.25,0,2.27,1.01,2.27,2.26
				c0,1.25-1.01,2.27-2.26,2.28L1597.38,755.06C1597.38,755.06,1597.38,755.06,1597.38,755.06z M1651.89,754.89
				c-1.25,0-2.27-1.01-2.27-2.26s1.01-2.27,2.26-2.28l27.26-0.09c0,0,0,0,0.01,0c1.25,0,2.27,1.01,2.27,2.26s-1.01,2.27-2.26,2.28
				L1651.89,754.89C1651.9,754.89,1651.9,754.89,1651.89,754.89z M1706.41,754.71c-1.25,0-2.27-1.01-2.27-2.26
				c0-1.25,1.01-2.27,2.26-2.28l27.26-0.09c1.2-0.04,2.27,1.01,2.28,2.26c0,1.25-1.01,2.27-2.26,2.28L1706.41,754.71
				C1706.41,754.71,1706.41,754.71,1706.41,754.71z M1760.92,754.54c-1.25,0-2.27-1.01-2.27-2.26c0-1.25,1.01-2.27,2.26-2.28
				l27.26-0.09c0,0,0,0,0.01,0c1.25,0,2.27,1.01,2.27,2.26c0,1.25-1.01,2.27-2.26,2.28L1760.92,754.54
				C1760.93,754.54,1760.92,754.54,1760.92,754.54z M1815.44,754.36c-1.25,0-2.27-1.01-2.27-2.26c0-1.25,1.01-2.27,2.26-2.28
				l27.26-0.09c0,0,0,0,0.01,0c1.25,0,2.27,1.01,2.27,2.26c0,1.25-1.01,2.27-2.26,2.28L1815.44,754.36
				C1815.44,754.36,1815.44,754.36,1815.44,754.36z M1869.95,754.18c-1.25,0-2.27-1.01-2.27-2.26c0-1.25,1.01-2.27,2.26-2.28
				l27.26-0.09c0,0,0,0,0.01,0c1.25,0,2.27,1.01,2.27,2.26c0,1.25-1.01,2.27-2.26,2.28L1869.95,754.18
				C1869.95,754.18,1869.95,754.18,1869.95,754.18z M1924.46,754.01c-1.25,0-2.27-1.01-2.27-2.26c0-1.25,1.01-2.27,2.26-2.28
				l27.26-0.09c0,0,0,0,0.01,0c1.25,0,2.27,1.01,2.27,2.26c0,1.25-1.01,2.27-2.26,2.28L1924.46,754.01
				C1924.47,754.01,1924.47,754.01,1924.46,754.01z M1978.98,753.83c-1.25,0-2.27-1.01-2.27-2.26c0-1.25,1.01-2.27,2.26-2.28
				l22.45-0.07c0,0,0,0,0.01,0c1.25,0,2.27,1.01,2.27,2.26s-1.01,2.27-2.26,2.28L1978.98,753.83
				C1978.98,753.83,1978.98,753.83,1978.98,753.83z"/>
			<path d="M1069.1,1138.65c-1.25,0-2.27-1.01-2.27-2.26c0-1.25,1.01-2.27,2.26-2.28l27.26-0.09c0,0,0,0,0.01,0
				c1.25,0,2.27,1.01,2.27,2.26c0,1.25-1.01,2.27-2.26,2.28L1069.1,1138.65C1069.11,1138.65,1069.1,1138.65,1069.1,1138.65z
				 M1123.62,1138.47c-1.25,0-2.27-1.01-2.27-2.26c0-1.25,1.01-2.27,2.26-2.28l27.26-0.09c0,0,0,0,0.01,0
				c1.25,0,2.27,1.01,2.27,2.26s-1.01,2.27-2.26,2.28L1123.62,1138.47C1123.62,1138.47,1123.62,1138.47,1123.62,1138.47z
				 M1178.13,1138.3c-1.25,0-2.27-1.01-2.27-2.26c0-1.25,1.01-2.27,2.26-2.28l27.26-0.09c0,0,0,0,0.01,0c1.25,0,2.27,1.01,2.27,2.26
				s-1.01,2.27-2.26,2.28L1178.13,1138.3C1178.14,1138.3,1178.13,1138.3,1178.13,1138.3z M1232.65,1138.12
				c-1.25,0-2.27-1.01-2.27-2.26c0-1.25,1.01-2.27,2.26-2.28l27.26-0.09c1.22,0.06,2.27,1.01,2.28,2.26c0,1.25-1.01,2.27-2.26,2.28
				L1232.65,1138.12C1232.65,1138.12,1232.65,1138.12,1232.65,1138.12z M1287.16,1137.94c-1.25,0-2.27-1.01-2.27-2.26
				c0-1.25,1.01-2.27,2.26-2.28l27.26-0.09c0,0,0,0,0.01,0c1.25,0,2.27,1.01,2.27,2.26c0,1.25-1.01,2.27-2.26,2.28L1287.16,1137.94
				C1287.16,1137.94,1287.16,1137.94,1287.16,1137.94z M1341.67,1137.77c-1.25,0-2.27-1.01-2.27-2.26c0-1.25,1.01-2.27,2.26-2.28
				l27.26-0.09c0,0,0,0,0.01,0c1.25,0,2.27,1.01,2.27,2.26c0,1.25-1.01,2.27-2.26,2.28L1341.67,1137.77
				C1341.68,1137.77,1341.67,1137.77,1341.67,1137.77z M1396.19,1137.59c-1.25,0-2.27-1.01-2.27-2.26c0-1.25,1.01-2.27,2.26-2.28
				l27.26-0.09c0,0,0,0,0.01,0c1.25,0,2.27,1.01,2.27,2.26c0,1.25-1.01,2.27-2.26,2.28L1396.19,1137.59
				C1396.19,1137.59,1396.19,1137.59,1396.19,1137.59z M1450.7,1137.41c-1.25,0-2.27-1.01-2.27-2.26c0-1.25,1.01-2.27,2.26-2.28
				l27.26-0.09c0,0,0,0,0.01,0c1.25,0,2.27,1.01,2.27,2.26c0,1.25-1.01,2.27-2.26,2.28L1450.7,1137.41
				C1450.71,1137.41,1450.7,1137.41,1450.7,1137.41z M1505.22,1137.23c-1.25,0-2.27-1.01-2.27-2.26c0-1.25,1.01-2.27,2.26-2.28
				l27.26-0.09c0,0,0,0,0.01,0c1.25,0,2.27,1.01,2.27,2.26c0,1.25-1.01,2.27-2.26,2.28L1505.22,1137.23
				C1505.22,1137.23,1505.22,1137.23,1505.22,1137.23z M1559.73,1137.06c-1.25,0-2.27-1.01-2.27-2.26c0-1.25,1.01-2.27,2.26-2.28
				l27.26-0.09c0,0,0,0,0.01,0c1.25,0,2.27,1.01,2.27,2.26c0,1.25-1.01,2.27-2.26,2.28L1559.73,1137.06
				C1559.74,1137.06,1559.73,1137.06,1559.73,1137.06z M1614.25,1136.88c-1.25,0-2.27-1.01-2.27-2.26c0-1.25,1.01-2.27,2.26-2.28
				l27.26-0.09c0,0,0,0,0.01,0c1.25,0,2.27,1.01,2.27,2.26c0,1.25-1.01,2.27-2.26,2.28L1614.25,1136.88
				C1614.25,1136.88,1614.25,1136.88,1614.25,1136.88z M1668.76,1136.7c-1.25,0-2.27-1.01-2.27-2.26c0-1.25,1.01-2.27,2.26-2.28
				l27.26-0.09c0,0,0,0,0.01,0c1.25,0,2.27,1.01,2.27,2.26c0,1.25-1.01,2.27-2.26,2.28L1668.76,1136.7
				C1668.76,1136.7,1668.76,1136.7,1668.76,1136.7z M1723.27,1136.52c-1.25,0-2.27-1.01-2.27-2.26s1.01-2.27,2.26-2.28l27.26-0.09
				c0,0,0,0,0.01,0c1.25,0,2.27,1.01,2.27,2.26c0,1.25-1.01,2.27-2.26,2.28L1723.27,1136.52
				C1723.28,1136.52,1723.28,1136.52,1723.27,1136.52z M1777.79,1136.35c-1.25,0-2.27-1.01-2.27-2.26s1.01-2.27,2.26-2.28
				l27.26-0.09c0,0,0,0,0.01,0c1.25,0,2.27,1.01,2.27,2.26s-1.01,2.27-2.26,2.28L1777.79,1136.35
				C1777.79,1136.35,1777.79,1136.35,1777.79,1136.35z M1832.3,1136.17c-1.25,0-2.27-1.01-2.27-2.26s1.01-2.27,2.26-2.28l27.26-0.09
				c0,0,0,0,0.01,0c1.25,0,2.27,1.01,2.27,2.26c0,1.25-1.01,2.27-2.26,2.28L1832.3,1136.17
				C1832.31,1136.17,1832.3,1136.17,1832.3,1136.17z M1886.82,1135.99c-1.25,0-2.27-1.01-2.27-2.26s1.01-2.27,2.26-2.28l27.26-0.09
				c0,0,0,0,0.01,0c1.25,0,2.27,1.01,2.27,2.26c0,1.25-1.01,2.27-2.26,2.28L1886.82,1135.99
				C1886.82,1135.99,1886.82,1135.99,1886.82,1135.99z M1941.33,1135.82c-1.25,0-2.27-1.01-2.27-2.26s1.01-2.27,2.26-2.28
				l27.26-0.09c0,0,0,0,0.01,0c1.25,0,2.27,1.01,2.27,2.26c0,1.25-1.01,2.27-2.26,2.28L1941.33,1135.82
				C1941.34,1135.82,1941.33,1135.82,1941.33,1135.82z M1995.85,1135.64c-1.25,0-2.27-1.01-2.27-2.26c0-1.25,1.01-2.27,2.26-2.28
				l17.08-0.06c0,0,0,0,0.01,0c1.25,0,2.27,1.01,2.27,2.26c0,1.25-1.01,2.27-2.26,2.28L1995.85,1135.64
				C1995.85,1135.64,1995.85,1135.64,1995.85,1135.64z"/>
		</g>
		<g>
			<g>
				<g>
					<path d="M797.25,391.58c0,0-0.01,0-0.01,0c-1.25-0.01-2.26-1.03-2.26-2.28l0.05-9.36c0.01-1.25,1.03-2.21,2.28-2.26
						c1.25,0.01,2.26,1.03,2.26,2.28l-0.05,9.36C799.52,390.57,798.5,391.58,797.25,391.58z"/>
					<path d="M796.99,436.41c0,0-0.01,0-0.01,0c-1.26-0.01-2.26-1.03-2.26-2.28l0.06-9.36c0.01-1.25,1.02-2.26,2.27-2.26
						c0,0,0.01,0,0.01,0c1.26,0.01,2.26,1.03,2.26,2.28l-0.06,9.36C799.26,435.4,798.24,436.41,796.99,436.41z"/>
					<path d="M770.05,409.47c-1.25,0-2.26-1.01-2.27-2.26c-0.01-1.25,1-2.28,2.26-2.28l9.36-0.06c0,0,0.01,0,0.01,0
						c1.25,0,2.26,1.01,2.27,2.26c0.01,1.25-1,2.28-2.26,2.28l-9.36,0.06C770.06,409.47,770.05,409.47,770.05,409.47z"/>
					<path d="M814.89,409.21c-1.25,0-2.26-1.01-2.27-2.26c-0.01-1.25,1-2.28,2.26-2.28l9.36-0.06c0,0,0.01,0,0.01,0
						c1.25,0,2.26,1.01,2.27,2.26c0.01,1.25-1,2.28-2.26,2.28l-9.36,0.06C814.89,409.21,814.89,409.21,814.89,409.21z"/>
				</g>
			</g>
			<path d="M716.08,462.87c-9.24,0-16.75-7.51-16.75-16.75c0-9.24,7.51-16.75,16.75-16.75c9.23,0,16.75,7.51,16.75,16.75
				C732.83,455.36,725.32,462.87,716.08,462.87z M716.08,433.92c-6.73,0-12.21,5.48-12.21,12.21c0,6.73,5.48,12.21,12.21,12.21
				c6.73,0,12.2-5.48,12.2-12.21C728.29,439.39,722.81,433.92,716.08,433.92z"/>
		</g>
		<g>
			<g>
				<path class="st1" d="M495.91,1802.03c9.46,11.49,19.25,22.79,29.39,33.86v-706.23h-29.39V1802.03z"/>
				<path d="M525.3,1838.16c-0.63,0-1.24-0.26-1.67-0.74c-9.94-10.86-19.86-22.28-29.47-33.95c-0.33-0.41-0.52-0.92-0.52-1.44
					v-672.38c0-1.26,1.02-2.27,2.27-2.27h29.39c1.26,0,2.27,1.02,2.27,2.27v706.23c0,0.94-0.57,1.78-1.45,2.12
					C525.86,1838.11,525.58,1838.16,525.3,1838.16z M498.18,1801.22c8.13,9.85,16.47,19.51,24.85,28.8v-698.09h-24.85V1801.22z"/>
			</g>
			<g>
				<g>
					<circle class="st1" cx="510.61" cy="1022.13" r="173.35"/>
					<path d="M510.61,1197.67c-44.97,0-89.94-17.12-124.18-51.36c-68.47-68.47-68.47-179.89,0-248.36
						c68.48-68.48,179.89-68.48,248.36,0c33.17,33.17,51.44,77.27,51.44,124.18c0,46.91-18.27,91.01-51.44,124.18
						C600.55,1180.55,555.58,1197.67,510.61,1197.67z M510.61,851.14c-43.81,0-87.62,16.68-120.97,50.03
						c-66.7,66.7-66.7,175.24,0,241.94c66.7,66.7,175.24,66.7,241.94,0c32.31-32.31,50.11-75.27,50.11-120.97
						c0-45.7-17.79-88.66-50.11-120.97C598.23,867.81,554.42,851.14,510.61,851.14z"/>
				</g>
				<path d="M510.61,1197.67c-44.97,0-89.94-17.12-124.18-51.36c-68.47-68.47-68.47-179.89,0-248.36
					c68.48-68.48,179.89-68.48,248.36,0c33.17,33.17,51.44,77.27,51.44,124.18c0,46.91-18.27,91.01-51.44,124.18
					C600.55,1180.55,555.58,1197.67,510.61,1197.67z M510.61,851.14c-43.81,0-87.62,16.68-120.97,50.03
					c-66.7,66.7-66.7,175.24,0,241.94c66.7,66.7,175.24,66.7,241.94,0c32.31-32.31,50.11-75.27,50.11-120.97
					c0-45.7-17.79-88.66-50.11-120.97C598.23,867.81,554.42,851.14,510.61,851.14z"/>
				<g>
					<circle class="st1" cx="510.61" cy="1022.13" r="143.14"/>
					<path d="M510.61,1167.48c-37.24,0-74.47-14.17-102.82-42.52c-56.7-56.7-56.7-148.95,0-205.65c56.7-56.7,148.95-56.7,205.65,0
						c27.47,27.46,42.59,63.98,42.59,102.82c0,38.84-15.13,75.36-42.59,102.82C585.08,1153.3,547.84,1167.48,510.61,1167.48z
						 M510.61,881.33c-36.07,0-72.15,13.73-99.61,41.19c-54.93,54.93-54.93,144.29,0,199.22c54.93,54.93,144.3,54.92,199.22,0
						c26.61-26.61,41.26-61.98,41.26-99.61c0-37.63-14.65-73-41.26-99.61C582.75,895.06,546.68,881.33,510.61,881.33z
						 M611.82,1123.35h0.02H611.82z"/>
				</g>
				<path d="M505.46,1058.75c0-2.72,2.2-4.92,4.92-4.92c4.66,0,11.06-0.01,11.92-0.01c35.79,0,64.91-28.76,64.91-64.11
					s-29.12-64.11-64.91-64.11h-58.65c-2.72,0-4.92,2.2-4.92,4.92v181.27c0,2.72,2.2,4.92,4.92,4.92h36.89
					c2.72,0,4.92-2.2,4.92-4.92V1058.75z M522.29,972.32c9.85,0,18.17,7.96,18.17,17.38c0,9.42-8.32,17.38-18.17,17.38
					c-2.99,0-7.19,0.01-11.75,0.03c-2.72,0.01-4.94-2.18-4.95-4.9c-0.02-7.04-0.04-17.84-0.06-24.96c-0.01-2.72,2.2-4.93,4.92-4.93
					H522.29z"/>
				
					<rect x="500.03" y="877.12" transform="matrix(0.5 0.866 -0.866 0.5 1152.6287 69.0527)" class="st1" width="32.97" height="311.22"/>
				<path d="M383.78,1089.69c-0.79,0-1.56-0.41-1.98-1.15c-0.62-1.09-0.24-2.48,0.85-3.1l248.16-141.4c1.09-0.62,2.48-0.24,3.1,0.85
					c0.62,1.09,0.24,2.48-0.85,3.1l-248.16,141.4C384.55,1089.59,384.16,1089.69,383.78,1089.69z"/>
				<path d="M404.79,1120.92c-0.78,0-1.53-0.4-1.95-1.11c-0.64-1.08-0.29-2.47,0.79-3.11l241.91-143.67
					c1.08-0.65,2.47-0.29,3.11,0.79c0.64,1.08,0.29,2.47-0.79,3.11L405.95,1120.6C405.58,1120.82,405.18,1120.92,404.79,1120.92z"/>
			</g>
		</g>
		<g>
			<path class="st1" d="M2195.5,1760.09c0,18.91-3.74,37.63-11.02,55.09l-7.97,19.13c-11.18,26.83-33.37,47.54-60.91,56.84
				l-118.35,40.8H464.66l-98.48-30.2c-26.52-8.13-45.46-31.54-47.88-59.18l-4.14-47.4c-0.58-7.38,0.82-14.79,4.05-21.45
				c3.99-8.22,5.41-17.45,4.07-26.49l11.37-76.49c-1.76-11.87,4.44-23.5,15.27-28.66l2.35-0.56
				c123.59-58.94,255.93-90.29,391.86-106.83l57.13-6.95l65.07-34.99c361.03-222.01,881.04-245.03,1266.45-97.82l56.21,121.69
				l-11.61,101.67l15.06,77.72c2.71,14,4.08,28.22,4.08,42.47V1760.09z"/>
			<path d="M895.58,1563.22c-0.96,0-1.81-0.6-2.14-1.51c-0.33-0.93-0.03-1.97,0.76-2.57c144.31-110.24,314.69-180.5,506.41-208.84
				c172.17-25.45,356-15,531.62,30.22c14.71,3.79,24.99,17.55,24.99,33.46v86.1c0,9.17-6.57,16.82-15.27,17.79
				c-73.27,8.19-147.38,13.62-220.27,16.13l-826.02,29.2C895.64,1563.22,895.61,1563.22,895.58,1563.22z M1591.17,1341.42
				c-256.04,0-499.33,74.7-688.49,217.01l818.86-28.95c72.77-2.51,146.76-7.93,219.92-16.11c6.41-0.71,11.24-6.42,11.24-13.28v-86.1
				c0-13.84-8.87-25.79-21.58-29.06C1817.68,1355.72,1703.19,1341.42,1591.17,1341.42z"/>
			<path d="M2117.1,1623.64c-74.93,0-81.05-19.3-81.53-21.9c-0.03-0.16-0.04-0.31-0.04-0.47c0.44-16.98,4.64-41.82,22.12-63.72
				c25.75-32.26,70.82-46.28,117.61-36.61c0.96,0.2,1.68,0.99,1.8,1.96c0.46,3.94,2.37,7.34,5.25,9.35
				c0.68,0.48,1.05,1.29,0.96,2.12l-11.95,104.81c-0.12,1.07-0.98,1.91-2.06,2.01C2148.93,1622.9,2131.7,1623.64,2117.1,1623.64z
				 M2040.08,1601.03c0.78,1.97,12.53,25.29,126.92,15.76l11.59-101.68c-2.93-2.46-4.98-6.01-5.8-10.05
				c-44.56-8.72-87.21,4.73-111.61,35.3C2044.62,1561.14,2040.55,1584.76,2040.08,1601.03z"/>
			<path d="M2116.57,1623.5c-40.61,0-55.95-5.48-65.32-8.83l-1.02-0.37c-0.75-0.27-1.31-0.91-1.47-1.7
				c-0.16-0.79,0.11-1.59,0.71-2.13c0.43-0.39,43.57-39.03,88.95-58.5c12.53-5.38,22.2-5.54,28.74-0.47
				c11.64,9.04,8.36,31.11,8.21,32.04l-4.06,35.61c-0.12,1.08-0.99,1.92-2.08,2.01C2148.04,1622.83,2130.76,1623.5,2116.57,1623.5z
				 M2055.41,1611.32c12.91,4.47,37.62,11.14,111.59,5.46l3.86-33.84c0.04-0.29,3.03-20.46-6.5-27.85
				c-5.14-3.97-13.26-3.62-24.16,1.06C2102.21,1572.45,2065.75,1602.45,2055.41,1611.32z"/>
			<g>
				<path class="st1" d="M467.44,1880.93l1454.75-28.03l256.47-41.29c-0.46,1.2-0.94,2.39-1.43,3.57l-7.97,19.13
					c-11.18,26.83-33.37,47.52-60.91,56.82l-70.9,23.93c-27.42,9.25,18.28,16.85-10.65,16.85H480.6c-15.37,0-30.66-2.29-45.36-6.79
					l-76.31-23.39c-19.32-5.92-34.62-19.91-42.43-37.8L467.44,1880.93z"/>
				<path d="M2026.8,1934.19H480.6c-15.61,0-31.1-2.32-46.03-6.9l-76.31-23.39c-19.65-6.02-35.63-20.26-43.85-39.06
					c-0.33-0.74-0.23-1.6,0.25-2.26c0.48-0.65,1.26-0.99,2.08-0.91l150.81,16.98l1454.44-28.02l256.31-41.27
					c0.81-0.14,1.61,0.18,2.13,0.81c0.51,0.63,0.65,1.49,0.35,2.25c-0.47,1.21-0.95,2.42-1.45,3.62l-7.97,19.13
					c-11.42,27.42-34.12,48.59-62.28,58.1l-70.9,23.93c-7.27,2.46-7.6,4.28-7.61,4.36c-0.15,1.1,3.13,3.33,4.54,4.28
					c2.46,1.67,4.59,3.11,3.88,5.42C2038.27,1933.59,2035.76,1934.19,2026.8,1934.19z M320.29,1866.64
					c8.07,15.79,22.2,27.67,39.3,32.92l76.31,23.39c14.5,4.44,29.54,6.7,44.69,6.7h1546.2c2.54,0,4.32-0.06,5.58-0.15
					c-2.94-1.99-6.83-4.71-6.32-8.53c0.44-3.23,3.73-5.71,10.66-8.05l70.9-23.93c26.92-9.09,48.62-29.34,59.54-55.55l7.89-18.95
					l-252.5,40.66c-0.11,0.02-0.21,0.03-0.32,0.03L467.49,1883.2c-0.12,0-0.2,0-0.3-0.01L320.29,1866.64z"/>
			</g>
			<g>
				<path class="st1" d="M497.92,1637.87c1.73-1.27,1.04-4-1.09-4.27c-11.39-1.46-22.82-4.13-51.88-1.6
					c-29.78,2.59-74.58,17.46-93.42,27.34c-5.04,2.64-5.12,8.26-5.08,13.96c0.01,2.44,0.61,7.75,1.26,10.25
					c1.68,6.45,8.52,10.2,15.18,10.2h40.17c21.92,0,57.61-6.97,75.31-19.91L497.92,1637.87z"/>
				<g>
					<path class="st1" d="M351.93,1659.13l-0.4,0.21c-5.04,2.64-5.91,6.75-5.09,13.94l1.27,10.27c0.4,6.75,8.52,10.2,15.18,10.2
						h54.52c21.92,0,43.27-6.97,60.96-19.91l19.59-35.86c1.79-1.31,1.06-4.12-1.14-4.4c-11.49-1.47-22.98-4.09-51.88-1.58
						C415.38,1634.57,370.99,1649.16,351.93,1659.13z"/>
					<path d="M417.42,1696.02H362.9c-8.1,0-16.97-4.32-17.45-12.34l-1.26-10.12c-0.84-7.33-0.08-12.89,6.29-16.23l0.4-0.21
						c18.38-9.62,62.99-24.7,93.88-27.38c25.35-2.2,37.27-0.52,47.8,0.96c1.55,0.22,3.05,0.43,4.56,0.62
						c1.93,0.25,3.49,1.62,3.98,3.5c0.44,1.69-0.08,3.44-1.33,4.61l-19.39,35.48c-0.16,0.29-0.38,0.55-0.65,0.75
						C461.51,1688.98,439.97,1696.02,417.42,1696.02z M466.74,1633.22c-5.94,0-12.97,0.29-21.59,1.04
						c-30.32,2.64-74.12,17.44-92.17,26.88c0,0,0,0,0,0l-0.39,0.21c-3.73,1.95-4.67,4.78-3.89,11.66l1.27,10.24
						c0.35,5.71,7.77,8.21,12.93,8.21h54.52c21.41,0,41.88-6.63,59.21-19.17l19.35-35.41c0.16-0.29,0.38-0.55,0.65-0.74l-0.09-0.31
						c-1.53-0.2-3.05-0.41-4.62-0.63C485.21,1634.25,477.9,1633.22,466.74,1633.22z M351.93,1659.14h0.02H351.93z"/>
				</g>
				<g>
					<path class="st1" d="M351.93,1659.13c19.06-9.98,63.45-24.56,93.02-27.13c11.82-1.03,23.25-1.2,33.42-0.94l-35.71,25.15
						c-13.91,9.79-29.99,16.05-46.86,18.23c0,0-35.46-5.09-38.55-8.84L351.93,1659.13z"/>
					<path d="M395.81,1676.71c-0.11,0-0.22-0.01-0.32-0.02c-10.92-1.57-36.68-5.65-39.98-9.64l-5.33-6.46
						c-0.43-0.53-0.61-1.22-0.47-1.9c0.14-0.67,0.57-1.24,1.17-1.56c18.39-9.62,62.99-24.7,93.88-27.39
						c10.65-0.93,21.98-1.24,33.68-0.95c0.98,0.03,1.83,0.68,2.12,1.61c0.28,0.94-0.06,1.95-0.87,2.52l-35.71,25.15
						c-14.15,9.97-30.71,16.41-47.88,18.62C396,1676.7,395.91,1676.71,395.81,1676.71z M355.49,1659.88l3.52,4.27
						c2.1,1.95,20.69,5.67,36.81,7.99c16.33-2.16,32.07-8.31,45.54-17.79l29.99-21.12c-9.01-0.04-17.85,0.3-26.2,1.03
						C416.15,1636.79,374.83,1650.43,355.49,1659.88z"/>
				</g>
			</g>
			<path d="M1262.73,1595.09c-0.59,0-1.16-0.23-1.59-0.65c-0.44-0.43-0.69-1.01-0.69-1.63v-17.61c0-1.23,0.98-2.24,2.22-2.27
				l129.72-3.04c0.6-0.03,1.2,0.22,1.64,0.65c0.44,0.43,0.68,1.01,0.68,1.63v16.25c0,1.12-0.81,2.07-1.91,2.24
				c-6.3,1-12.5,1.58-18.43,1.73l-111.59,2.71C1262.77,1595.09,1262.75,1595.09,1262.73,1595.09z M1265,1577.43v13.07l109.26-2.65
				c5.12-0.12,10.47-0.59,15.91-1.38v-11.97L1265,1577.43z"/>
			<path d="M373.49,1847.83c-0.59,0-1.17-0.04-1.77-0.13c-11.63-1.71-39.17-10.21-43.66-52.13c-0.93-8.66,4.11-17.06,12.25-20.43
				c9.43-3.91,30.93-5.65,47.29-6.42c3.51-0.14,6.93,1.2,9.37,3.74c2.4,2.5,3.6,5.9,3.29,9.33c-2.11,23.54-10.7,46.84-15.63,58.63
				C382.73,1844.95,378.3,1847.83,373.49,1847.83z M388.18,1773.24c-0.12,0-0.24,0-0.36,0.01c-13.1,0.62-36.48,2.23-45.77,6.08
				c-6.3,2.61-10.19,9.09-9.48,15.75c4.01,37.37,26.66,46.19,39.81,48.12c3.41,0.49,6.73-1.37,8.06-4.56
				c4.83-11.55,13.25-34.35,15.3-57.28c0.19-2.15-0.53-4.21-2.05-5.79C392.25,1774.09,390.26,1773.24,388.18,1773.24z M398,1781.58
				h0.02H398z"/>
			<g>
				<path class="st1" d="M369.85,1845.08c0.75,0.15,1.48,0.27,2.16,0.37c4.45,0.66,8.78-1.77,10.52-5.92
					c4.58-10.95,13.37-34.43,15.47-57.95c0.53-5.91-4.38-10.88-10.3-10.6c-3.81,0.18-8.34,0.44-13.11,0.8l0.03,0.2
					c2.92,23.36,1.57,47.06-4,69.94L369.85,1845.08z"/>
				<path d="M373.47,1847.83c-0.59,0-1.18-0.04-1.78-0.13c-0.72-0.11-1.48-0.23-2.26-0.38c-0.61-0.12-1.15-0.48-1.48-1
					c-0.34-0.52-0.44-1.16-0.3-1.77l0.77-3.16c5.52-22.69,6.85-45.95,3.95-69.13c-0.08-0.62,0.09-1.34,0.48-1.82
					c0.39-0.48,0.95-0.88,1.57-0.93c4.14-0.32,8.57-0.58,13.17-0.8c3.49-0.14,6.94,1.2,9.38,3.74c2.4,2.5,3.6,5.9,3.29,9.32
					c-2.11,23.55-10.7,46.84-15.63,58.63C382.73,1844.95,378.29,1847.83,373.47,1847.83z M372.64,1843.24
					c3.35,0.35,6.51-1.49,7.8-4.59c4.84-11.55,13.25-34.34,15.3-57.28c0.19-2.15-0.53-4.2-2.04-5.77c-1.53-1.6-3.65-2.48-5.89-2.35
					c-3.69,0.17-7.27,0.38-10.68,0.62c2.62,23.14,1.16,46.14-4.3,68.59L372.64,1843.24z"/>
			</g>
			<g>
				<path class="st1" d="M893.26,1846.53c0-115.09-93.3-208.4-208.4-208.4c-115.09,0-208.4,93.3-208.4,208.4
					c0,30.04,6.37,58.59,17.81,84.39l3.37,1.03H875C886.73,1905.88,893.26,1876.97,893.26,1846.53z"/>
				<path d="M875,1934.22H497.65c-0.23,0-0.45-0.03-0.67-0.1l-3.37-1.03c-0.63-0.19-1.14-0.65-1.41-1.25
					c-11.95-26.94-18-55.64-18-85.31c0-116.16,94.5-210.67,210.67-210.67c116.16,0,210.67,94.5,210.67,210.67
					c0,30.07-6.21,59.13-18.46,86.35C876.7,1933.69,875.9,1934.22,875,1934.22z M497.99,1929.67h375.54
					c11.59-26.25,17.46-54.21,17.46-83.15c0-113.66-92.47-206.12-206.12-206.12s-206.12,92.47-206.12,206.12
					c0,28.68,5.79,56.44,17.2,82.52L497.99,1929.67z"/>
			</g>
			<g>
				<path class="st1" d="M2025.04,1896.86h56.88c4-16.12,6.13-32.98,6.13-50.33c0-115.14-93.34-208.48-208.48-208.48
					s-208.48,93.34-208.48,208.48c0,30.44,6.53,59.35,18.25,85.42h335.7V1896.86z"/>
				<path d="M2025.04,1934.22h-335.7c-0.89,0-1.71-0.52-2.07-1.34c-12.24-27.22-18.45-56.28-18.45-86.35
					c0-116.21,94.54-210.75,210.75-210.75c116.21,0,210.75,94.54,210.75,210.75c0,17.19-2.08,34.3-6.19,50.88
					c-0.25,1.01-1.16,1.73-2.2,1.73h-54.61v32.82C2027.31,1933.2,2026.3,1934.22,2025.04,1934.22z M1690.81,1929.67h331.95v-32.82
					c0-1.26,1.02-2.27,2.27-2.27h55.1c3.74-15.68,5.64-31.84,5.64-48.06c0-113.7-92.51-206.21-206.21-206.21
					c-113.7,0-206.21,92.51-206.21,206.21C1673.36,1875.46,1679.23,1903.43,1690.81,1929.67z"/>
			</g>
			<g>
				<path class="st1" d="M916.93,1539.08l31.73-38.23c4.46-5.38,11.09-8.49,18.08-8.49h28.24c11.98,0,22.04,9.01,23.35,20.92
					l2.11,19.11c0.57,5.17-0.59,10.39-3.31,14.83c-4.21,6.89-11.65,11.13-19.72,11.24c-30.28,0.42-102.94,1.17-101.37-1.19
					c1.57-2.35,12.62-11.07,17.22-14.64C914.62,1541.58,915.84,1540.39,916.93,1539.08z"/>
				<path class="st1" d="M1020.44,1532.38l-2.11-19.11c-1.31-11.91-11.38-20.92-23.35-20.92h-28.24c-6.99,0-13.62,3.11-18.08,8.49
					l-31.73,38.23C916.93,1539.08,976.25,1531.52,1020.44,1532.38z"/>
				<path d="M939.46,1561.21c-43.94,0-44.68-1.38-45.42-2.73c-0.4-0.74-0.35-1.78,0.12-2.48c1.29-1.93,7.25-7.03,17.72-15.17
					c1.21-0.94,2.32-2.02,3.3-3.2l31.73-38.23c4.91-5.92,12.14-9.31,19.83-9.31h28.24c13.16,0,24.17,9.86,25.61,22.94l2.11,19.11
					c0.62,5.64-0.66,11.42-3.62,16.26c-4.64,7.6-12.73,12.21-21.63,12.33C972.57,1561.07,953.73,1561.21,939.46,1561.21z
					 M900.55,1555.92c11.1,0.84,46.58,0.95,96.83,0.26c7.33-0.1,13.99-3.9,17.81-10.16c2.44-3.99,3.5-8.75,2.99-13.4l-2.11-19.11
					c-1.19-10.77-10.26-18.89-21.1-18.89h-28.24c-6.33,0-12.29,2.79-16.33,7.67l-31.73,38.23c-1.19,1.43-2.54,2.74-4.01,3.88
					C907.62,1549.89,903.11,1553.63,900.55,1555.92z"/>
			</g>
			<path d="M2028.09,1934.22H482.87c-17.12,0-34.11-2.54-50.48-7.56l-74.13-22.73c-27.55-8.45-46.97-32.45-49.48-61.15l-4.15-47.4
				c-0.61-7.8,0.87-15.62,4.27-22.64c3.8-7.84,5.14-16.54,3.87-25.17c-0.03-0.18-0.03-0.35-0.02-0.53
				c1.45-16.68,9.28-100.14,20.7-105.59l29.81-12.19c120.74-57.58,231.99-79.75,372.32-96.83l56.7-6.9l64.69-34.79
				c357.62-192.31,683.1-233.36,1123.43-141.67c36.11,7.52,141.86,41.77,142.93,42.12c6.54,2.49,24.09,40.53,33.97,62.98
				c9.68,21.98,25.86,60.96,25.11,67.57l-11.02,96.45l15,77.38c2.74,14.11,4.12,28.54,4.12,42.9v21.62
				c0,19.31-3.76,38.14-11.19,55.96l-7.97,19.13c-11.43,27.43-34.13,48.61-62.28,58.12l-72.13,24.35c-6.75,2.28-7.01,3.93-7.01,3.95
				c-0.12,1.11,3.98,3.57,5.32,4.39c2.81,1.69,5.03,3.03,4.37,5.37C2039.01,1933.63,2036.63,1934.22,2028.09,1934.22z
				 M2035.48,1931.58h0.02H2035.48z M317.31,1747.17c1.34,9.44-0.14,18.96-4.31,27.55c-3.05,6.29-4.38,13.3-3.83,20.28l4.14,47.38
				c2.35,26.85,20.52,49.3,46.28,57.21l74.13,22.73c15.94,4.89,32.47,7.36,49.15,7.36h1545.21c1.84,0,3.26-0.03,4.35-0.09
				c-3.44-2.08-7.43-4.66-7.01-8.48c0.34-3.13,3.45-5.53,10.07-7.76l72.13-24.35c26.92-9.09,48.62-29.34,59.54-55.56l7.97-19.13
				c7.19-17.27,10.84-35.51,10.84-54.21v-21.62c0-14.07-1.36-28.22-4.04-42.04l-15.06-77.72c-0.04-0.23-0.05-0.46-0.03-0.69
				l11.06-96.8c1.16-10.2-48.66-121.87-56.12-125.77c-0.91-0.29-106.43-34.47-142.3-41.94
				c-439.17-91.45-763.76-50.53-1120.35,141.22l-65.07,34.99c-0.25,0.13-0.52,0.22-0.8,0.25l-57.13,6.95
				c-139.88,17.03-250.73,39.11-371.03,96.48l-29.81,12.19C329.38,1648.43,321.48,1699.43,317.31,1747.17z"/>
			<g>
				<g>
					<circle cx="1879.57" cy="1846.53" r="185.97"/>
					<g>
						<circle class="st1" cx="1879.57" cy="1846.53" r="125.08"/>
						<path d="M1879.57,1973.88c-70.22,0-127.35-57.13-127.35-127.35s57.13-127.35,127.35-127.35
							c70.22,0,127.35,57.13,127.35,127.35S1949.79,1973.88,1879.57,1973.88z M1879.57,1723.72c-67.72,0-122.81,55.09-122.81,122.81
							c0,67.72,55.09,122.81,122.81,122.81c67.72,0,122.81-55.09,122.81-122.81C2002.38,1778.81,1947.29,1723.72,1879.57,1723.72z"
							/>
					</g>
					<g>
						<circle class="st1" cx="1879.57" cy="1846.53" r="100.38"/>
						<path d="M1879.57,1949.17c-56.6,0-102.65-46.05-102.65-102.65s46.05-102.65,102.65-102.65c56.6,0,102.65,46.05,102.65,102.65
							S1936.17,1949.17,1879.57,1949.17z M1879.57,1748.42c-54.09,0-98.1,44.01-98.1,98.1c0,54.09,44.01,98.1,98.1,98.1
							c54.1,0,98.1-44.01,98.1-98.1C1977.67,1792.43,1933.66,1748.42,1879.57,1748.42z"/>
					</g>
				</g>
				<g>
					<circle cx="684.87" cy="1846.53" r="185.97"/>
					<g>
						<circle class="st1" cx="684.87" cy="1846.53" r="125.08"/>
						<path d="M684.87,1973.88c-70.22,0-127.35-57.13-127.35-127.35s57.13-127.35,127.35-127.35c70.22,0,127.35,57.13,127.35,127.35
							S755.09,1973.88,684.87,1973.88z M684.87,1723.72c-67.72,0-122.81,55.09-122.81,122.81c0,67.72,55.09,122.81,122.81,122.81
							c67.72,0,122.81-55.09,122.81-122.81C807.67,1778.81,752.58,1723.72,684.87,1723.72z"/>
					</g>
					<g>
						<circle class="st1" cx="684.87" cy="1846.53" r="100.38"/>
						<path d="M684.87,1949.17c-56.6,0-102.65-46.05-102.65-102.65s46.05-102.65,102.65-102.65s102.65,46.05,102.65,102.65
							S741.47,1949.17,684.87,1949.17z M684.87,1748.42c-54.1,0-98.1,44.01-98.1,98.1c0,54.09,44.01,98.1,98.1,98.1
							c54.1,0,98.1-44.01,98.1-98.1C782.97,1792.43,738.96,1748.42,684.87,1748.42z"/>
					</g>
				</g>
			</g>
		</g>
		<g>
			<g>
				<path class="st1" d="M799,583.3c10.87,1.44,5.99-26.93,41.95-29.53c35.96-2.61,38.52,5.21,53.93,14.77
					c15.41,9.55,63.18,11.01,72.55,23.45c8.35,11.08-3,21.72-12.84,25.41c-19.34,7.25-49.44,1.3-64.85,4.56
					c-14.25,3.01-53.08,13.46-76.19,3.04c-23.11-10.42-29.96-6.95-45.37-14.77C752.77,602.41,779.31,580.7,799,583.3z"/>
				<path d="M839.1,631.75c-9.55,0-18.84-1.24-26.48-4.69c-11.89-5.36-19.41-6.98-26.05-8.41c-6.08-1.31-11.82-2.55-19.42-6.4
					c-4.9-2.48-6.86-6.66-5.37-11.45c3.15-10.15,22.32-21.76,37.51-19.75c2.21,0.31,3.44-1.56,6.11-6.54
					c4.53-8.47,11.38-21.27,35.38-23.01c30.38-2.2,37.85,3.04,48.17,10.31c2.19,1.54,4.45,3.13,7.12,4.79
					c6.41,3.97,19.54,6.64,32.23,9.21c18.08,3.67,35.16,7.13,40.94,14.8c3.13,4.16,4.1,8.74,2.78,13.26
					c-2.26,7.79-10.38,13.3-16.64,15.65c-11.89,4.46-27.53,4.11-41.34,3.79c-9.16-0.21-17.83-0.4-23.84,0.87
					c-1.41,0.3-3.06,0.67-4.91,1.08C874.6,627.67,856.43,631.75,839.1,631.75z M795.61,585.36c-12.91,0-27.32,9.8-29.49,16.79
					c-0.51,1.67-0.76,4.11,3.09,6.06c7.07,3.59,12.29,4.71,18.32,6.01c6.86,1.48,14.63,3.15,26.96,8.71
					c20.13,9.07,53.69,1.53,69.82-2.1c1.87-0.42,3.54-0.8,4.97-1.1c6.52-1.38,15.44-1.18,24.88-0.96c13.4,0.29,28.57,0.65,39.64-3.5
					c5.51-2.07,12.2-6.91,13.87-12.66c0.91-3.13,0.22-6.24-2.05-9.26c-4.74-6.3-22.53-9.9-38.22-13.09
					c-13.69-2.78-26.62-5.4-33.72-9.8c-2.78-1.73-5.1-3.36-7.34-4.94c-9.9-6.97-16.45-11.57-45.23-9.49
					c-21.5,1.56-27.4,12.58-31.7,20.62c-2.65,4.95-5.17,9.61-10.71,8.9C797.69,585.42,796.65,585.36,795.61,585.36z"/>
			</g>
			<g>
				<path class="st1" d="M584.89,703.43c10.87,1.1,5.99-20.51,41.95-22.5c35.96-1.98,38.52,3.97,53.93,11.25
					c15.41,7.28,63.18,8.39,72.55,17.86c8.35,8.44-3,16.54-12.84,19.35c-19.34,5.52-49.44,0.99-64.85,3.47
					c-14.25,2.29-53.08,10.26-76.19,2.32c-23.11-7.94-29.96-5.29-45.37-11.25C538.66,717.99,565.2,701.45,584.89,703.43z"/>
				<path d="M624.99,740.88c-9.49,0-18.71-0.94-26.29-3.54c-11.93-4.09-19.47-5.33-26.13-6.43c-6.31-1.04-11.77-1.93-19.32-4.85
					c-6.54-2.53-6.29-6.8-5.88-8.52c2.16-9.02,22.61-17.88,37.74-16.37c2.46,0.25,3.56-1,6.32-4.93
					c4.55-6.47,11.42-16.26,35.28-17.58c30.23-1.67,37.64,2.31,47.9,7.81c2.19,1.18,4.46,2.39,7.13,3.65
					c6.46,3.05,19.62,5.08,32.35,7.05c18.03,2.79,35.05,5.42,40.84,11.27c3.83,3.87,3.89,7.55,3.26,9.95
					c-1.73,6.62-10.29,11.24-17.09,13.18c-11.8,3.37-27.39,3.1-41.15,2.86c-9.21-0.16-17.9-0.31-23.97,0.67
					c-1.41,0.23-3.07,0.51-4.92,0.83C660.39,737.77,642.25,740.88,624.99,740.88z M581.51,705.54c-13.45,0-28.49,7.93-29.72,13.06
					c-0.11,0.46-0.44,1.85,3.1,3.22c7.12,2.75,12.36,3.61,18.42,4.6c6.83,1.12,14.58,2.39,26.87,6.61
					c20.27,6.96,53.94,1.19,70.13-1.57c1.87-0.32,3.54-0.61,4.96-0.84c6.46-1.04,15.35-0.89,24.77-0.73
					c13.43,0.23,28.67,0.5,39.82-2.69c6.08-1.74,12.83-5.72,13.94-9.96c0.49-1.86-0.2-3.69-2.09-5.61
					c-4.74-4.79-22.57-7.54-38.31-9.97c-13.65-2.11-26.55-4.1-33.6-7.43c-2.78-1.31-5.1-2.56-7.34-3.76
					c-9.97-5.34-16.55-8.87-45.5-7.28c-21.65,1.2-27.52,9.55-31.81,15.65c-2.66,3.79-5.17,7.35-10.49,6.84
					C583.63,705.59,582.57,705.54,581.51,705.54z"/>
			</g>
		</g>
		<g>
			<g>
				<g>
					<path class="st1" d="M784.23,2160.63c-15.14,1.36-39.9,4.45-68.64-1.02c-9.4-1.79-15.21-11.3-12.46-20.47
						c7.68-25.57,21.13-74.16,41.13-95.98l4.33,10.68l6.78-9.4c0.97-1.55,2.61-2.54,4.43-2.68l14.25-1.08
						c2.98-0.23,5.63,1.87,6.09,4.82l0.4,6.43l9.56-9.28l2.43,56.7c0.47,11.05,1.73,19.58,3.76,30.45l2.51,13.46
						C799.52,2152.07,793.03,2159.84,784.23,2160.63z"/>
					<path d="M750.12,2165c-10.58,0-22.39-0.78-34.95-3.17c-5.12-0.97-9.62-4.09-12.32-8.54c-2.7-4.44-3.38-9.84-1.89-14.81
						l1.64-5.51c7.85-26.41,21-70.63,39.98-91.35c0.53-0.57,1.31-0.84,2.08-0.7c0.77,0.14,1.41,0.66,1.7,1.38l2.79,6.87l4.37-6.06
						c1.26-2.03,3.58-3.42,6.1-3.62l14.25-1.08c4.15-0.29,7.87,2.65,8.51,6.73l0.11,1.73l6.03-5.85c0.64-0.63,1.59-0.81,2.42-0.48
						c0.83,0.33,1.39,1.12,1.43,2.01l2.44,56.7c0.47,11.07,1.73,19.43,3.72,30.13l2.51,13.46c0.01,0.08,0.02,0.16,0.03,0.23
						c0.81,10.03-6.65,18.92-16.64,19.81l-4.03,0.38C772.28,2164.03,761.97,2165,750.12,2165z M743.55,2047.46
						c-17.03,20.99-29.2,61.91-36.6,86.81l-1.65,5.52c-1.12,3.74-0.6,7.8,1.43,11.14c2.04,3.36,5.42,5.71,9.28,6.44
						c26,4.94,48.85,2.79,63.96,1.37l4.05-0.38c7.47-0.67,13.07-7.3,12.52-14.8l-2.49-13.34c-1.98-10.63-3.31-19.48-3.8-30.77
						l-2.22-51.64l-5.93,5.75c-0.63,0.62-1.58,0.8-2.4,0.49c-0.83-0.32-1.39-1.09-1.45-1.98l-0.4-6.43c-0.26-1.55-1.83-2.8-3.66-2.7
						l-14.25,1.08c-1.09,0.08-2.09,0.69-2.68,1.62l-6.86,9.52c-0.48,0.67-1.28,1.02-2.11,0.93c-0.82-0.1-1.52-0.64-1.83-1.4
						L743.55,2047.46z"/>
				</g>
				<path d="M751.62,2148.64c-11.86,0-25.43-1.2-38.82-4.97c-1.21-0.34-1.91-1.59-1.57-2.8c0.34-1.2,1.6-1.9,2.8-1.57
					c34.91,9.82,72.36,1.34,72.73,1.26c1.21-0.3,2.44,0.47,2.72,1.7c0.28,1.22-0.48,2.44-1.7,2.72
					C786.8,2145.22,771.67,2148.64,751.62,2148.64z"/>
				<path d="M770.45,2108.92c-0.01,0-0.03,0-0.04,0l-33.87-0.59c-1.25-0.02-2.25-1.06-2.23-2.31c0.02-1.25,1.14-2.27,2.31-2.23
					l33.87,0.59c1.25,0.02,2.25,1.06,2.23,2.31C772.7,2107.93,771.69,2108.92,770.45,2108.92z"/>
				<g>
					<path class="st1" d="M902.76,2111.88c-0.48,7.36,4.22,14.08,11.31,16.11c24.66,7.07,80.21,22.83,96.13,26.02
						c20.65,4.15,46.55-0.94,58.16-12.55c11.61-11.62-22.54-42.47-38.91-53.9c-24.32-16.97-46.87-49.24-56.92-51.14
						c-10.04-1.91-30.41,26.48-30.41,26.48l-30.21-14.52C911.91,2048.38,905.2,2074.56,902.76,2111.88z"/>
					<path d="M1025.18,2157.72c-5.22,0-10.44-0.48-15.42-1.48c-16.06-3.23-72.7-19.3-96.3-26.07c-8.05-2.31-13.5-10.06-12.95-18.44
						c2.42-37.1,9.15-63.65,9.22-63.91c0.17-0.66,0.63-1.21,1.24-1.5c0.62-0.29,1.33-0.28,1.94,0.01l28.5,13.7
						c5.29-7.16,21.51-27.79,31.55-25.85c5.75,1.09,13.58,9.3,24.4,20.66c10.05,10.55,21.45,22.51,33.39,30.84
						c13.17,9.2,40.82,33.18,42.19,48.61c0.31,3.53-0.69,6.47-2.97,8.76C1060.85,2152.19,1042.97,2157.72,1025.18,2157.72z
						 M913.47,2051.65c-1.73,7.59-6.49,30.5-8.44,60.38c-0.41,6.26,3.66,12.05,9.67,13.78c23.55,6.75,80.05,22.79,95.95,25.98
						c20.64,4.15,45.28-1.1,56.1-11.93c1.3-1.31,1.85-2.99,1.65-5.14c-1.14-12.95-26.79-35.88-40.26-45.29
						c-12.31-8.6-23.88-20.73-34.08-31.44c-9.07-9.52-17.64-18.52-21.96-19.34c-5.89-1.11-20.03,14.28-28.14,25.58
						c-0.64,0.89-1.83,1.2-2.83,0.72L913.47,2051.65z M902.76,2111.88h0.02H902.76z"/>
				</g>
				<path d="M1026.53,2137.7c-41.73,0-104.41-22.9-107.72-24.13c-1.18-0.43-1.78-1.74-1.35-2.92c0.44-1.18,1.75-1.77,2.92-1.35
					c1,0.37,100.52,36.74,130.71,19.06c1.08-0.63,2.47-0.27,3.11,0.81c0.63,1.08,0.27,2.48-0.81,3.11
					C1046.78,2136.15,1037.36,2137.7,1026.53,2137.7z"/>
				<path d="M975.61,2093.73c-0.66,0-1.32-0.29-1.76-0.84c-0.79-0.97-0.65-2.4,0.33-3.2l23.08-18.8c0.98-0.79,2.41-0.64,3.2,0.33
					c0.79,0.97,0.65,2.4-0.33,3.2l-23.08,18.8C976.62,2093.56,976.12,2093.73,975.61,2093.73z"/>
				<g>
					<path d="M762.54,1455.39c0,0-29.08,261.05-40.35,344.71c-11.27,83.65,11.58,263.29,11.58,263.29
						c19.5,6.64,39.59,6.75,60.57-3.03c0,0,9.92-161.41,17.21-224.29c1.79-15.42,6.06-30.43,12.53-44.53
						c10.17-22.16,26.12-60.34,33.42-96.09c11.17-54.7,44.13-140.34,44.13-140.34s4.26,475.54,4.77,509.79
						c0.24,6.97,65.67,4.7,84.8-15.14c0,0,25.44-187.32,24.99-273.78c-0.44-86.46,15.62-300.41,15.62-300.41L762.54,1455.39z"/>
					<path class="st1" d="M923.83,2070.77c-7.15,0-12.92-0.64-16.1-1.86c-2.9-1.11-3.56-2.76-3.6-3.94
						c-0.46-30.83-4-422.91-4.67-497.63c-9.29,25.15-31.14,86.43-39.74,128.55c-7.49,36.71-24.25,76.27-33.58,96.59
						c-6.44,14.03-10.59,28.78-12.34,43.85c-7.2,62.1-17.1,222.55-17.2,224.16c-0.05,0.83-0.55,1.57-1.31,1.92
						c-20.29,9.46-40.65,10.49-62.26,3.12c-0.82-0.28-1.41-1-1.52-1.86c-0.23-1.8-22.76-180.89-11.58-263.88
						c11.14-82.67,40.06-342.04,40.35-344.65c0.14-1.22,1.24-2.09,2.43-2.01l269.27,20.17c0.6,0.04,1.16,0.33,1.55,0.78
						c0.39,0.46,0.59,1.05,0.54,1.65c-0.16,2.14-16.05,214.85-15.61,300.23c0.44,85.63-24.76,272.22-25.01,274.1
						c-0.07,0.48-0.28,0.92-0.62,1.27C979.77,2064.88,945.48,2070.77,923.83,2070.77z M908.66,2064.35
						c1.08,0.65,5.56,1.97,16.4,1.84c18.88-0.2,51.21-5.03,63.98-17.5c1.76-13.09,25.29-190.16,24.87-272.71
						c-0.41-80.79,13.74-275.1,15.46-298.33l-264.82-19.84c-2.84,25.41-29.51,263.91-40.12,342.58
						c-10.58,78.5,9.31,244.21,11.41,261.28c19.52,6.33,37.96,5.41,56.31-2.83c0.98-15.8,10.27-163.89,17.13-223.05
						c1.8-15.54,6.08-30.76,12.72-45.22c9.24-20.13,25.85-59.33,33.26-95.6c11.08-54.26,43.9-139.84,44.23-140.7
						c0.39-1.02,1.46-1.6,2.53-1.42c1.07,0.2,1.86,1.12,1.87,2.22C903.94,1559.81,908.12,2026.58,908.66,2064.35z"/>
				</g>
				<path class="st1" d="M782.47,1814c-6.43,0-12.83-1.83-18.32-5.4c-1.05-0.69-1.35-2.09-0.67-3.14c0.69-1.05,2.09-1.35,3.14-0.67
					c7.56,4.92,17.14,6.02,25.63,2.97c1.17-0.43,2.48,0.19,2.91,1.37c0.43,1.18-0.19,2.48-1.37,2.91
					C790.14,1813.35,786.3,1814,782.47,1814z"/>
				<path class="st1" d="M779.48,1533.65c-1.15,0-2.13-0.87-2.26-2.04c-0.13-1.25,0.77-2.36,2.02-2.49
					c10.74-1.12,23.52-8.74,27.16-26.76c0.25-1.23,1.43-2.03,2.68-1.78c1.23,0.25,2.03,1.45,1.78,2.68
					c-4.13,20.43-18.79,29.09-31.14,30.38C779.64,1533.64,779.56,1533.65,779.48,1533.65z"/>
				<path class="st1" d="M942.08,1945.92c-0.05,0-0.1,0-0.16,0c-1.25-0.09-2.2-1.17-2.11-2.42c2.77-40.19,50.52-110.04,52.56-113
					c0.71-1.03,2.13-1.3,3.16-0.59c1.03,0.71,1.3,2.13,0.59,3.16c-0.49,0.71-49.09,71.78-51.77,110.73
					C944.26,1945,943.26,1945.92,942.08,1945.92z"/>
			</g>
			<g>
				<g>
					<path class="st1" d="M1008.25,1127.59c14.7-42.36,36.37-36.57,51.97-24.24c11.21,8.86,18.75,21.62,21.28,35.68
						c2.08,11.6,6.37,28.51,15.03,44.29c16.21,29.52,76.13,41.4,97.03,41.32c9.12-0.04,33.58-29.3,49.29-24.34
						c11.28,3.56-9.75,21.47-7.12,22.76c9.76,4.78,19.04,3.75,27.89,3.71c14.36-0.06,27.19-3.95,32.57-3.98
						c6.81-0.04,9.09,6.93,6.27,13.13c-4.03,8.86-12.83,22.28-27.37,26.97c-25.99,8.38-70.45,0.54-85.95-2.48
						c-11.81-2.29-151.01,6.35-168.73-51.73C1016.71,1196.58,1002.06,1145.41,1008.25,1127.59z"/>
					<path d="M1245.27,1268.87c-20.37,0-42.34-3.48-56.57-6.25c-1.69-0.33-7.14-0.42-14.03-0.54
						c-38.58-0.65-141.07-2.39-156.44-52.76c-3.19-10.43-18.74-63.42-12.12-82.48c6.7-19.31,15.59-30.7,26.4-33.86
						c8.84-2.58,18.64,0.3,29.12,8.58c11.61,9.17,19.46,22.34,22.1,37.06c2.03,11.3,6.24,28.04,14.79,43.6
						c15.54,28.3,73.9,40.14,94.82,40.14c0.07,0,0.14,0,0.21,0c2.8-0.01,8.93-4.65,14.87-9.14c10.88-8.23,24.42-18.48,35.11-15.09
						c3.07,0.97,4.23,2.82,4.66,4.21c1.51,4.84-3.44,11.21-7.41,16.33c-0.76,0.98-1.71,2.2-2.35,3.12
						c7.27,3.05,14.38,2.9,21.28,2.76c1.31-0.03,2.61-0.05,3.9-0.06c8.72-0.04,17.08-1.56,23.18-2.66c3.99-0.73,7.15-1.3,9.38-1.31
						c3.44-0.03,6.32,1.44,8.06,4.12c2.12,3.27,2.23,7.95,0.29,12.22c-3.03,6.67-11.91,22.77-28.74,28.19
						C1267.12,1267.82,1256.44,1268.87,1245.27,1268.87z M1038.92,1096.62c-1.77,0-3.48,0.24-5.14,0.73
						c-9.32,2.72-17.19,13.15-23.38,30.99c-6.28,18.1,10.26,73.41,12.17,79.66c14.41,47.21,114.49,48.91,152.17,49.55
						c7.67,0.13,12.74,0.22,14.82,0.62c21.6,4.19,61.35,10.11,84.82,2.54c15.11-4.87,23.21-19.63,26-25.75
						c1.28-2.83,1.3-5.91,0.03-7.87c-0.88-1.36-2.29-2.05-4.17-2.05c-0.02,0-0.03,0-0.05,0c-1.84,0.01-4.97,0.58-8.6,1.24
						c-6.27,1.14-14.85,2.7-23.97,2.74c-1.26,0-2.54,0.03-3.82,0.06c-7.99,0.16-16.23,0.33-25.07-4c-0.73-0.35-1.25-1.01-1.43-1.8
						c-0.43-1.85,1.02-3.71,3.9-7.42c2.61-3.36,7.46-9.62,6.66-12.19c-0.06-0.19-0.24-0.77-1.69-1.23
						c-8.46-2.68-20.96,6.79-31.01,14.39c-7.42,5.61-13.28,10.05-17.59,10.06c-0.08,0-0.16,0-0.24,0
						c-22.42,0-82.11-12.12-98.79-42.49c-8.84-16.1-13.18-33.35-15.28-44.98c-2.45-13.64-9.71-25.82-20.45-34.3
						C1051.65,1099.47,1044.98,1096.62,1038.92,1096.62z M1008.25,1127.59h0.02H1008.25z"/>
				</g>
				<path d="M1189.57,1219.16l1.14,47.7c-68.07,2.92-120.4-7.99-165.82-24.99c0,0-49.97-137.42-38.61-138.56
					c11.36-1.14,64.74-70.41,64.74-70.41c8.17,36.29,38.71,122.26,54.51,152.19C1113.9,1195.3,1147.24,1206.97,1189.57,1219.16z"/>
				<path class="st1" d="M1149.82,1260.04c-0.02,0-0.04,0-0.06,0c-1.25-0.03-2.24-1.08-2.21-2.33l1.14-43.16
					c0.03-1.23,1.04-2.21,2.27-2.21c0.02,0,0.04,0,0.06,0c1.25,0.03,2.24,1.08,2.21,2.33l-1.14,43.16
					C1152.06,1259.07,1151.05,1260.04,1149.82,1260.04z"/>
				<g>
					<path class="st1" d="M791.31,1023.06c2.79-8.24,10.54-23.99,19.69-27.26c18.52-6.61,46.02-10.82,64.55-12.87
						c3.19-0.35,20.77,33.57,23.85,35.21c21.55,11.44,17.48,31.9,38.05,35.21c23.75,3.82,21.58-9.65,38.61-24.42
						c3.04-2.63,19.85-28.32,23.28-26.69c9.64,4.59,41.15,18.42,48.27,24.42c17.79,14.99,4.5,184.38,4.5,184.38
						s-4.12,178.89-17.71,255.99c-1.44,8.16-7.63,14.64-15.72,16.41c-22.95,5.02-71.56,13.88-107.36,8.29
						c-31.45-4.91-87.53-24.75-146.62-25.32c-8.54-0.08-15.27-7.29-14.68-15.81l18.34-268.01
						C768.35,1182.59,758.88,1118.97,791.31,1023.06z"/>
					<path d="M937.2,1495.8c-9.1,0-17.98-0.54-26.23-1.83c-9.79-1.53-21.78-4.45-35.67-7.84c-31.19-7.6-70.01-17.06-110.62-17.45
						c-4.78-0.04-9.19-2-12.43-5.5c-3.22-3.48-4.82-8.01-4.49-12.74l18.32-267.78c-0.6-4.56-8.11-68.07,23.09-160.33
						c2.81-8.32,10.84-25.02,21.07-28.67c21.25-7.59,52.58-11.61,65.06-12.99c2.78-0.29,5.15,2.86,16.01,21.04
						c3.59,6.01,8.06,13.5,9.3,14.51c10.53,5.58,15.22,13.31,19.36,20.13c4.46,7.35,7.98,13.16,17.84,14.75
						c14.87,2.39,18.31-2.15,24.57-10.37c2.94-3.86,6.6-8.67,12.2-13.52c0.8-0.69,3.49-4.31,6.08-7.81
						c11.94-16.1,16.2-20.85,19.66-19.21c1.84,0.87,4.47,2.09,7.58,3.51c14.01,6.44,35.18,16.17,41.18,21.22
						c18.15,15.3,6.67,168.84,5.3,186.3c-0.04,1.67-4.27,179.82-17.73,256.21c-1.6,9.11-8.46,16.27-17.47,18.24
						C999.85,1489.88,967.36,1495.8,937.2,1495.8z M875.18,985.25c-12.71,1.42-42.96,5.38-63.42,12.69
						c-7.92,2.83-15.42,17.35-18.3,25.85c-31.89,94.3-22.96,157.84-22.87,158.47c0.02,0.16,0.03,0.33,0.02,0.49l-18.34,268.01
						c-0.24,3.47,0.93,6.79,3.29,9.35c2.38,2.57,5.63,4.01,9.14,4.04c41.13,0.39,80.23,9.92,111.66,17.58
						c13.79,3.36,25.69,6.26,35.29,7.76c34.83,5.44,81.69-2.84,106.52-8.27c7.2-1.57,12.69-7.3,13.97-14.59
						c13.4-76.05,17.63-253.86,17.67-255.65c5.31-67.75,8.7-172.15-3.69-182.59c-5.52-4.65-27.2-14.61-40.15-20.57
						c-2.83-1.3-5.27-2.42-7.08-3.28c-2.77,1.58-10.72,12.29-14.62,17.55c-3.67,4.94-5.63,7.56-6.76,8.54
						c-5.24,4.54-8.6,8.95-11.56,12.84c-6.6,8.67-11.37,14.92-28.91,12.11c-11.93-1.92-16.34-9.18-21-16.88
						c-4.02-6.63-8.17-13.48-17.75-18.57c-1.68-0.89-3.84-4.23-10.92-16.1C883.36,997.26,877.34,987.18,875.18,985.25z
						 M791.31,1023.06h0.02H791.31z"/>
				</g>
				<g>
					<path class="st1" d="M756.48,1389.52c106.76,8.33,213.11,28.34,282.04,21.58l1.14-30.66c-55.56,9.3-190.04-10.6-280.9-21.2
						L756.48,1389.52z"/>
					<path d="M1007.56,1414.72c-41.06,0-90.91-5.77-143.05-11.8c-35.2-4.07-71.6-8.29-108.21-11.14c-1.25-0.1-2.18-1.19-2.09-2.44
						l2.27-30.29c0.05-0.62,0.34-1.19,0.82-1.58c0.48-0.39,1.08-0.58,1.71-0.5c15.19,1.77,31.44,3.78,48.65,5.91
						c82.72,10.24,185.67,22.99,231.62,15.3c0.67-0.11,1.36,0.08,1.87,0.53c0.51,0.45,0.8,1.11,0.77,1.79l-1.14,30.66
						c-0.04,1.14-0.92,2.07-2.05,2.18C1029.08,1414.3,1018.63,1414.72,1007.56,1414.72z M758.92,1387.43
						c35.92,2.86,71.59,6.99,106.12,10.98c64.99,7.52,126.42,14.62,171.29,10.61l0.96-25.92c-47.65,6.91-144.52-5.1-230.18-15.7
						c-16.31-2.02-31.77-3.93-46.27-5.64L758.92,1387.43z"/>
				</g>
				<g>
					<path class="st1" d="M998.3,1295.89c17.15-109.36,32.4-213.39,32.27-274.34l-18.17-9.09c-7.54,79.05-22.72,177.84-40.28,282.77
						c-26.64-1.04-56.82-3.16-88.92-5.87c-14.02-80.77-23.74-186.21-32.08-299.62l-24.99,4.54
						c5.62,106.84,14.87,206.45,30.78,292.77c-29.92-2.71-61.03-5.78-92.11-8.84l-2.27,23.85c97.67,14.01,216.71,25.03,280.52,18.17
						l1.14-26.12C1031.62,1295.54,1016.08,1296.05,998.3,1295.89z"/>
					<path d="M996.69,1324.57c-67.62,0-160.38-9.63-234.48-20.26c-1.2-0.17-2.05-1.26-1.94-2.46l2.27-23.85
						c0.06-0.6,0.35-1.16,0.82-1.54c0.47-0.38,1.07-0.55,1.67-0.51l2.28,0.22c28.8,2.84,58.54,5.77,86.83,8.34
						c-14.21-78.08-24.11-173.03-30.28-290.12c-0.06-1.14,0.74-2.15,1.86-2.35l24.99-4.54c0.63-0.12,1.28,0.04,1.8,0.44
						c0.51,0.39,0.83,0.99,0.87,1.63c6.77,92.05,16.48,208.9,31.75,297.67c33.79,2.83,61.66,4.68,85.07,5.63
						c14.34-85.8,31.73-194.71,39.93-280.63c0.07-0.75,0.5-1.41,1.16-1.77c0.65-0.36,1.45-0.38,2.12-0.04l18.17,9.09
						c0.77,0.38,1.25,1.17,1.26,2.03c0.13,62.09-15.62,168.26-31.89,272.1c17.44,0.08,31.55-0.48,42.99-1.77
						c0.66-0.09,1.32,0.14,1.81,0.59c0.48,0.45,0.75,1.1,0.72,1.76l-1.14,26.12c-0.05,1.12-0.91,2.04-2.03,2.16
						C1029.96,1323.93,1014.16,1324.57,996.69,1324.57z M765.01,1300.12c91.77,13.07,211.27,24.51,275.87,18.06l0.94-21.53
						c-11.71,1.18-26,1.66-43.54,1.5c-0.66-0.01-1.28-0.3-1.71-0.8c-0.43-0.5-0.61-1.17-0.51-1.82
						c16.27-103.71,32.14-210.12,32.24-272.59l-13.96-6.98c-8.4,86.21-25.74,194.55-39.98,279.63c-0.19,1.13-1.23,2.01-2.33,1.89
						c-24.28-0.95-53.4-2.87-89.02-5.87c-1.03-0.09-1.87-0.86-2.05-1.87c-12-69.15-21.86-160.92-31.92-297.32l-20.53,3.73
						c6.24,117.45,16.26,212.48,30.64,290.48c0.13,0.7-0.08,1.42-0.55,1.94c-0.48,0.53-1.17,0.8-1.88,0.73
						c-29.2-2.64-60.03-5.68-89.84-8.62l-0.02,0L765.01,1300.12z"/>
				</g>
				<path d="M937.2,1495.8c-9.1,0-17.98-0.54-26.23-1.83c-9.79-1.53-21.78-4.45-35.67-7.84c-31.19-7.6-70.01-17.06-110.62-17.45
					c-4.78-0.04-9.19-2-12.43-5.5c-3.22-3.48-4.82-8.01-4.49-12.74l18.32-267.78c-0.6-4.56-8.11-68.07,23.09-160.33
					c2.81-8.32,10.84-25.02,21.07-28.67c21.25-7.59,52.58-11.61,65.06-12.99c2.78-0.29,5.15,2.86,16.01,21.04
					c3.59,6.01,8.06,13.5,9.3,14.51c10.53,5.58,15.22,13.31,19.36,20.13c4.46,7.35,7.98,13.16,17.84,14.75
					c14.87,2.39,18.31-2.15,24.57-10.37c2.94-3.86,6.6-8.67,12.2-13.52c0.8-0.69,3.49-4.31,6.08-7.81
					c11.94-16.1,16.2-20.85,19.66-19.21c1.84,0.87,4.47,2.09,7.58,3.51c14.01,6.44,35.18,16.17,41.18,21.22
					c18.15,15.3,6.67,168.84,5.3,186.3c-0.04,1.67-4.27,179.82-17.73,256.21c-1.6,9.11-8.46,16.27-17.47,18.24
					C999.85,1489.88,967.36,1495.8,937.2,1495.8z M875.18,985.25c-12.71,1.42-42.96,5.38-63.42,12.69
					c-7.92,2.83-15.42,17.35-18.3,25.85c-31.89,94.3-22.96,157.84-22.87,158.47c0.02,0.16,0.03,0.33,0.02,0.49l-18.34,268.01
					c-0.24,3.47,0.93,6.79,3.29,9.35c2.38,2.57,5.63,4.01,9.14,4.04c41.13,0.39,80.23,9.92,111.66,17.58
					c13.79,3.36,25.69,6.26,35.29,7.76c34.83,5.44,81.69-2.84,106.52-8.27c7.2-1.57,12.69-7.3,13.97-14.59
					c13.4-76.05,17.63-253.86,17.67-255.65c5.31-67.75,8.7-172.15-3.69-182.59c-5.52-4.65-27.2-14.61-40.15-20.57
					c-2.83-1.3-5.27-2.42-7.08-3.28c-2.77,1.58-10.72,12.29-14.62,17.55c-3.67,4.94-5.63,7.56-6.76,8.54
					c-5.24,4.54-8.6,8.95-11.56,12.84c-6.6,8.67-11.37,14.92-28.91,12.11c-11.93-1.92-16.34-9.18-21-16.88
					c-4.02-6.63-8.17-13.48-17.75-18.57c-1.68-0.89-3.84-4.23-10.92-16.1C883.36,997.26,877.34,987.18,875.18,985.25z
					 M791.31,1023.06h0.02H791.31z"/>
				<g>
					<path class="st1" d="M1046.98,1299.95l-129.49,4.15c-4.15,0.13-7.17-3.92-5.84-7.86l53.07-158.14
						c0.79-2.36,2.97-3.98,5.46-4.06l129.49-4.15c4.15-0.13,7.17,3.92,5.84,7.86l-53.07,158.14
						C1051.65,1298.25,1049.47,1299.87,1046.98,1299.95z"/>
					<path d="M917.3,1306.38c-2.6,0-5.05-1.23-6.61-3.32c-1.61-2.16-2.06-4.98-1.2-7.54l53.07-158.14c1.09-3.25,4.12-5.5,7.54-5.61
						l129.49-4.15c2.72-0.14,5.26,1.15,6.87,3.31c1.61,2.16,2.06,4.98,1.2,7.54l-53.07,158.14c-1.09,3.25-4.12,5.5-7.54,5.61
						l-129.49,4.15C917.48,1306.38,917.39,1306.38,917.3,1306.38z M1099.87,1132.16c-0.04,0-0.08,0-0.12,0l-129.49,4.15
						c-1.54,0.05-2.89,1.06-3.38,2.51l-53.07,158.14c-0.39,1.16-0.2,2.39,0.54,3.38c0.73,0.98,1.83,1.46,3.08,1.49l129.49-4.15
						l0.07,2.27l-0.07-2.27c1.54-0.05,2.89-1.06,3.38-2.52l53.07-158.14c0.39-1.16,0.2-2.39-0.54-3.38
						C1102.11,1132.7,1101.04,1132.16,1099.87,1132.16z"/>
				</g>
				<g>
					<path class="st1" d="M1066.56,1144.42l-56.84,1.82c-1.82,0.06-3.15-1.72-2.57-3.45l6.71-21.96c0.35-1.04,1.3-1.75,2.4-1.78
						l56.84-1.82c1.82-0.06,3.15,1.72,2.57,3.45l-6.71,21.96C1068.61,1143.67,1067.66,1144.38,1066.56,1144.42z"/>
					<path d="M1009.64,1148.51c-1.54,0-3-0.73-3.92-1.97c-0.96-1.28-1.22-2.96-0.71-4.47l6.69-21.9c0.67-1.99,2.46-3.33,4.5-3.39
						l56.84-1.82c1.61-0.11,3.13,0.68,4.08,1.97c0.96,1.28,1.22,2.95,0.71,4.47l-6.69,21.9c-0.67,1.99-2.46,3.33-4.5,3.39
						l-56.84,1.82C1009.74,1148.51,1009.69,1148.51,1009.64,1148.51z M1066.56,1144.42h0.02H1066.56z M1073.19,1119.49
						c0,0-0.01,0-0.01,0l-56.84,1.82c-0.14,0.01-0.27,0.1-0.32,0.24l-6.69,21.9c-0.06,0.17-0.04,0.28,0.03,0.38
						c0.07,0.1,0.18,0.15,0.29,0.14l56.84-1.82c0.15-0.01,0.27-0.1,0.32-0.24l6.69-21.9c0.06-0.17,0.04-0.28-0.03-0.37
						C1073.4,1119.54,1073.3,1119.49,1073.19,1119.49z"/>
				</g>
				<g>
					<path class="st1" d="M727.02,1181.49l47.64,12.69c0,0,21.86,42.29,28.08,43.33c22.17,3.7,68.61,3.88,98.83,0.23
						c10.52-1.27,18.86-9.32,20.84-19.74c1.49-7.86,3.12-19.74,16.56-23.75c11.75-3.51,0.14,13.79,9.91,26.81
						c5.25,6.99,21.85,3.89,44.5-1.35c22.65-5.25,28.4,18.96,3.02,33.58c-27.52,15.86-45,14.08-53.78,15.93
						c-17.48,3.7-172.03,27.92-195.88,14.95C728.29,1274.16,727.02,1181.49,727.02,1181.49z"/>
					<path d="M776.71,1290.26c-14.48,0-25.69-1.17-31.07-4.09c-19.05-10.35-20.76-95.03-20.89-104.65
						c-0.01-0.71,0.32-1.39,0.87-1.82c0.56-0.43,1.3-0.59,1.98-0.4l47.64,12.69c0.62,0.17,1.14,0.58,1.43,1.15
						c9.99,19.33,22.97,40.94,26.5,42.14c22.31,3.72,68.19,3.82,98.12,0.2c9.47-1.14,17.06-8.34,18.88-17.91l0.2-1.05
						c1.5-8.05,3.77-20.22,17.94-24.45c1.83-0.55,4.5-1.1,6.51,0.46c2.38,1.85,2.25,5.23,2.08,9.52
						c-0.21,5.33-0.47,11.98,3.78,17.64c4.47,5.96,21.74,2.53,42.17-2.2c12.34-2.85,19.17,2.33,21.46,8.14
						c3.08,7.83-0.86,20.45-16.79,29.63c-22.05,12.71-37.57,14.28-47.84,15.33c-2.6,0.26-4.84,0.49-6.6,0.86
						C934.34,1273.29,831.83,1290.26,776.71,1290.26z M729.34,1184.46c0.61,27.35,4.83,90.31,18.46,97.72
						c22.89,12.44,176.52-11.41,194.33-15.18c2-0.42,4.35-0.66,7.08-0.94c9.89-1,24.82-2.52,46.04-14.74
						c13.61-7.84,17.23-17.95,14.83-24.03c-2.03-5.16-8.24-7.22-16.2-5.37c-23.56,5.45-40.7,8.68-46.83,0.5
						c-5.22-6.96-4.91-14.81-4.68-20.55c0.08-2.09,0.21-5.25-0.33-5.76c0,0-0.52-0.27-2.43,0.3c-11.51,3.44-13.32,13.14-14.78,20.93
						l-0.2,1.07c-2.19,11.52-11.35,20.19-22.79,21.57c-30.28,3.66-76.76,3.54-99.47-0.25c-6.48-1.08-22.28-30.17-29.26-43.63
						L729.34,1184.46z"/>
				</g>
			</g>
			<g>
				<path d="M929.95,957.31c-7.07,5.85-20.66,12.73-30.73,7.01c-7.5-4.26-11.29-14.52-10.45-26.01c-3.58,0.11-8.24-0.37-11.42-3.49
					c-4.9-4.8-3.52-13.09-3.05-18.57c2.2-25.27-7.57-21.94-3.1-38.94c3.51-13.36,19.52-20.55,21.58-21.96
					c10.4-7.09,7.32-12.58,24.38-16.14c28.71-5.99,30.22-18.16,48.89-17.27c1.08,0.05,26.47,1.61,34.2,19.6
					c6.29,14.63-2.77,31.56-11.7,40.25c-11.56,11.25-19.14,5.02-30.64,14.36C937.71,912.55,950.95,939.95,929.95,957.31z"/>
				<g>
					<path class="st1" d="M988.09,909.4c-5.61-5.35-11.54-15.94-13.37-23.47c-6.68-27.5-31.65-32.57-34.23-5.82
						c-0.69,7.13-26.75,5.44-24.03,13.09c7.08,19.95,7.53,14.7-4.22,21.33c-1.29-0.01-2.59,0.2-3.82,0.71
						c-5.98,2.43-8.44,10.25-5.51,17.47c1.78,4.38,5.15,7.51,8.85,8.77l-1.56,30.88c-0.58,11.57-8.11,21.65-19.05,25.49
						c-4.35,1.53-4.69,7.52-0.54,9.55c16.53,8.1,51.21,19.31,88.02-3.99l-6.44-3.29c-11.34-5.79-18.37-17.53-18.13-30.26l0.25-6.04
						c3.3,0.46,6.53,0.4,9.54-0.31c14-3.32,19.39-18.99,18.04-38.88l6.09-5.54C990.82,916.51,990.87,912.06,988.09,909.4z"/>
					<path d="M932.07,1019.64c-17.77,0-32.77-5.45-42.47-10.2c-2.76-1.35-4.36-4.09-4.18-7.15c0.18-3.05,2.09-5.57,4.97-6.59
						c10.11-3.55,16.99-12.76,17.53-23.46l1.48-29.27c-3.79-1.79-6.87-5.14-8.61-9.41c-1.62-3.98-1.85-8.27-0.65-12.07
						c1.25-3.96,3.88-6.93,7.41-8.36c1.28-0.52,2.64-0.81,4.07-0.87c1.93-1.06,3.5-1.81,4.78-2.41c1.21-0.57,2.58-1.22,2.8-1.54
						c0.19-0.67-0.93-3.66-2.23-7.12c-0.73-1.96-1.63-4.33-2.66-7.24c-0.52-1.46-0.42-2.89,0.27-4.15c1.78-3.23,6.94-4.4,12.91-5.76
						c3.69-0.84,10.56-2.39,10.73-4.17c1.13-11.73,6.63-19.08,14.7-19.66c8.71-0.55,19.8,7.82,24.01,25.16
						c1.75,7.2,7.58,17.45,12.73,22.36c1.78,1.7,2.78,4.09,2.75,6.55c-0.03,2.46-1.09,4.82-2.91,6.47l-5.28,4.8
						c1.25,22.24-5.96,36.85-19.85,40.14c-2.46,0.58-5.1,0.78-7.89,0.61l-0.15,3.63c-0.22,11.72,6.41,22.79,16.9,28.14l6.44,3.29
						c0.73,0.37,1.2,1.1,1.24,1.92c0.04,0.81-0.36,1.59-1.05,2.02C962.99,1015.99,946.61,1019.64,932.07,1019.64z M912.14,916.8
						c-1.02,0-1.99,0.18-2.87,0.54c-2.25,0.91-3.96,2.87-4.79,5.51c-0.88,2.8-0.7,5.99,0.53,9c1.46,3.58,4.25,6.38,7.48,7.48
						c0.96,0.33,1.59,1.25,1.54,2.26l-1.56,30.88c-0.63,12.55-8.7,23.35-20.56,27.51c-1.7,0.6-1.91,2.12-1.94,2.57
						c-0.03,0.46,0.01,2.01,1.64,2.8c16.23,7.96,48.08,17.99,82.35-1.78l-2.8-1.43c-12.02-6.14-19.63-18.83-19.37-32.32l0.25-6.09
						c0.03-0.64,0.32-1.24,0.81-1.65c0.49-0.41,1.14-0.6,1.77-0.5c3.15,0.44,6.07,0.35,8.7-0.27c11.74-2.78,17.68-16.09,16.3-36.52
						c-0.05-0.69,0.23-1.37,0.74-1.83l6.09-5.54c0.91-0.82,1.41-1.95,1.43-3.17c0.02-1.22-0.46-2.36-1.35-3.21
						c-5.77-5.51-12.05-16.54-14-24.58c-3.58-14.73-12.62-22.12-19.27-21.7c-5.67,0.4-9.59,6.22-10.5,15.56
						c-0.49,5.04-7.17,6.56-14.25,8.16c-3.64,0.83-9.14,2.07-9.94,3.52c-0.03,0.05-0.07,0.13,0.03,0.43
						c1.02,2.88,1.9,5.23,2.63,7.16c3.44,9.15,4.15,11.05-2.88,14.36c-1.33,0.63-2.98,1.4-5,2.54c-0.35,0.2-0.79,0.3-1.14,0.29
						C912.19,916.8,912.17,916.8,912.14,916.8z"/>
				</g>
				<path d="M954.3,966.1c-0.15,0-0.3-0.02-0.46-0.05c-19.85-4.07-28.08-19.81-28.42-20.47c-0.57-1.12-0.13-2.48,0.99-3.05
					c1.12-0.57,2.48-0.13,3.05,0.99c0.08,0.14,7.64,14.47,25.29,18.09c1.23,0.25,2.02,1.45,1.77,2.68
					C956.31,965.36,955.36,966.1,954.3,966.1z"/>
			</g>
			<path d="M901.56,1237.73c4.68,10.13,4.03,23.67,1.81,38.22c-90.18,22.85-141.44,23.77-171.12,15.14
				c-46.36-115.01,8.95-275.99,74.2-290.75l-18.17,165.06l2.55,48.48c0.28,5.25,4.25,9.57,9.47,10.27L901.56,1237.73z"/>
			<path class="st1" d="M874.6,1275.19c-1.21,0-2.21-0.95-2.27-2.17l-1.51-34.83c-0.06-1.25,0.92-2.31,2.17-2.37
				c1.22-0.05,2.31,0.92,2.37,2.17l1.51,34.83c0.06,1.25-0.92,2.31-2.17,2.37C874.66,1275.19,874.63,1275.19,874.6,1275.19z"/>
			<g>
				<path class="st1" d="M876.11,985.2l64.74,152.19l58.49-133.45c-23.65-8.81-30.95-12.11-56.94-15.97
					C916.41,984.12,904.1,984.83,876.11,985.2z"/>
				<path d="M940.85,1139.66c0,0-0.01,0-0.01,0c-0.91,0-1.72-0.55-2.08-1.38l-64.74-152.19c-0.3-0.7-0.23-1.5,0.19-2.13
					c0.41-0.63,1.12-1.02,1.87-1.03l8.64-0.13c22.36-0.34,34.67-0.54,58,2.92c23.93,3.55,32,6.57,51.49,13.87l5.91,2.21
					c0.59,0.22,1.06,0.67,1.3,1.24c0.24,0.57,0.24,1.22-0.01,1.8l-58.49,133.45C942.57,1139.13,941.75,1139.66,940.85,1139.66z
					 M879.53,987.42l61.35,144.23l55.42-126.43l-3.67-1.37c-19.17-7.18-27.11-10.16-50.56-13.63c-22.97-3.41-35.16-3.22-57.27-2.87
					L879.53,987.42z"/>
			</g>
			<g>
				<polygon class="st1" points="913.59,968.16 895.42,987.47 931.76,1014.73 939.71,978.38 				"/>
				<path d="M931.76,1017c-0.48,0-0.96-0.16-1.36-0.45l-36.34-27.26c-0.52-0.39-0.85-0.98-0.9-1.62c-0.06-0.64,0.17-1.28,0.61-1.75
					l18.17-19.31c0.64-0.67,1.63-0.89,2.48-0.56l26.12,10.22c1.04,0.41,1.63,1.51,1.39,2.6l-7.95,36.34
					c-0.16,0.75-0.7,1.37-1.43,1.64C932.3,1016.95,932.03,1017,931.76,1017z M898.82,987.18l31.48,23.61l6.78-31l-22.89-8.95
					L898.82,987.18z"/>
			</g>
			<g>
				<polygon class="st1" points="965.83,971.57 941.42,977.82 953.91,1015.86 977.19,999.96 				"/>
				<path d="M953.91,1018.14c-0.25,0-0.49-0.04-0.73-0.12c-0.68-0.23-1.2-0.77-1.43-1.44l-12.49-38.05c-0.2-0.6-0.14-1.25,0.17-1.8
					c0.3-0.55,0.82-0.95,1.43-1.11l24.42-6.25c1.11-0.29,2.25,0.3,2.67,1.36l11.36,28.39c0.39,0.99,0.05,2.12-0.83,2.72l-23.28,15.9
					C954.81,1018,954.36,1018.14,953.91,1018.14z M944.33,979.42l10.79,32.87l19.28-13.17l-9.94-24.85L944.33,979.42z"/>
			</g>
			<polygon points="939.71,978.38 931.76,1014.73 953.91,1015.86 			"/>
			<polygon points="939.15,1007.91 928.92,1041.99 924.38,1104.45 939.71,1133.98 960.72,1101.04 957.32,1042.55 947.1,1006.78 			
				"/>
			<g>
				<path d="M873.84,898.88l-11.6-12.84c-3.49-3.86-3.28-9.83,0.53-13.37c26.85-24.97,64.07-47.02,110.66-65.65
					c8.93-3.57,19.11,0.48,23.02,9.27c3.32,7.46,4.5,12.8,6.42,21.13c3.73,16.17-2.25,33.04-15.33,43.25l-2.01,1.57
					C951.93,873.95,917.22,889.48,873.84,898.88z"/>
				<g>
					<path class="st1" d="M870.81,895.86c34.45-17.41,95.97-26.45,120.77-16.66l-3.79,7.57c-24.96-3.33-62.46-0.38-113.19,16.28
						L870.81,895.86z"/>
					<path d="M874.6,905.32c-0.83,0-1.61-0.45-2.01-1.21l-3.78-7.19c-0.28-0.54-0.34-1.17-0.15-1.75c0.18-0.58,0.59-1.06,1.14-1.34
						c35.86-18.12,97.75-26.57,122.62-16.74c0.59,0.23,1.06,0.71,1.29,1.3c0.23,0.59,0.2,1.26-0.09,1.83l-3.78,7.57
						c-0.43,0.87-1.38,1.36-2.33,1.24c-20.42-2.72-56.45-2.12-112.19,16.18C875.07,905.28,874.83,905.32,874.6,905.32z
						 M873.91,896.86l1.81,3.43c54.11-17.53,89.86-18.48,110.76-15.98l1.92-3.84C963.92,872.74,907.42,880.75,873.91,896.86z"/>
				</g>
				<path d="M919.65,891.69c1.12,1.63,65.14,5.85,92.26,3.5c2.04-0.18,2.19-3.1,0.18-3.5l-24.3-4.91
					C957.5,884.09,935.21,885.97,919.65,891.69z"/>
				<g>
					<path class="st1" d="M976.06,846.64l21.58,2.27L997.01,864c-0.33,1.95-1.5,3.67-3.2,4.68l-9.43,5.6l-6.61-5.78
						c-1.57-1.37-2.43-3.38-2.35-5.46L976.06,846.64z"/>
					<path d="M984.39,876.55c-0.54,0-1.07-0.19-1.5-0.56l-6.61-5.78c-2.09-1.83-3.23-4.48-3.13-7.26l0.63-16.39
						c0.02-0.63,0.31-1.22,0.78-1.63c0.48-0.41,1.1-0.61,1.72-0.54l21.58,2.27c1.19,0.12,2.08,1.15,2.03,2.35l-0.62,15.09
						c0,0.09-0.01,0.19-0.03,0.28c-0.44,2.62-2,4.9-4.28,6.26l-9.43,5.6C985.19,876.44,984.78,876.55,984.39,876.55z M978.23,849.15
						l-0.54,13.97c-0.05,1.4,0.52,2.74,1.58,3.67l5.37,4.69l8.01-4.76c1.1-0.65,1.85-1.73,2.1-2.97l0.53-12.8L978.23,849.15z"/>
				</g>
			</g>
		</g>
		<g>
			<g>
				<g>
					<g>
						<path class="st1" d="M1810.09,1978.42l-20.29,76.93c-4.06,15.38-5.13,31.39-3.15,47.17l4.06,32.5l-102.47-16.72l13.24-9.75
							c22.99-16.94,39.23-41.48,45.83-69.26l17.63-74.21L1810.09,1978.42z"/>
						<path d="M1790.72,2137.28c-0.12,0-0.24-0.01-0.37-0.03l-102.47-16.72c-0.9-0.15-1.63-0.82-1.84-1.71
							c-0.22-0.89,0.12-1.82,0.86-2.36l13.24-9.75c22.53-16.6,38.49-40.73,44.97-67.96l17.63-74.21c0.14-0.61,0.53-1.13,1.07-1.44
							c0.54-0.31,1.18-0.39,1.78-0.21l45.14,13.36c1.18,0.35,1.86,1.57,1.55,2.76l-20.29,76.93c-4,15.16-5.04,30.74-3.09,46.3
							l4.06,32.5c0.09,0.71-0.16,1.42-0.68,1.92C1791.86,2137.06,1791.3,2137.28,1790.72,2137.28z M1693.94,2116.92l94.14,15.36
							l-3.68-29.49c-2.02-16.14-0.94-32.3,3.21-48.03l19.72-74.8l-40.73-12.05l-17.08,71.88c-6.72,28.27-23.3,53.33-46.69,70.56
							L1693.94,2116.92z"/>
					</g>
					<g>
						<g>
							<path class="st1" d="M1800.69,2150.9c0.77-13.58,0.96-40.62-7.9-57.58c-1.58-3.02-5.21-4.32-8.38-3.05l-23.45,9.38
								c-3.64,1.46-7.6-1.22-7.6-5.15v-1.6c0-2.27-1.78-4.15-4.05-4.26l-20.2-1.06c-7.54-0.39-15.05,1.03-21.93,4.11
								c-20.89,9.36-65.24,31.48-75.84,54.59c-2.41,5.26,1.5,11.26,7.28,11.52c18.31,0.82,64.64,2.27,153.21,1.52
								C1796.55,2159.29,1800.42,2155.61,1800.69,2150.9z"/>
							<path d="M1744.27,2161.82c-57.22,0-89.94-1.02-105.74-1.73c-3.55-0.16-6.78-2.07-8.64-5.12c-1.82-2.98-2.04-6.49-0.61-9.62
								c10.66-23.23,52.8-44.88,76.98-55.72c7.2-3.23,15.15-4.72,22.99-4.31l20.19,1.06c3.48,0.18,6.2,3.05,6.2,6.53v1.6
								c0,1.1,0.52,2.09,1.44,2.71c0.91,0.62,2.03,0.74,3.05,0.33l23.45-9.38c4.29-1.71,9.11,0.05,11.23,4.11
								c9.02,17.27,8.98,44.23,8.15,58.76c-0.33,5.88-5.21,10.52-11.1,10.57C1774.39,2161.75,1758.56,2161.82,1744.27,2161.82z
								 M1726.7,2089.79c-6.36,0-12.73,1.36-18.57,3.98c-18.99,8.52-64.3,30.77-74.71,53.47c-0.8,1.73-0.67,3.69,0.35,5.36
								c1.07,1.75,2.92,2.85,4.96,2.94c19.71,0.88,65.8,2.25,153.09,1.52c3.5-0.03,6.4-2.79,6.6-6.29c0.8-14.07,0.87-40.1-7.64-56.4
								c-1.04-1.98-3.41-2.83-5.52-1.99l-23.45,9.38c-2.4,0.96-5.13,0.67-7.28-0.78c-2.15-1.46-3.43-3.88-3.43-6.47v-1.6
								c0-1.06-0.83-1.94-1.9-2l-20.19-1.06C1728.24,2089.81,1727.47,2089.79,1726.7,2089.79z M1800.69,2150.9h0.02H1800.69z"/>
						</g>
						<path d="M1718.33,2146.22c-42.48,0-62.77-2.29-63.05-2.32c-1.25-0.15-2.14-1.27-1.99-2.52c0.15-1.24,1.25-2.15,2.52-1.99
							c0.4,0.05,41.63,4.69,130.16,0.64c1.27-0.06,2.32,0.91,2.37,2.17s-0.91,2.32-2.16,2.37
							C1759.28,2145.79,1736.72,2146.22,1718.33,2146.22z"/>
						<path d="M1695.29,2124.44c-0.74,0-1.47-0.36-1.9-1.02c-0.69-1.05-0.39-2.46,0.65-3.15l34.87-22.87
							c1.05-0.69,2.46-0.39,3.15,0.65c0.69,1.05,0.39,2.46-0.65,3.15l-34.87,22.87C1696.15,2124.32,1695.72,2124.44,1695.29,2124.44
							z"/>
					</g>
				</g>
				<g>
					<g>
						<polygon class="st1" points="2017.75,1991.42 2030.14,2078.41 2061.51,2078.41 2058.46,1992.85 						"/>
						<path d="M2061.51,2080.68h-31.36c-1.13,0-2.09-0.83-2.25-1.95l-12.39-86.98c-0.1-0.67,0.11-1.34,0.56-1.84
							c0.45-0.5,1.1-0.77,1.77-0.75l40.7,1.43c1.19,0.04,2.15,1,2.19,2.19l3.05,85.55c0.02,0.61-0.21,1.21-0.63,1.66
							C2062.71,2080.43,2062.12,2080.68,2061.51,2080.68z M2032.11,2076.13h27.04l-2.89-81.08l-35.88-1.26L2032.11,2076.13z"/>
					</g>
					<g>
						<g>
							<path class="st1" d="M2031.35,2159.36c12.83,1.38,30.83,4.65,58.3,0.26c8.04-1.28,13.1-9.37,10.9-17.21
								c-5.81-20.65-17.97-58.79-33.36-78.77c-1.12-1.45-3.4-1.05-3.99,0.68l-0.55,3.59c-0.33,2.15-3.25,2.58-4.18,0.61l-3.39-7.18
								c-0.8-1.33-2.18-2.2-3.72-2.34l-11.91-0.46c-2.52-0.24-4.81,1.51-5.25,4l-0.41,5.66c-0.16,2.2-3.09,2.83-4.14,0.89
								l-5.13-5.27c-1.04-1.41-3.28-0.64-3.23,1.11l0.61,22.6c0.44,16.33-0.74,32.66-3.54,48.76l-1.4,8.09
								C2016.22,2151.86,2023.89,2158.56,2031.35,2159.36z"/>
							<path d="M2062.62,2164.1c-10.64,0-19.27-1.03-26.39-1.89c-1.8-0.22-3.5-0.42-5.12-0.59c-8.46-0.91-17.28-8.56-16.41-17.44
								l1.43-8.26c2.76-15.91,3.94-32.16,3.5-48.31l-0.61-22.61c-0.05-1.78,1.05-3.37,2.74-3.95c1.63-0.56,3.41-0.04,4.48,1.28
								l5.04,5.18c0.14,0.15,0.27,0.32,0.37,0.5l0.29-5.64c0-0.08,0.01-0.15,0.03-0.23c0.64-3.64,4.02-6.23,7.69-5.87l11.78,0.45
								c2.38,0.22,4.42,1.5,5.58,3.44l3.5,7.38l0.43-3.57c0.02-0.13,0.05-0.26,0.1-0.39c0.55-1.6,1.92-2.76,3.59-3.04
								c1.67-0.28,3.32,0.38,4.35,1.71c15.6,20.24,27.84,58.52,33.75,79.54c1.24,4.39,0.53,9.12-1.93,12.97
								c-2.43,3.8-6.37,6.39-10.8,7.1C2079.62,2163.52,2070.56,2164.1,2062.62,2164.1z M2023.59,2066.14l0.58,21.35
								c0.44,16.45-0.76,33-3.57,49.21l-1.4,8.09c-0.59,6.05,6.17,11.64,12.39,12.31c1.64,0.18,3.36,0.38,5.18,0.6
								c12.18,1.46,28.86,3.46,52.52-0.32c3.2-0.51,5.93-2.31,7.69-5.06c1.76-2.76,2.27-6.14,1.38-9.29
								c-5.82-20.7-17.85-58.36-32.98-78l-0.49,3.23c-0.3,1.96-1.82,3.47-3.78,3.76c-1.95,0.27-3.85-0.72-4.7-2.52l-3.39-7.18
								c-0.32-0.51-1.06-0.97-1.88-1.05l-11.78-0.45c-1.42-0.14-2.63,0.76-2.9,2.03l-0.4,5.53c-0.14,2-1.56,3.63-3.52,4.05
								c-1.84,0.39-3.69-0.37-4.7-1.93L2023.59,2066.14z"/>
						</g>
						<path d="M2058.07,2147.93c-15.32,0-24.81-3.52-25.4-3.75c-1.17-0.45-1.76-1.76-1.31-2.93c0.44-1.17,1.76-1.76,2.93-1.32
							c0.21,0.08,20.83,7.67,50.28-0.07c1.21-0.31,2.45,0.41,2.77,1.62c0.32,1.21-0.41,2.46-1.62,2.77
							C2075.26,2147.01,2065.9,2147.93,2058.07,2147.93z"/>
						<path d="M2072.64,2116.12h-28.76c-1.26,0-2.27-1.02-2.27-2.27c0-1.26,1.02-2.27,2.27-2.27h28.76c1.26,0,2.27,1.02,2.27,2.27
							C2074.91,2115.11,2073.89,2116.12,2072.64,2116.12z"/>
					</g>
				</g>
				<g>
					<g>
						<path d="M2018.7,1393.09l-163.24,9.45c0,0,1.55,4.74,4.32,13.4l-44.55,3.13c0,0-41.12,265.61-42.76,329.04
							c-1.63,63.43-28.02,255.36-28.02,255.36s33.9,12.58,72.61,3.78c0,0,76.62-206.8,114.63-347.24
							c32.96,122.56,64.36,259.8,65.43,341.17c0,0,30.72,7.21,74.87,0C2071.99,2001.18,2100.31,1526.17,2018.7,1393.09z"/>
						<path class="st1" d="M1788.28,2012.68c-25.16,0-43.58-6.69-44.62-7.08c-1-0.37-1.61-1.38-1.46-2.44
							c0.26-1.92,26.39-192.53,28-255.11c1.62-62.85,42.37-326.67,42.78-329.33c0.16-1.05,1.03-1.84,2.09-1.92l41.66-2.93
							c-2.21-6.89-3.44-10.63-3.44-10.63c-0.22-0.67-0.12-1.4,0.28-1.99c0.4-0.58,1.04-0.95,1.75-0.99l163.24-9.45
							c0.84-0.03,1.63,0.37,2.07,1.08c34.06,55.54,53.43,175,57.58,355.08c3.09,133.93-3.89,253.14-3.96,254.33
							c-0.06,1.06-0.85,1.93-1.9,2.11c-44.1,7.19-74.49,0.27-75.76-0.03c-1.02-0.24-1.74-1.14-1.75-2.18
							c-0.88-66.93-22.14-178.78-63.18-332.5c-38.3,138.7-111.73,337.3-112.48,339.33c-0.27,0.72-0.88,1.26-1.63,1.43
							C1807.26,2011.81,1797.33,2012.68,1788.28,2012.68z M1746.95,2001.92c7.21,2.3,36.17,10.36,68.41,3.39
							c6.24-16.92,78.05-212.57,114.14-345.88c0.27-0.99,1.17-1.68,2.19-1.68c1.03,0,1.93,0.69,2.19,1.68
							c42.19,156.87,64.21,271.21,65.48,339.89c6.92,1.32,34.04,5.57,70.47-0.09c1.78-32.27,24.56-475.45-52.36-603.79l-158.94,9.2
							c0.73,2.26,1.89,5.84,3.42,10.61c0.21,0.66,0.11,1.39-0.28,1.97c-0.39,0.58-1.03,0.94-1.72,0.99l-42.74,3.01
							c-3.6,23.42-40.91,267.12-42.45,326.96C1773.21,1807.66,1749.68,1981.91,1746.95,2001.92z"/>
					</g>
					<path class="st1" d="M1931.65,1662.44c-1.02,0-1.94-0.69-2.2-1.72l-19.58-77.71c-0.31-1.22,0.43-2.45,1.65-2.76
						c1.22-0.3,2.45,0.43,2.76,1.65l19.58,77.71c0.31,1.22-0.43,2.45-1.65,2.76C1932.02,1662.42,1931.83,1662.44,1931.65,1662.44z"
						/>
				</g>
			</g>
			<g>
				<path d="M1895.1,1038.1c8.78,50.42,59.97,104.54,111.47,97.39c8.41-1.17,31.08-5.95,54.91-33.55
					c32.85,23.5,74.71,17.28,97.29-10c27.59-33.33,23.82-95.02-16.36-126.68c31.83-0.27,40.39-12.51,42.92-17.33
					c14.91-28.43-24.46-94.93-61.19-95.04c-13.56-0.04-31.55,16.72-66.98,50.23c-36.59,34.61-38.15,41.32-49.22,42.52
					c-32.55,3.53-42.29-51.95-85.48-58.09c-29.57-4.2-62.58,16.46-65.08,35.97c-2.14,16.74,19.47,22.65,31.64,56.09
					C1898.08,1004.53,1891.07,1014.93,1895.1,1038.1z"/>
				<path d="M1937.93,868.81c-2.52,7.71-0.01,29.57,11.59,33.35c11.6,3.78,27.89-11.93,30.41-19.65
					c2.52-7.71-4.84-17.04-16.44-20.82C1951.89,857.91,1940.44,861.1,1937.93,868.81z"/>
			</g>
			<g>
				<g>
					<path class="st1" d="M1797.96,1422.36c0,0-12.91,86.23,2.88,102.75c0,0,51.62-56.54,54.07-97.38L1797.96,1422.36z"/>
					<path d="M1800.84,1527.38c-0.62,0-1.21-0.25-1.64-0.7c-16.37-17.14-4.02-101.09-3.48-104.66c0.18-1.19,1.28-2.08,2.46-1.92
						l56.95,5.37c1.22,0.11,2.13,1.17,2.05,2.4c-2.47,41.17-52.53,96.45-54.66,98.78c-0.42,0.47-1.02,0.73-1.65,0.74
						C1800.86,1527.38,1800.85,1527.38,1800.84,1527.38z M1799.9,1424.82c-3.43,24.04-8.86,80.73,1.06,96.72
						c8.91-10.21,47.91-56.71,51.5-91.77L1799.9,1424.82z"/>
				</g>
				<g>
					<path class="st1" d="M1869.57,1423.23c0,0,16.08,69.57,35.15,86.92c19.08,17.35,71.17-60.23,100.17-61.89
						c29-1.66,60.91,68.31,60.91,68.31s-8.08-87.38-31.96-105.89L1869.57,1423.23z"/>
					<path d="M2065.8,1518.84c-0.87,0-1.69-0.5-2.07-1.33c-0.31-0.69-31.59-68.56-58.71-66.98c-12.49,0.72-30.36,17.18-47.65,33.11
						c-21.76,20.04-42.32,38.98-54.18,28.19c-19.38-17.62-35.18-85.21-35.84-88.08c-0.15-0.65-0.01-1.32,0.38-1.86
						c0.39-0.53,1-0.87,1.66-0.92l164.28-12.56c0.55-0.03,1.12,0.13,1.56,0.47c24.37,18.9,32.49,103.87,32.83,107.48
						c0.1,1.1-0.61,2.12-1.68,2.4C2066.19,1518.82,2066,1518.84,2065.8,1518.84z M1872.4,1425.3c3.12,12.67,17.55,68.35,33.85,83.17
						c8.8,8.01,28.75-10.39,48.05-28.17c17.87-16.47,36.36-33.49,50.46-34.3c0.38-0.02,0.76-0.03,1.13-0.03
						c22.54,0,45.61,38.05,56.14,57.95c-3.23-24.48-11.93-76.58-28.91-90.9L1872.4,1425.3z"/>
				</g>
				<g>
					<path class="st1" d="M1611.5,1007.65l-26.54-27.67c-4.5-4.7-12.1,0.59-9.26,6.44l8.17,16.86c0,0-5.58,2.59-8.34,2.77
						c-6.05,0.39-11.91-2.21-16.1-6.59c-4.85-5.07-12.68-13.13-15.34-15.11c-3.94-2.95-9.02-7.5-14.65-7.96l-0.17-0.01
						c-5.88-0.43-9.72,6.05-6.52,11l11.09,17.16c8.05,12.45,19.87,22,33.73,27.26l22.76,8.64c7.93,3.01,13.25,10.51,13.47,18.98
						l2.3,88.27l46.59-35.6l-20.92-67.64C1627.58,1030.92,1620.69,1018.4,1611.5,1007.65z"/>
					<path d="M1606.1,1149.95c-0.33,0-0.67-0.07-0.98-0.22c-0.77-0.37-1.27-1.14-1.29-1.99l-2.3-88.27
						c-0.2-7.59-4.91-14.23-12.01-16.92l-22.76-8.64c-14.41-5.47-26.46-15.2-34.83-28.14l-11.09-17.16
						c-1.95-3.02-2.03-6.82-0.19-9.91c1.83-3.09,5.2-4.88,8.79-4.59c5.71,0.46,10.49,4.16,14.33,7.13c0.58,0.45,1.14,0.88,1.68,1.29
						c2.68,2,9.98,9.46,15.62,15.36c3.9,4.08,9.16,6.21,14.31,5.9c1.21-0.08,3.47-0.86,5.41-1.64l-7.13-14.73
						c-1.75-3.61-0.67-7.74,2.63-10.03c3.29-2.29,7.54-1.87,10.32,1.03l26.54,27.67c0.03,0.03,0.06,0.06,0.09,0.1
						c9.44,11.05,16.41,23.7,20.7,37.59l20.92,67.64c0.28,0.91-0.03,1.9-0.79,2.48l-46.59,35.6
						C1607.07,1149.79,1606.59,1149.95,1606.1,1149.95z M1528.82,978.64c-1.84,0-3.37,0.87-4.26,2.38c-0.96,1.62-0.93,3.54,0.1,5.13
						l11.09,17.16c7.84,12.13,19.12,21.24,32.62,26.37l22.76,8.64c8.83,3.35,14.69,11.61,14.94,21.05l2.18,83.82l41.79-31.94
						l-20.45-66.13c-4.11-13.27-10.76-25.36-19.78-35.93l-26.49-27.62c-1.5-1.57-3.28-1.26-4.45-0.44
						c-1.16,0.81-2.07,2.37-1.13,4.33l8.17,16.86c0.26,0.55,0.3,1.18,0.09,1.75c-0.2,0.57-0.63,1.04-1.18,1.3
						c-0.61,0.28-6.05,2.77-9.15,2.97c-6.55,0.44-13.05-2.24-17.89-7.29c-7.7-8.05-13.19-13.47-15.06-14.86
						c-0.56-0.42-1.14-0.87-1.74-1.33c-3.37-2.6-7.56-5.85-11.74-6.18C1529.11,978.64,1528.96,978.64,1528.82,978.64z"/>
				</g>
				<g>
					<polygon class="st1" points="1662.15,1090.48 1545.95,1182.56 1597.75,1236.27 1696.32,1154.15 					"/>
					<path d="M1597.74,1238.54c-0.6,0-1.19-0.24-1.63-0.69l-51.8-53.7c-0.45-0.46-0.67-1.09-0.63-1.73
						c0.04-0.64,0.35-1.23,0.86-1.63l116.2-92.09c0.53-0.42,1.21-0.58,1.87-0.44c0.66,0.14,1.22,0.56,1.54,1.15l34.16,63.68
						c0.51,0.95,0.28,2.13-0.55,2.82l-98.57,82.11C1598.78,1238.37,1598.26,1238.54,1597.74,1238.54z M1549.32,1182.79l48.59,50.38
						l95.53-79.58l-32.01-59.65L1549.32,1182.79z"/>
				</g>
				<g>
					<path class="st1" d="M1558.08,1223.75l133.45-102.96c0,0,14.6,22.21,38.53,24.61c20.35,2.04,55.04-40.05,82.43-58.29
						c35.28-23.21,77.07-31.64,117.73-28.19c0,0,0.2,0.01,0.57,0.05c7.3,0.64,15,1.73,23.09,3.37
						c56.17,9.4,194.85,40.49,221.13,121.14c17.73,54.41-3,127.35-6.45,138.74c-0.25,0.81-1.15,1.19-1.92,0.83l-123.27-59.52
						l9.51-28.62c5.7-13.77,0.04-29.62-13.1-36.65l-19.12-10.23c-4.4,24.08-8.02,49.4-3.92,70.88
						c15.15,79.42,32.54,105.39,41.21,170.51c0,0-30.04-7.06-51.85-5.65l-205.52,7.86c-13.72,0.52-25.61-9.56-27.15-23.21
						c-2.15-19.09-2.2-52.88,5.69-112.18c1.02-7.7,1.67-19.93,2.42-34.87C1739.56,1286.64,1662.88,1306.26,1558.08,1223.75z"/>
					<path d="M1799.58,1433.92c-14.42,0-26.78-10.89-28.39-25.24c-2.83-25.12-0.91-63.05,5.7-112.74c0.9-6.78,1.5-16.99,2.19-30.49
						c-26.39,14.98-55.26,21.63-85.84,19.8c-43.61-2.62-89.56-22.7-136.56-59.71c-0.55-0.43-0.87-1.1-0.87-1.8s0.33-1.36,0.88-1.79
						l133.45-102.96c0.5-0.39,1.13-0.54,1.76-0.44c0.62,0.1,1.17,0.46,1.52,0.99c0.14,0.21,14.33,21.34,36.86,23.6
						c12.12,1.21,31.17-15.78,49.62-32.22c10.54-9.4,21.44-19.11,31.33-25.69c34.01-22.38,75.12-32.26,118.93-28.58
						c0.1,0.01,0.2,0,0.29,0.01l0.58,0.07c7.59,0.67,15.45,1.81,23.28,3.39c58.1,9.73,196.28,41.18,222.84,122.66
						c17.77,54.52-2.24,126.27-6.44,140.1c-0.31,1.02-1.04,1.85-2.01,2.27c-0.98,0.43-2.09,0.41-3.06-0.06l-123.27-59.53
						c-1.03-0.5-1.53-1.68-1.17-2.76l9.51-28.62c5.34-12.9,0.15-27.42-12.02-33.93l-16.37-8.76c-4.12,23.09-7.18,46.98-3.37,66.97
						c7.12,37.32,14.87,63.27,21.71,86.16c8,26.76,14.91,49.88,19.51,84.48c0.1,0.74-0.17,1.48-0.73,1.98
						c-0.55,0.5-1.33,0.69-2.05,0.53c-0.3-0.07-29.93-6.97-51.18-5.59l-205.58,7.86
						C1800.31,1433.91,1799.94,1433.92,1799.58,1433.92z M1781.55,1259.09c0.4,0,0.81,0.11,1.17,0.32c0.72,0.43,1.14,1.22,1.1,2.06
						c-0.79,15.71-1.42,27.42-2.44,35.06c-8.17,61.43-7.6,94.61-5.69,111.63c1.36,12.06,11.75,21.21,23.88,21.21
						c0.31,0,0.61-0.01,0.93-0.02l205.52-7.86c17.88-1.17,40.85,3.21,49.24,4.99c-4.56-32.48-11.23-54.82-18.92-80.56
						c-6.87-22.99-14.66-49.06-21.82-86.61c-4.12-21.62-0.55-47.24,3.92-71.71c0.13-0.71,0.59-1.32,1.25-1.64
						c0.65-0.32,1.42-0.3,2.06,0.04l19.12,10.23c14.23,7.62,20.31,24.61,14.13,39.53l-8.83,26.57l120.54,58.2
						c4.69-15.78,23.11-84.35,6.16-136.37c-25.78-79.12-161.98-110-219.34-119.6c-7.75-1.57-15.43-2.69-22.91-3.34l-0.38-0.04
						c-0.06,0-0.12,0-0.18-0.01c-42.88-3.63-83.09,5.98-116.29,27.82c-9.62,6.4-20.39,16.01-30.82,25.3
						c-20.06,17.88-39.04,34.77-53.09,33.35c-20.68-2.07-34.46-17.95-38.78-23.64l-129.28,99.74
						c100.22,77.79,174.12,62.42,218.6,35.66C1780.74,1259.2,1781.15,1259.09,1781.55,1259.09z"/>
				</g>
				<g>
					<path class="st1" d="M2052.26,1299.81l-37.01,57.62l-16.58-11.24c-10.14-6.88-22.57-9.51-34.63-7.35c0,0-17.83,2.37-25.44,8.51
						c-18.36,14.81-2.08,24.03,1.43,25.89c5.66,2.99,13.51,5.78,21.89,4.58c4.89-0.7,17.77,0.97,29.41,7.29
						c8.8,4.78,19.09,14.54,33.06,10.76c11.94-3.24,17.19-10.28,17.19-10.28l47.82-59.63L2052.26,1299.81z"/>
					<path d="M2018.1,1398.99c-8.93,0-16.29-4.68-22.44-8.6c-1.9-1.21-3.7-2.35-5.42-3.29c-11.37-6.17-23.84-7.62-28-7.03
						c-9.21,1.32-17.74-1.9-23.27-4.82c-6.71-3.55-10.67-8.32-11.17-13.43c-0.51-5.34,2.64-10.8,9.37-16.24
						c8.01-6.47,25.81-8.89,26.57-8.99c12.61-2.26,25.51,0.47,36.21,7.72l14.65,9.94l35.76-55.66c0.33-0.52,0.87-0.88,1.48-1
						c0.61-0.12,1.24,0.01,1.75,0.37l37.13,26.14c0.51,0.36,0.85,0.92,0.94,1.54c0.09,0.62-0.08,1.25-0.48,1.74l-47.82,59.63
						c-0.18,0.25-5.82,7.65-18.37,11.05C2022.59,1398.71,2020.3,1398.99,2018.1,1398.99z M1964.45,1375.4
						c6.5,0,17.68,2.13,27.96,7.71c1.85,1.01,3.71,2.19,5.69,3.44c7.28,4.63,15.53,9.87,25.7,7.12c11.05-3,15.92-9.38,15.96-9.45
						l46.36-57.81l-33.22-23.39l-35.73,55.62c-0.33,0.52-0.86,0.88-1.46,1c-0.6,0.12-1.22,0-1.73-0.35l-16.58-11.24
						c-9.71-6.58-21.42-9.06-32.96-6.99c-0.28,0.04-17.4,2.38-24.42,8.04c-5.47,4.41-8.06,8.54-7.7,12.27
						c0.46,4.77,5.69,8.22,8.77,9.85c4.94,2.61,12.5,5.49,20.51,4.34C1962.4,1375.46,1963.36,1375.4,1964.45,1375.4z"/>
				</g>
				<g>
					<path class="st1" d="M2052.84,1268.52l-15.25,28.14l90.11,71.87c0,0,16.4-31.55,21.45-53.72L2052.84,1268.52z"/>
					<path d="M2127.7,1370.8c-0.51,0-1.01-0.17-1.42-0.49l-90.11-71.87c-0.86-0.69-1.1-1.89-0.58-2.86l15.25-28.14
						c0.57-1.06,1.89-1.49,2.98-0.96l96.32,46.29c0.95,0.46,1.47,1.52,1.23,2.55c-5.06,22.2-20.98,52.97-21.65,54.26
						c-0.31,0.6-0.88,1.03-1.54,1.18C2128.02,1370.79,2127.86,1370.8,2127.7,1370.8z M2040.49,1296.07l86.44,68.95
						c3.79-7.58,15.13-31.05,19.58-48.95l-92.72-44.56L2040.49,1296.07z"/>
				</g>
				<path d="M1781.39,1265.79c-0.05,0-0.1,0-0.16,0c-1.25-0.09-2.2-1.17-2.11-2.42c0.4-5.82,0.84-12.18,1.31-18.77
					c1.29-18.39,2.75-39.24,3.59-54.81c0.07-1.25,1.16-2.22,2.39-2.15c1.25,0.07,2.21,1.14,2.15,2.39
					c-0.85,15.61-2.31,36.48-3.6,54.89c-0.46,6.59-0.91,12.95-1.3,18.77C1783.58,1264.88,1782.58,1265.79,1781.39,1265.79z"/>
			</g>
			<g>
				<g>
					<path class="st1" d="M1870.63,1003.91l7.98,66.33l-36.91,16.41c0,0,54.61,37.12,126.53-4.03l-38.82-16.58l-20.02-76.97
						L1870.63,1003.91z"/>
					<path d="M1899.82,1104.16c-35.77,0-59.03-15.38-59.39-15.63c-0.68-0.46-1.06-1.26-0.98-2.08c0.07-0.82,0.59-1.54,1.34-1.87
						l35.37-15.73l-7.78-64.67c-0.12-1.03,0.47-2.02,1.44-2.39l38.77-14.84c0.6-0.23,1.28-0.2,1.85,0.1c0.57,0.3,1,0.82,1.16,1.45
						l19.74,75.89l37.79,16.14c0.79,0.34,1.33,1.1,1.38,1.96c0.05,0.86-0.39,1.67-1.14,2.1
						C1943.51,1099.39,1919.73,1104.16,1899.82,1104.16z M1846.68,1086.92c13.01,6.97,58.94,26.74,116.39-4.03l-34.55-14.76
						c-0.65-0.28-1.13-0.84-1.31-1.52l-19.38-74.51l-34.74,13.3l7.77,64.57c0.12,0.99-0.42,1.94-1.33,2.35L1846.68,1086.92z"/>
				</g>
				<g>
					<path class="st1" d="M1910.29,1007.65c0,0,14.82,5.59,18.72-7.28c3.91-12.87-8.86-12.06-8.86-12.06s13.6-28.21-7.55-30.96
						c-21.14-2.75-36.58-10.57-36.58-10.57s-15.37,26.91-20.31,49.47c-2.98,13.61-2.16,25.63,8.11,29.21
						C1891.94,1035.26,1910.29,1007.65,1910.29,1007.65z"/>
					<path d="M1875.76,1029.82c-3.98,0-8.21-0.66-12.68-2.22c-10.21-3.56-13.43-14.27-9.58-31.84c4.95-22.64,19.92-49,20.55-50.12
						c0.6-1.05,1.91-1.44,3-0.9c0.15,0.08,15.38,7.68,35.85,10.34c5.65,0.73,9.65,3.19,11.88,7.31c4.09,7.56,0.73,18.62-1.31,23.89
						c2.14,0.4,4.82,1.36,6.63,3.64c2.14,2.7,2.51,6.43,1.09,11.1c-1.23,4.07-3.55,6.96-6.89,8.61c-4.8,2.36-10.39,1.39-13.13,0.66
						C1907.56,1014.97,1894.6,1029.82,1875.76,1029.82z M1876.97,949.74c-3.49,6.41-14.97,28.38-19.04,47
						c-3.27,14.96-1.04,23.9,6.64,26.58c26.1,9.09,43.12-15.86,43.83-16.92c0.58-0.88,1.7-1.24,2.69-0.87
						c0.06,0.02,6.49,2.37,11.22,0.03c2.19-1.08,3.67-2.99,4.53-5.84c0.95-3.15,0.85-5.48-0.3-6.95c-1.57-2-5.06-2.23-6.26-2.19
						c-0.81,0.04-1.57-0.34-2.02-1c-0.45-0.67-0.51-1.52-0.16-2.25c0.07-0.15,7.01-14.78,2.68-22.76c-1.52-2.8-4.29-4.42-8.47-4.96
						C1895.16,957.37,1881.84,951.94,1876.97,949.74z"/>
				</g>
			</g>
		</g>
	</g>
</g>
</svg>
