<svg xmlns="http://www.w3.org/2000/svg" xmlns:xlink="http://www.w3.org/1999/xlink" width="417.502" height="442.685" viewBox="0 0 417.502 442.685"><defs><style>.a{fill:none;}.b{fill:#ada4ff;}.c{fill:#9f8fff;}.d{fill:#8c71ff;}.e{fill:#181d5f;}.f{clip-path:url(#a);}.g{fill:url(#b);}.h{fill:#e6d1ff;}.i{fill:#e0e0e0;}.j,.l{fill:#fff;}.j{stroke:#6b3fa0;}.k{fill:#6b3fa0;}.m{fill:#a8ceff;}.n{fill:#7fb5fb;}.o{fill:#90bbfb;}.p{fill:#3d2960;}.q{fill:#f8b88d;}.r{fill:#e98f52;}.s{fill:#fcc59f;}.t{fill:#2f1c51;}.u{fill:#f9d054;}.v{fill:#161616;}.w{fill:#6d4098;}.ab,.x{opacity:0.5;}.ab,.y{fill:#3e1569;}.z{opacity:0.15;}.aa,.ae{fill:#d1d1d1;}.ac{fill:#a981cb;}.ad{fill:#9e6dc9;}.ae{opacity:0.2;}.af{fill:#ed7d2b;}.ag{fill:#233862;}.ah{fill:#f99746;}.ai{fill:#2b478b;}.aj{fill:#f58f3e;}.ak{fill:#ebf3fa;}.al{fill:#f6c19d;}.am{fill:#f3c3a2;}.an{fill:#ebc554;}.ao{stroke:none;}.ap{filter:url(#e);}.aq{filter:url(#c);}</style><clipPath id="a"><rect class="a" width="208.624" height="425.151"/></clipPath><linearGradient id="b" x1="0.5" x2="0.5" y2="1" gradientUnits="objectBoundingBox"><stop offset="0" stop-color="#6b3fa0"/><stop offset="1" stop-color="#362050"/></linearGradient><filter id="c" x="60.178" y="275.698" width="228.762" height="90.846" filterUnits="userSpaceOnUse"><feOffset dy="3" input="SourceAlpha"/><feGaussianBlur stdDeviation="3" result="d"/><feFlood flood-opacity="0.161"/><feComposite operator="in" in2="d"/><feComposite in="SourceGraphic"/></filter><filter id="e" x="102.124" y="193.775" width="228.762" height="90.846" filterUnits="userSpaceOnUse"><feOffset dy="3" input="SourceAlpha"/><feGaussianBlur stdDeviation="3" result="f"/><feFlood flood-opacity="0.161"/><feComposite operator="in" in2="f"/><feComposite in="SourceGraphic"/></filter></defs><g transform="translate(-746.712 -110.302)"><g transform="translate(-670.773 -3203.899)"><g transform="translate(1412.799 3552.739)"><path class="b" d="M1518.646,3844.532s-24.459-21.825-28.6-59.078-27.846-46.284-27.846-46.284,62.088,15.428,62.464,57.949,4.892,51.176,4.892,51.176Z" transform="translate(-1457.515 -3721.484)"/><path class="c" d="M2047.348,3685.194s-13.546-53.433,0-86.923,11.289-45.531,11.289-45.531,23.33,44.4,13.923,73-6.773,72.248-6.773,72.248l-16.557-11.289Z" transform="translate(-1981.702 -3552.739)"/><path class="d" d="M2172.226,4056.534s3.387-62.464,31.608-67.732,33.114-19.567,33.114-19.567,1.819,33.6-17.309,51.928c-18.823,18.04-29.67,17.5-28.579,44.6Z" transform="translate(-2100.183 -3929.723)"/></g><path class="e" d="M1936.138,4804.388l-.019.266-.6,7.536-.057.689-1.031,12.9-.05.683-.986,12.334-.051.683-.67,8.415-.057.677-1.031,12.954-.05.67-.98,12.3-.057.67-1.018,12.8h-44.376l-1.094-13.75-.057-.683-.974-12.246-.057-.664-1.05-13.245-.051-.626-.8-10.027-.051-.632-.948-11.9-.051-.632-.879-11.076-.051-.651-.544-6.8-.051-.632Z" transform="translate(-421.475 -1132.912)"/></g><g transform="translate(837 126)"><g class="f"><path class="g" d="M175.528,425.15l-144.25-.667A31.42,31.42,0,0,1,0,392.929L1.529,31.29A31.424,31.424,0,0,1,33.1,0L177.347.667a31.423,31.423,0,0,1,31.277,31.554l-1.53,361.64a31.421,31.421,0,0,1-31.566,31.289"/><path class="h" d="M177.032,12.973l-27.968-.129a6.947,6.947,0,0,0-6.82,7.068l-.024,5.073a6.944,6.944,0,0,1-6.82,7.068L80.885,31.8a6.953,6.953,0,0,1-6.761-7.131l.022-5.072a6.955,6.955,0,0,0-6.762-7.131l-9.836-.046L33.07,12.308A22.006,22.006,0,0,0,10.962,34.222L9.47,387.207a22,22,0,0,0,21.9,22.1l143.963.666a22.008,22.008,0,0,0,22.107-21.914l1.492-352.987a22.006,22.006,0,0,0-21.9-22.1"/><path class="i" d="M171.23,329.733v3.909h-.4V330.09h-.922v-.357Z"/><path class="i" d="M173.245,329.733v3.909h-.4V330.09h-.922v-.357Z"/><path class="i" d="M174.181,330.984a.3.3,0,0,1,.3-.3.3.3,0,0,1,.3.3.305.305,0,0,1-.3.307.3.3,0,0,1-.3-.307m0,2.379a.3.3,0,0,1,.3-.3.3.3,0,0,1,.3.3.306.306,0,0,1-.3.308.3.3,0,0,1-.3-.308"/><path class="i" d="M178.682,332.615H177.9v1.027h-.4v-1.027h-2.206v-.291l2.072-2.591h.447l-2,2.525h1.7v-.906h.391v.906h.782Z"/><path class="i" d="M181.678,332.492c0,.664-.464,1.184-1.419,1.184a2.022,2.022,0,0,1-1.4-.5l.195-.319a1.7,1.7,0,0,0,1.2.452c.664,0,1.016-.324,1.016-.8,0-.5-.313-.816-1.307-.816h-.832l.2-1.96h2.139v.358h-1.787l-.134,1.245h.5c1.178,0,1.625.464,1.625,1.156"/></g></g><g class="j" transform="translate(861 488)"><rect class="ao" width="162" height="32" rx="16"/><rect class="a" x="0.5" y="0.5" width="161" height="31" rx="15.5"/></g><path class="k" d="M179.371,377.416a8.122,8.122,0,1,1-8.122-8.121,8.123,8.123,0,0,1,8.122,8.121" transform="translate(837 126)"/><path class="l" d="M171.039,382.431h-.019a.252.252,0,0,1-.223-.184l-1.039-3.843-3.6-1.277a.246.246,0,0,1-.167-.234.249.249,0,0,1,.166-.235l8.482-3.031a.251.251,0,0,1,.313.338l-3.68,8.319a.25.25,0,0,1-.228.148m-4.057-5.541,3.066,1.086a.248.248,0,0,1,.159.17l.888,3.288,3.159-7.14Z" transform="translate(837 126)"/><path class="k" d="M39.712,380.7a1.768,1.768,0,1,1-2.717-2.262l3.656-4.39a1.145,1.145,0,1,1,1.759,1.465l-3.1,3.722,0,0a.65.65,0,0,1-.97-.819l2.388-2.867-.328-.274-2.282,2.739v0l-.111.133.014.012a1.056,1.056,0,0,0,1.608,1.339l.007.006.061-.074c.018-.019.039-.035.057-.056l-.006-.005,3.022-3.628,0,0a1.57,1.57,0,0,0-2.412-2.009v0l-3.818,4.585.007.007a2.194,2.194,0,0,0,3.358,2.8l.008.007,3.077-3.7-.328-.273Z" transform="translate(837 126)"/><g transform="translate(-44.945 74.587)"><g transform="translate(860.836 317.413)"><g transform="translate(0)"><g class="aq" transform="matrix(1, 0, 0, 1, -69.18, -281.7)"><rect class="l" width="210.762" height="72.846" rx="7" transform="translate(69.18 281.7)"/></g></g><g transform="translate(39.924 31.356)"><rect class="m" width="26.434" height="3.428" transform="translate(-21.188 0)"/><rect class="m" width="32.947" height="3.427" transform="translate(-21.189 6.855)"/><rect class="m" width="24.263" height="3.427" transform="translate(14.385 6.855)"/><rect class="m" width="24.263" height="3.427" transform="translate(-21.189 13.563)"/><rect class="m" width="17.621" height="3.428" transform="translate(8.089 0)"/><rect class="m" width="35.642" height="3.428" transform="translate(29.512 0)"/></g><g transform="translate(18.735 14.387)"><rect class="n" width="37.425" height="4.853" transform="translate(0.266)"/><rect class="n" width="51.707" height="4.853" transform="translate(41.826)"/></g></g><g transform="translate(-666.473 -892.692)"><path class="o" d="M1668.472,1246.527a27.815,27.815,0,0,0,27.813,27.815q.9,0,1.785-.056a27.721,27.721,0,0,0,17.882-8.09c.61-.61,1.192-1.25,1.746-1.915a27.814,27.814,0,1,0-49.225-17.754Z" transform="translate(0)"/><path class="p" d="M1696.239,1267.664a7.345,7.345,0,0,0,1.645.849c4.333,3.773,11.224,9.858,16.295,14.314a27.721,27.721,0,0,0,17.882-8.09c.61-.61,1.192-1.25,1.746-1.914a27.848,27.848,0,0,0,2.365-3.318,26.961,26.961,0,0,0-2.158-3.225c-4.475-5.788-8.122-7.752-7.122-15.226.541-4.057-2.063-18.4-11.382-19.138-.778-.062-5.484-.854-8.895.093C1698.352,1234.3,1686.728,1261.107,1696.239,1267.664Z" transform="translate(-16.109 -8.542)"/><path class="q" d="M1732.159,1311.622c-.043.016,3.87,2.372,6.965,1.732,2.912-.6,5.871-4.536,5.832-4.547-1.2-.317-2.3-1.661-1.818-8.818l-.554.073-9.329,1.242s.026,2.913-.14,5.645C1732.976,1309.244,1732.7,1311.41,1732.159,1311.622Z" transform="translate(-42.389 -54.096)"/><path class="r" d="M1735.157,1301.45s.026,2.913-.14,5.645c5.165.18,8.188-4.351,9.469-6.887Z" transform="translate(-44.292 -54.242)"/><path class="s" d="M1723.332,1270.84s12.186.972,12.674-6.626,2.391-12.59-5.37-13.532-9.459,1.86-10.239,4.357S1720.174,1270.391,1723.332,1270.84Z" transform="translate(-34.351 -21.153)"/><path class="t" d="M1724.925,1248.945s6.168,8.173,11.21,9.815,7.353.409,7.353.409a20.6,20.6,0,0,1-3.442-7.649,3.708,3.708,0,0,0-2.526-2.784C1733.906,1247.621,1726.958,1245.967,1724.925,1248.945Z" transform="translate(-37.575 -19.001)"/><path class="t" d="M1725.3,1249.493a19.1,19.1,0,0,0-4.259,3.55,14.662,14.662,0,0,0-2.036,7.536s-2.29-8.538.755-11.787C1722.989,1245.347,1725.3,1249.493,1725.3,1249.493Z" transform="translate(-33.085 -19.109)"/><path class="u" d="M1694.664,1336.913a27.709,27.709,0,0,0,19.054,7.554h1.848c-.022-.017-.041-.036-.063-.056a27.722,27.722,0,0,0,17.882-8.09c.61-.61,1.192-1.25,1.746-1.915a31.534,31.534,0,0,0-2.69-4.912c-3.447-4.81-13.409-5.422-13.409-5.422v0s0,0-.007,0c-.02.013-.039.022-.056.035-3.792,2.237-6.286,2.945-7.922,2.945-2.417,0-2.969-1.531-3.074-1.921v0l0,0v-.007a.5.5,0,0,1-.015-.08v0s-7.191,1.218-10.393,4.2a4.59,4.59,0,0,0-1.386,2.121C1695.91,1332.35,1695.36,1334.361,1694.664,1336.913Z" transform="translate(-17.433 -70.125)"/></g></g><g transform="translate(-480.766 -340.295)"><g transform="translate(1244.765 450.597)"><g transform="translate(96.472)"><g transform="translate(7.101)"><path class="v" d="M1400.516,494.9c.346,5.828,3.072,33.671,16.745,39.164,12.53,5.034,96.44,6.61,109.161,2.051,13.882-4.976,17.715-32.695,18.292-38.505,1.814-18.263-14.3-45.223-71.071-46.289l-.264,0C1416.6,450.245,1399.432,476.579,1400.516,494.9Z" transform="translate(-1400.214 -450.798)"/><path class="w" d="M1400.156,494.7c.349,5.895,3.106,34.05,16.933,39.605,12.671,5.09,97.525,6.684,110.39,2.073,14.039-5.031,17.916-33.063,18.5-38.939,1.834-18.469-14.459-45.731-71.871-46.81l-.267,0C1416.426,449.55,1399.059,476.181,1400.156,494.7Zm17.142-8.17c3.817-6.555,16.518-21.622,56.8-20.88,40.57.747,51.344,15.732,55.193,22.984,5.108,9.624,1.651,26.584-2.39,31.268-9.864,11.434-31.266-.274-54.237-.723s-44.861,10.437-54.226-1.314C1414.589,513.036,1411.81,495.959,1417.3,486.534Z" transform="translate(-1400.108 -450.597)"/><g class="x" transform="translate(0.042 0.001)"><path class="y" d="M1472.725,519.184c-22.982-.449-44.861,10.437-54.225-1.314-3.851-4.832-6.63-21.909-1.143-31.335,3.817-6.555,16.518-21.622,56.8-20.88l.006-15.02-.267,0c-57.413-1.078-74.78,25.552-73.683,44.076.349,5.894,3.106,34.05,16.934,39.6,6.341,2.547,30.756,4.219,55.182,4.676Z" transform="translate(-1400.167 -450.598)"/></g><g transform="translate(39.695 32.579)"><path class="l" d="M1481,522.47c.93,1.3,6.2,6.166,15.006,6.331s14.265-4.5,15.246-5.762a1.653,1.653,0,0,0-.337-2.361,1.772,1.772,0,0,0-2.432.328c-.588.755-5.112,4.562-12.41,4.425s-11.667-4.112-12.225-4.888a1.769,1.769,0,0,0-2.417-.419A1.654,1.654,0,0,0,1481,522.47Z" transform="translate(-1463.544 -503.572)"/><ellipse class="l" cx="5.142" cy="4.992" rx="5.142" ry="4.992" transform="translate(55.422 1.041)"/><ellipse class="l" cx="5.142" cy="4.992" rx="5.142" ry="4.992"/></g><g class="z" transform="translate(92.816 16.662)"><path class="aa" d="M1531.693,474.219c25.333,4.191,33.2,15.407,36.369,21.378,5.108,9.624,1.651,26.584-2.39,31.268,0,0-.8-11.769-10.808-29.046C1544.249,479.5,1531.693,474.219,1531.693,474.219Z" transform="translate(-1531.693 -474.219)"/></g></g><path class="y" d="M1482.948,567.213c15.82.309,41.732,5.67,41.732,5.67-21.762,1.414-58.541.7-79.807-1.575C1444.873,571.308,1469.265,566.946,1482.948,567.213Z" transform="translate(-1406.195 -484.952)"/><path class="y" d="M1390.046,507.708c-.219,10.969,5.131,18,11.9,18.125,2.538.048,3.334-35.74.713-35.79C1395.89,489.916,1390.265,496.739,1390.046,507.708Z" transform="translate(-1390.04 -462.219)"/><path class="y" d="M1611.295,511.783c-.219,10.969-5.844,17.792-12.613,17.665-2.539-.047-1.907-35.839.713-35.79C1606.164,493.785,1611.514,500.814,1611.295,511.783Z" transform="translate(-1451.038 -463.284)"/><g transform="translate(21.309 10.311)"><path class="y" d="M1480.03,470.157c-40.284-.742-52.984,14.325-56.8,20.88a25.227,25.227,0,0,0-2.947,10.535c-.209-5.495.592-11.238,3.045-15.452,3.818-6.555,16.518-21.622,56.8-20.88,40.57.747,51.344,15.732,55.194,22.984,2.284,4.3,2.855,10.072,2.427,15.555a25.187,25.187,0,0,0-2.525-10.638C1531.375,485.889,1520.6,470.9,1480.03,470.157Z" transform="translate(-1420.249 -465.215)"/></g></g><g transform="translate(219.739 61.239)"><g transform="translate(0 52.459)"><path class="w" d="M1630.2,651.735c-15.555,1.193-57.458-7.511-67.781-13.686-12.347-7.386-4.476-27.157,9.764-26.231,15.257.99,52.363,15.149,62.819,21.459C1641.774,637.366,1636.58,651.245,1630.2,651.735Z" transform="translate(-1556.288 -611.786)"/><path class="ab" d="M1630.2,656.113c-15.555,1.193-57.458-7.511-67.781-13.686-5.611-3.356-7.047-9.27-5.607-14.637,1.728-6.444,81.958,16.262,80.78,20.253C1636.373,652.163,1633.439,655.865,1630.2,656.113Z" transform="translate(-1556.288 -616.165)"/></g><g transform="translate(61.082 19.35)"><path class="v" d="M1669.465,623.743c10.964,6.893,6.152,16.949,2.7,21.067-3.806,4.547-15.281,13.029-22.5,8.5-10.964-6.892-6.151-16.948-2.7-21.067C1650.771,627.692,1662.245,619.21,1669.465,623.743Z" transform="translate(-1642.884 -581.819)"/><path class="w" d="M1695.821,565.445c-15.067,10.033-37.558,35.061-43.281,46.386-1.744,3.45-7.509,12.886,2.458,19.152s19.123-3.65,21.867-6.676c10.461-11.543,27.8-38.982,31.12-52.624C1709.023,567.407,1699.085,563.272,1695.821,565.445Z" transform="translate(-1644.773 -564.847)"/><path class="ab" d="M1657.073,631.642c9.967,6.266,19.123-3.65,21.867-6.676,10.461-11.543,27.8-38.982,31.12-52.624.483-1.99-1.411-3.95-3.9-5.257C1705.576,566.78,1649.324,626.77,1657.073,631.642Z" transform="translate(-1646.849 -565.506)"/></g><path class="v" d="M1715.213,578.842c-3.75-.47-8.7-10.957-4.792-13.2a25.142,25.142,0,0,1,5.126-2.074,14.121,14.121,0,0,1,4.4-.59c3.759.4,8.73,11.007,4.792,13.2a23.419,23.419,0,0,1-5.03,2.156A14.876,14.876,0,0,1,1715.213,578.842Z" transform="translate(-1601.279 -544.936)"/><g transform="translate(112.347)"><path class="w" d="M1720.921,555.914s2.7-6.274,5.627-11.394c2.905-5.13,5.771-7.908,7.526-6.152,1.712,1.713-5.2,10.949-.743,12.349C1736.557,551.73,1723.584,555.02,1720.921,555.914Z" transform="translate(-1717.141 -537.54)"/><path class="w" d="M1721.406,568.12c5.837,1.107,20.074-5.28,23.437-6.925,5.485-2.683,10.277-11.086,11.172-19.853.691-6.771-3.606-4.222-10.4,3.354-3.067,3.451-6.709,4.534-15,6.116a46.739,46.739,0,0,0-13.692,4.95C1713.2,557.756,1717.933,567.462,1721.406,568.12Z" transform="translate(-1715.562 -537.415)"/><path class="ab" d="M1741.232,555.811c5.3-2.592,10.978-9.549,12.163-17.926-1.835.84-4.516,3.3-7.785,6.948-3.067,3.451-6.709,4.534-15,6.117a46.721,46.721,0,0,0-13.693,4.949c-1.684.9-1.628,3.386-.748,5.895a5.346,5.346,0,0,0,2.74,1.994C1724.744,564.894,1737.869,557.456,1741.232,555.811Z" transform="translate(-1715.562 -537.553)"/></g></g><g transform="translate(116.457 95.853)"><path class="w" d="M1410.315,638.642c-2.719-28.83,5.594-53.189,62.528-52.12s63.61,36.36,60.4,54.428C1513.455,752.495,1419.922,740.49,1410.315,638.642Z" transform="translate(-1409.867 -586.488)"/><path class="ab" d="M1470.122,719.9c-27.833-.377-54.876-28.985-59.808-81.263-2.719-28.83,5.594-53.189,62.528-52.12Z" transform="translate(-1409.867 -586.488)"/><path class="w" d="M1410.315,638.642c-2.719-28.83,5.594-53.189,62.528-52.12s63.61,36.36,60.4,54.428C1513.455,752.495,1419.922,740.49,1410.315,638.642Z" transform="translate(-1409.867 -586.488)"/><path class="ab" d="M1470.122,719.9c-27.833-.377-54.876-28.985-59.808-81.263-2.719-28.83,5.594-53.189,62.528-52.12Z" transform="translate(-1409.867 -586.488)"/><g transform="translate(35.171 4.366)"><ellipse class="y" cx="8.934" cy="27.351" rx="8.934" ry="27.351" transform="matrix(0.019, -1, 1, 0.019, 0, 17.865)"/><ellipse class="v" cx="7.114" cy="21.779" rx="7.114" ry="21.779" transform="matrix(0.019, -1, 1, 0.019, 5.568, 17.969)"/></g></g><g transform="translate(0 99.846)"><g transform="translate(78.792 15.91)"><path class="w" d="M1372.118,683.624c13.2-8.076,41.417-39.382,45.884-50.325,5.344-13.089-13.147-24.361-23.988-15.352-11.615,9.653-32.628,42.545-37.118,53.673C1353.987,678.83,1366.7,686.937,1372.118,683.624Z" transform="translate(-1356.469 -614.704)"/><path class="ab" d="M1374.034,685.051c13.2-8.076,41.417-39.382,45.884-50.325,2.429-5.948-.065-11.521-4.526-14.986-5.356-4.16-55.659,60.621-52.255,63.136C1366.651,685.471,1371.284,686.733,1374.034,685.051Z" transform="translate(-1358.385 -616.131)"/></g><path class="v" d="M1340.033,675.755c-9.375,8.83-2.642,17.786,1.565,21.176,4.644,3.742,17.6,9.9,23.772,4.09,9.375-8.829,2.642-17.786-1.565-21.175C1359.162,676.1,1346.208,669.948,1340.033,675.755Z" transform="translate(-1271.439 -616.079)"/><g transform="translate(25.382 23.511)"><path class="w" d="M1291.688,625.723c16.788,7,43.861,27.308,51.743,37.337,2.4,3.055,9.945,11.224,1.423,19.251s-19.489.027-22.786-2.424c-12.573-9.349-35.077-32.994-41.061-45.75C1279.13,630.138,1288.051,624.207,1291.688,625.723Z" transform="translate(-1280.75 -625.48)"/><path class="ab" d="M1344.853,683.464c-8.522,8.026-19.489.027-22.786-2.424-12.573-9.349-35.077-32.994-41.061-45.75-.873-1.862.593-4.141,2.776-5.893C1284.291,628.987,1351.479,677.223,1344.853,683.464Z" transform="translate(-1280.75 -626.633)"/></g><path class="v" d="M1287.474,637.667c3.715-.687,7.895-9.945,4.959-13.089-.869-.932-3.59-1.84-5.141-2.122a14.153,14.153,0,0,0-4.423-.333c-3.727.621-6.389,9.551-3.656,12.5a10.915,10.915,0,0,0,4.844,2.819A8.638,8.638,0,0,0,1287.474,637.667Z" transform="translate(-1254.584 -600.958)"/><g transform="translate(19.748 5.683)"><path class="w" d="M1286.014,616.979a52.969,52.969,0,0,0-5.129-10.473c-3.218-4.951-6.251-7.557-7.893-5.7-1.6,1.809,5.865,11.334,1.5,12.99C1271.339,614.994,1283.3,616.242,1286.014,616.979Z" transform="translate(-1272.762 -600.206)"/></g><path class="w" d="M1272.753,625.7c-5.758,1.445-19.862-8.065-23.092-11.323-2.407-2.429-5-9.62-4.893-15.053.233-11.72,4.518-6.311,6.649-3.073a125.307,125.307,0,0,0,10.691,12.381c3.4,3.434,10.513,2.7,14.357,4.471S1276.18,624.843,1272.753,625.7Z" transform="translate(-1244.765 -592.148)"/><g class="x" transform="translate(3.386 0.507)"><path class="y" d="M1263.617,613.928c-4.188-1.518-9.9-9.147-11.595-12.668-1.675-3.481-3.083-9.019-2.17-8.335a15.111,15.111,0,0,1,2.979,3.541,125.31,125.31,0,0,0,10.691,12.381c3.4,3.434,10.513,2.7,14.357,4.471,1.409.652,1.745,2.408,1.435,4.413C1279.2,618.473,1267.619,615.378,1263.617,613.928Z" transform="translate(-1249.565 -592.867)"/></g></g></g></g><g transform="translate(45 75.664)"><g transform="translate(-139.359 -687.097)"><g transform="translate(952.195 921.51)"><g class="ap" transform="matrix(1, 0, 0, 1, -111.12, -199.77)"><rect class="l" width="210.762" height="72.846" rx="7" transform="translate(321.89 272.62) rotate(180)"/></g></g><g transform="translate(1036.691 952.866)"><rect class="ac" width="26.434" height="3.428"/><rect class="ac" width="32.947" height="3.427" transform="translate(0 6.855)"/><rect class="ac" width="24.263" height="3.427" transform="translate(35.574 6.855)"/><rect class="ac" width="24.263" height="3.427" transform="translate(0 13.562)"/><rect class="ac" width="17.621" height="3.428" transform="translate(29.277)"/><rect class="ac" width="35.642" height="3.428" transform="translate(50.699)"/></g><g transform="translate(1036.956 935.897)"><rect class="ad" width="37.425" height="4.853"/><rect class="ad" width="51.707" height="4.853" transform="translate(41.559)"/></g></g><g transform="translate(-400.703 135.074)"><g transform="translate(1226.703 108.641)"><circle class="ad" cx="27" cy="27" r="27" transform="translate(0.001 0.285)"/><path class="ae" d="M1243.952,161.6a27.173,27.173,0,1,1,21.246-50.011Z" transform="translate(-1226.866 -109.125)"/><g transform="translate(8.463 12.358)"><g transform="translate(1.795)"><path class="w" d="M1292.063,165.67H1292c-14.255,0-18.434,6.893-18.07,11.624.116,1.505.939,8.691,4.4,10.045,3.17,1.241,24.239,1.241,27.41,0,3.459-1.354,4.283-8.54,4.4-10.045C1310.5,172.563,1306.319,165.67,1292.063,165.67Zm13.418,17.459c-2.382,2.959-7.759.071-13.466.076s-11.074,2.9-13.466-.076c-.98-1.217-1.754-5.57-.438-8.006.991-1.836,3.74-5.616,13.813-5.612,10,0,13.08,3.917,14,5.612C1307.235,177.558,1306.461,181.912,1305.481,183.129Z" transform="translate(-1273.905 -165.67)"/></g><path class="y" d="M1322.84,262.5a72.223,72.223,0,0,0-10.386,1.25,138.683,138.683,0,0,0,19.816-.02A63.483,63.483,0,0,0,1322.84,262.5Z" transform="translate(-1302.281 -241.456)"/><path class="y" d="M1436.038,204.452c0,2.806-1.363,4.577-3.043,4.577-.63,0-.651-9.155,0-9.155C1434.676,199.875,1436.038,201.646,1436.038,204.452Z" transform="translate(-1396.248 -192.441)"/><path class="y" d="M1265.645,204.452c0,2.806,1.363,4.577,3.043,4.577.63,0,.65-9.155,0-9.155C1267.008,199.875,1265.645,201.646,1265.645,204.452Z" transform="translate(-1265.645 -192.441)"/><g transform="translate(5.304 2.633)"><path class="y" d="M1304.559,179.043c10,0,13.08,3.917,14,5.612a6.6,6.6,0,0,1,.679,2.708,7.716,7.716,0,0,0-.679-3.965c-.915-1.694-3.993-5.608-14-5.612-10.073,0-12.822,3.776-13.813,5.612a7.716,7.716,0,0,0-.679,3.965,6.6,6.6,0,0,1,.679-2.708C1291.738,182.819,1294.486,179.04,1304.559,179.043Z" transform="translate(-1290.049 -177.786)"/></g><g transform="translate(5.323 3.851)"><path class="v" d="M1318.643,189c-.915-1.694-3.993-5.608-14-5.612-10.073,0-12.822,3.776-13.813,5.612-1.316,2.436-.541,6.789.438,8.006,2.392,2.971,7.762.08,13.466.076s11.083,2.884,13.466-.076C1319.184,195.79,1319.958,191.437,1318.643,189Zm-20.785,1.823a1.277,1.277,0,1,1,1.277-1.277A1.277,1.277,0,0,1,1297.858,190.824Zm10.637,2.22a5.334,5.334,0,0,1-7.512,0,.431.431,0,0,1,.7-.506,4.522,4.522,0,0,0,6.117,0,.431.431,0,1,1,.7.506Zm3.125-2.22a1.277,1.277,0,1,1,1.276-1.277A1.277,1.277,0,0,1,1311.619,190.824Z" transform="translate(-1290.136 -183.389)"/><g transform="translate(6.054 4.491)"><path class="l" d="M1347.257,225.351a5.333,5.333,0,0,1-7.512,0,.431.431,0,1,1,.7-.506,4.522,4.522,0,0,0,6.117,0,.431.431,0,1,1,.7.506Z" transform="translate(-1334.953 -220.187)"/><g transform="translate(0 0)"><circle class="l" cx="1.277" cy="1.277" r="1.277" transform="matrix(0.924, -0.383, 0.383, 0.924, 0, 0.977)"/><circle class="l" cx="1.277" cy="1.277" r="1.277" transform="translate(13.964 2.723) rotate(-80.783)"/></g></g><g class="z" transform="translate(0 1.121)"><path class="aa" d="M1296.581,188.547c-3.7,1.262-5.1,3.291-5.747,4.491-1.316,2.436-.541,6.789.438,8.006Z" transform="translate(-1290.136 -188.547)"/></g></g><g transform="translate(5.12 24.541)"><path class="w" d="M1319.834,289.959a27.181,27.181,0,0,1-30.365,2.532c-.15-1.029-.222-1.867-.249-2.28-.307-4.732,3.225-11.624,15.272-11.624h.056C1316.386,278.587,1320,285.239,1319.834,289.959Z" transform="translate(-1289.203 -278.587)"/><ellipse class="y" cx="6.79" cy="2.285" rx="6.79" ry="2.285" transform="translate(8.535 1.226)"/><ellipse class="v" cx="5.407" cy="1.819" rx="5.407" ry="1.819" transform="translate(9.918 2.157)"/></g></g></g></g></g><g transform="translate(-825.711 -680.08)"><path class="p" d="M1874.641,1034.5a27.075,27.075,0,0,1,24.293,6.935,72.14,72.14,0,0,1,8.849,10.122c7.119,9.94-6.512,19.779-4.7,23.148s6.013,6.028,4.175,13.059-13.96,16.157-17.912,16.563c-40.053,4.113-57.436-17.968-44.046-29.871s7.926-29.171,18.8-35.88A33.355,33.355,0,0,1,1874.641,1034.5Z" transform="translate(-7.279)"/><path class="q" d="M2013.428,1254.719s37.72,16.434,44.567,16.135S2107.032,1258,2107.032,1258l-1.074,7.258s-32.56,18.726-43.943,19.789c-11.207,1.046-49.528-10.058-53.227-12.4S2002.676,1257.092,2013.428,1254.719Z" transform="translate(-125.694 -158.643)"/><path class="q" d="M1941,1217.5a36.286,36.286,0,0,1-12.681,5.4c-19.547,4.516-27.038-12-29.851-23.345a16.792,16.792,0,0,1,6.623-2.035c1.413-.167,2.9-.277,4.129-.338,2.195-1.681,5.466-8.562,6.189-19.245l.919.247,15.405,4.216s-.706,4.9-1.051,9.526c-.267,3.622-.309,7.083.377,7.93,1.2.261,1.924.431,1.924.431a.034.034,0,0,0,.008.014A99.192,99.192,0,0,1,1941,1217.5Z" transform="translate(-48.68 -103.471)"/><path class="r" d="M1977.312,1183.034s-.708,4.893-1.051,9.525c-8.728-.874-12.778-9.183-14.355-13.741Z" transform="translate(-94.261 -104.109)"/><path class="s" d="M1975.267,1119.344s-20.716-1.143-19.806-14.033-1.15-21.718,12.115-21.533,15.485,5.285,16.227,9.661S1980.679,1119.309,1975.267,1119.344Z" transform="translate(-89.609 -35.822)"/><path class="t" d="M1967.182,1079.449c-2.92-4.106-5.4-3.429-6.837-2.36-10.864-7.029-18.811,1.641-18.811,1.641a24.684,24.684,0,0,1-9.1,13.968s3.672,2.936,12.459.988c11.243-2.492,15.1-12.241,15.628-13.739,1.182,1.225,2.708,2,3.879,4.661a20.428,20.428,0,0,1,2.289,10.172S1971.562,1085.607,1967.182,1079.449Z" transform="translate(-73.089 -29.044)"/><path class="u" d="M1848.272,1303.192c-1.871-9.563-7.97-47.772-1.871-60.067,2.191-4.417,10.787-4.816,20.218-4.428,2.935,1.9,14.118,9.054,18.711,8.161.049-.01.138-.031.257-.061,2.163-.541,2.98-2.061,1.175-3.371a41.2,41.2,0,0,1,10.472.642c3.276.617,12.114,5.189,12.114,5.189s-4.451,8.04-11.012,10.815c1.116,9.982-.544,14.385-10.9,37.441-8.75,19.489,1.18,37.035,1.18,37.035s-51.511,41.416-51.8,20.328C1836.6,1339,1850.663,1315.416,1848.272,1303.192Z" transform="translate(-4.387 -147.049)"/><path class="af" d="M1949.256,1450.272a9.576,9.576,0,0,0,6.889-4.194q.373-.558.8-1.2c5.864-8.876,8.145-36.059,21.334-65.019,3.213-7.05,14.744-8.318,17.888-16.288,0,0,7.739-25.832-14.812-26.594s-60.4,71.877-61,79.5C1919.776,1423.853,1905.446,1455.216,1949.256,1450.272Z" transform="translate(-62.471 -217.739)"/><path class="ag" d="M2265.5,1694.823h-32.1s-1.2-5.119.907-8.6c1.865-3.082,1.15-4.838-.231-7.388a12.477,12.477,0,0,0,5.406,1.018,11.308,11.308,0,0,0,4.773-1.679c1.382,1.575,7.3,8.279,9.146,9.607C2255.5,1689.285,2264.849,1688.747,2265.5,1694.823Z" transform="translate(-289.077 -462.884)"/><path class="af" d="M2128.138,1341.842c1.933,14.49,9.481,60.225,22.8,82.538,4.292,7.194-10.815,11.226-10.9,11.2-2.027-.53-5.4-3.76-6.958-5.162-10.81-9.742-32.752-37.327-32.752-59.442,0-10.783-.189-31.378,7.652-36.612C2112.808,1331.145,2127.371,1336.087,2128.138,1341.842Z" transform="translate(-193.713 -215.136)"/><path class="ah" d="M1867.644,1445.475s1.19-1.656,3.264-4.8c2.469-3.739,5.2-11.1,8.515-20.528,3.482-9.9,7.612-22.083,12.773-34.757,1.593-3.912,3.285-7.872,5.084-11.826,3.213-7.05,12.05-6.076,15.194-14.046,0,0,12.268-27.629-10.284-28.391s-65.4,73.91-67.868,81.143C1831.626,1420.185,1818.473,1453.06,1867.644,1445.475Z" transform="translate(0 -213.536)"/><path class="ai" d="M2181.8,1694.823h-32.1s-1.2-5.119.907-8.6c1.865-3.082,1.15-4.838-.231-7.388a12.476,12.476,0,0,0,5.406,1.018,11.314,11.314,0,0,0,4.773-1.679c1.381,1.575,7.3,8.279,9.145,9.607C2171.8,1689.285,2181.152,1688.747,2181.8,1694.823Z" transform="translate(-228.942 -462.884)"/><path class="aj" d="M1996.315,1504.06c3.482-9.9,7.612-22.082,12.773-34.757-1.348-9.6-4.256-18-9.145-21.39C1999.944,1447.914,1988.082,1484.661,1996.315,1504.06Z" transform="translate(-116.893 -297.449)"/><path class="ah" d="M2049.268,1342.281c1.933,14.49,4.655,61.252,17.969,83.565,4.292,7.194-10.815,11.226-10.9,11.205-2.027-.53-5.4-3.761-6.958-5.163-10.81-9.742-32.752-37.327-32.752-59.442,0-10.783,12.655-30.513,20.5-35.747A7.888,7.888,0,0,1,2049.268,1342.281Z" transform="translate(-133.58 -216.603)"/><g transform="translate(1938.19 1077.184)"><path class="ag" d="M2259.471,1191.113l-32.872-3.492a2.121,2.121,0,0,0-2.207,1.356l-11.762,30.9a2.122,2.122,0,0,0,1.9,2.875l32.618,1.316a2.122,2.122,0,0,0,2.043-1.3l12.015-28.729A2.121,2.121,0,0,0,2259.471,1191.113Z" transform="translate(-2212.49 -1187.61)"/><path class="ai" d="M2269.615,1192.175l-32.872-3.491a2.122,2.122,0,0,0-2.207,1.355l-11.761,30.9a2.122,2.122,0,0,0,1.9,2.875l32.618,1.316a2.122,2.122,0,0,0,2.043-1.3l12.015-28.729A2.122,2.122,0,0,0,2269.615,1192.175Z" transform="translate(-2219.778 -1188.373)"/><path class="ak" d="M2314.27,1247.274a1.352,1.352,0,0,0-1.271-2,3.159,3.159,0,0,0-2.724,2,1.352,1.352,0,0,0,1.27,2A3.16,3.16,0,0,0,2314.27,1247.274Z" transform="translate(-2282.655 -1229.042)"/><path class="ak" d="M2380.852,1208.985a.664.664,0,0,0-.624-.981,1.553,1.553,0,0,0-1.339.981.665.665,0,0,0,.625.982A1.553,1.553,0,0,0,2380.852,1208.985Z" transform="translate(-2331.999 -1202.263)"/></g><path class="s" d="M1878.63,1254.719s45.558,16.777,52.4,16.434c4.425-.222,41.2-13.15,41.2-13.15l3.3,6.246s-35.8,23.007-45.636,22.893c-19.429-.225-52.211-12.15-55.911-14.495S1867.879,1257.092,1878.63,1254.719Z" transform="translate(-28.845 -158.643)"/><path class="al" d="M2230.963,1253.02s3.3-5.081,6.589-5.23,8.966,2.241,10.908,2.615,7.472,2.167,5.828,4.856-9.264,3.287-12.552,2.69-7.472,1.314-7.472,1.314Z" transform="translate(-287.573 -153.659)"/><path class="am" d="M2251.19,1240.675s5.228-2.4,6.722-2.846,1.2.007.747,1.423-3.138,2.768-3.138,3.212S2251.19,1240.675,2251.19,1240.675Z" transform="translate(-302.105 -146.388)"/><path class="al" d="M2358.763,1242.811s-3.3-5.214-4.376-5.427c-3.288-.649-3.288,3.681-2.591,6.473.748,3,3.281,5.824,3.982,5.577S2359.538,1245.567,2358.763,1242.811Z" transform="translate(-374.123 -146.141)"/><path class="al" d="M2366.445,1260.545a8.727,8.727,0,0,1-4.5,8.9l1.645-4.025Z" transform="translate(-381.68 -162.828)"/><path class="l" d="M2020.6,1182.6s-1.958-.774-7.469-.328c0,0,.293,2.15,4.357,2.363A3.242,3.242,0,0,0,2020.6,1182.6Z" transform="translate(-131.065 -106.491)"/><path class="an" d="M1897.919,1260.293s-4.075,12.9-18.069,15.834c0,0-23.109-7.119-11.6-22.863C1868.248,1253.265,1879.624,1244.811,1897.919,1260.293Z" transform="translate(-24.662 -155.943)"/></g></g></svg>